<svg viewBox="0 0 152 110" fill="none" xmlns="http://www.w3.org/2000/svg">
<path d="M42.982 48.5766C42.9889 49.0978 43.0027 49.4782 43.0165 49.2457L43.0303 48.9922C43.0234 48.8583 43.0096 48.7175 43.0027 48.5837H42.982V48.5766ZM111.322 44.3789H111.356V39.4557L111.37 39.1317L111.356 38.7937V20.6576C111.356 18.277 109.466 16.3471 107.135 16.3471H47.2171C44.865 16.3471 42.9544 18.2911 42.9544 20.6998V48.5766H42.9751C42.9682 48.0413 42.9613 47.3582 42.9544 47.0271C42.9544 47.5483 42.9682 48.0625 42.9958 48.5766H43.0441L43.0234 48.9851C44.0856 67.2762 58.991 81.8274 77.1588 81.8274C95.3266 81.8274 111.363 66.1564 111.363 46.9004C111.363 46.2806 111.342 45.6608 111.308 45.041V44.3719L111.322 44.3789ZM85.1667 18.5587L83.2492 19.7349C81.1248 21.0379 79.2625 22.6578 77.7037 24.5454L77.2278 25.1229L76.7519 24.5454C75.193 22.6578 73.3238 21.0379 71.2063 19.7349L69.2888 18.5587H85.1667ZM45.1685 46.5905C45.1685 46.5271 45.1685 46.5482 45.1685 46.6186V46.5905ZM57.6598 72.5163L56.6389 71.643C49.8657 65.8535 45.7824 57.5567 45.2375 48.633L45.2789 47.6681L46.3135 49.0203C48.9552 52.4645 52.8867 54.6971 57.1011 55.1338L57.6598 55.1902V72.5163ZM64.8262 75.7632C64.8262 76.221 64.3572 76.5309 63.9502 76.3408C62.6121 75.721 61.3154 75.0096 60.0739 74.1996C59.8945 74.0869 59.7911 73.8827 59.7911 73.6714V55.7607C59.7911 55.4367 60.0325 55.162 60.3498 55.1268C61.612 54.993 62.8466 54.6971 64.0468 54.2605C64.433 54.1196 64.8331 54.4084 64.8331 54.8239V75.7562L64.8262 75.7632ZM72.3444 78.8833L71.6133 78.7566C70.1717 78.503 68.7508 78.1438 67.3783 77.693L66.9506 77.5522V39.2797C66.8885 35.2862 64.2261 31.6731 60.3911 30.8913C54.7008 29.7432 49.7415 34.6382 50.583 40.4136C51.1072 44.0267 54.0455 46.8088 57.5701 47.4286C57.6805 47.4497 57.7908 47.4638 57.9012 47.4779C57.9219 47.4779 57.9357 47.4709 57.9495 47.4709C57.9701 47.4709 57.9839 47.4779 57.9977 47.4779C58.584 47.4779 59.0599 46.9919 59.0599 46.3933C59.0599 45.7946 58.584 45.3086 57.9977 45.3086C57.9908 45.3086 57.9839 45.3086 57.9701 45.3086C54.4938 44.8719 51.9142 41.4419 52.7833 37.6316C53.2937 35.4059 55.6871 33.2226 57.9081 32.9408C61.4051 32.4971 64.3779 34.9763 64.7779 38.35H64.8262V51.5136L64.4675 51.6827C62.6397 52.5631 60.7084 53.0068 58.722 53.0068C51.6245 53.0068 45.6651 47.3441 45.1685 40.0615V38.1246C45.672 30.8913 51.6245 25.2215 58.722 25.2215C65.8194 25.2215 72.103 31.2293 72.3237 38.6951V47.5413L72.3375 47.5201V78.8692L72.3444 78.8833ZM73.31 32.8704L72.6479 31.6026C69.9027 26.3132 64.5641 23.0311 58.7151 23.0311C53.8248 23.0311 49.2863 25.306 46.2721 29.2784L45.1616 30.7434V21.6577C45.1616 19.9462 46.5204 18.5657 48.1965 18.5657H59.8186C66.0815 18.5728 71.8823 21.4957 75.731 26.5879L75.9931 26.933L75.7655 27.3063C74.9585 28.6445 74.2964 30.0602 73.7791 31.5392L73.31 32.8845V32.8704ZM79.8695 38.357C79.8557 38.6106 79.835 38.8712 79.835 39.1317L79.8488 39.5473V79.1369L79.2694 79.1721C78.5659 79.2214 77.8623 79.2496 77.145 79.2496C76.4277 79.2496 75.7379 79.2144 75.0413 79.1721L74.4619 79.1369V39.4135L74.5033 38.9698C74.5309 35.8074 75.2551 32.7577 76.6622 29.8982L77.2209 28.7713L77.7727 29.8982C79.0211 32.4337 79.7315 35.1665 79.8833 38.1035L79.8626 38.357H79.8695ZM94.5334 73.6221C94.5334 73.8616 94.4162 74.0799 94.2161 74.2067C92.9815 75.0026 91.6986 75.7139 90.3674 76.3267C89.9535 76.5168 89.4914 76.214 89.4914 75.7491V54.8239C89.4914 54.4084 89.8983 54.1125 90.2777 54.2605C91.471 54.6971 92.7125 54.993 93.9678 55.1268C94.2851 55.162 94.5265 55.4367 94.5265 55.7607V73.6221H94.5334ZM97.6787 71.6289L96.6578 72.5022V55.1972L97.2165 55.1409C101.424 54.7042 105.355 52.4785 107.99 49.0485L109.025 47.6962C109.025 47.6962 109.121 47.3018 109.115 47.661C108.818 56.9439 104.686 65.6281 97.6718 71.6289M109.128 40.4629C108.459 47.6188 102.638 53.0138 95.5887 53.0138C93.5954 53.0138 91.6641 52.5701 89.8363 51.6827L89.4845 51.5136V38.357H89.5328C89.9053 35.2439 92.4573 32.8915 95.5887 32.8915C99.0443 32.8915 101.838 35.8356 101.686 39.3924C101.624 40.8644 100.962 42.2519 99.9755 43.3224C98.8788 44.5057 97.6028 45.1537 96.2854 45.3157C96.2371 45.3157 96.1957 45.3227 96.1474 45.3297C96.1129 45.3297 96.0922 45.3086 96.0578 45.3086C95.4715 45.3086 94.9955 45.7946 94.9955 46.3933C94.9955 46.9919 95.4715 47.4779 96.0578 47.4779C96.106 47.4779 96.1543 47.4568 96.2026 47.4497C96.244 47.4638 96.2854 47.492 96.3267 47.492C96.4647 47.4779 96.5957 47.4568 96.7406 47.4286C100.258 46.8088 103.197 44.0268 103.728 40.4207C104.576 34.6523 99.6375 29.7573 93.9609 30.8842C90.1398 31.6378 87.4705 35.2087 87.367 39.1811V77.5451L86.9324 77.686C85.5737 78.1297 84.1459 78.4889 82.6974 78.7495L81.9732 78.8763V49.2809L81.9939 48.7738V39.5473C81.9939 32.3492 87.1808 26.0104 94.1954 25.306C101.858 24.5313 108.418 30.1588 109.135 37.8429V40.4629H109.128ZM109.128 30.7011L108.018 29.2432C104.376 24.475 98.5408 22.1577 92.5401 23.3128C87.8153 24.2214 83.8424 27.4683 81.5456 31.7787C81.3593 32.1309 80.8627 32.0886 80.7248 31.7153L80.5937 31.3491C80.0833 29.9263 79.4349 28.5529 78.6555 27.264L78.4348 26.9048L78.6969 26.5597C82.5457 21.4746 88.3464 18.5516 94.6093 18.5376H106.211C107.818 18.5376 109.115 19.8617 109.115 21.5027V30.687L109.128 30.7011Z" fill="white"/>
<path d="M45.8169 4.81057L43.5063 1.51437H45.1755L47.1068 4.38094V5.26134L44.6513 8.61388H42.9269L45.8169 4.81761V4.81057ZM48.838 8.60684H47.4723V1.51437H48.838V8.60684ZM52.8109 1.51437L50.5003 4.81057L53.3765 8.60684H51.6591L49.2036 5.25429V4.37389L51.1348 1.50733H52.804L52.8109 1.51437Z" fill="white"/>
<path d="M54.0456 8.60684V1.51437H55.4181V6.09947L59.191 1.50028H60.0463V8.60684H58.6806V4.01469L54.9215 8.60684H54.0456Z" fill="white"/>
<path d="M64.302 3.6555L62.3224 8.60684H60.805L63.8675 1.50028H64.7434L67.8128 8.60684H66.2885L64.302 3.6555Z" fill="white"/>
<path d="M70.1028 1.67624C70.5511 1.47903 71.0132 1.38748 71.5029 1.38748C71.9927 1.38748 72.4548 1.48608 72.9031 1.67624C73.3514 1.86641 73.7308 2.13405 74.055 2.45803C74.3723 2.78202 74.6275 3.17644 74.8206 3.6272C75.0068 4.07796 75.1034 4.5569 75.1034 5.04992C75.1034 5.45138 75.0413 5.83875 74.9241 6.21204C74.8068 6.58532 74.6344 6.9234 74.4137 7.22625C74.1929 7.52911 73.9308 7.7897 73.6342 8.01508C73.3377 8.24047 73.0066 8.41654 72.641 8.54332C72.2755 8.6701 71.8961 8.72645 71.5029 8.72645C71.1098 8.72645 70.7304 8.66305 70.3649 8.54332C69.9993 8.41654 69.6682 8.24047 69.3716 8.01508C69.0751 7.7897 68.8129 7.52207 68.5922 7.22625C68.3715 6.9234 68.1991 6.58532 68.0818 6.21204C67.9577 5.83875 67.9025 5.45138 67.9025 5.04992C67.9025 4.54986 67.999 4.07796 68.1853 3.6272C68.3715 3.17644 68.6267 2.78202 68.9509 2.45803C69.2751 2.13405 69.6544 1.86641 70.1028 1.67624ZM69.9303 6.78958C70.3649 7.27556 70.8891 7.51503 71.5029 7.51503C72.1168 7.51503 72.641 7.27556 73.0756 6.78958C73.5101 6.31065 73.7308 5.72606 73.7308 5.04992C73.7308 4.6062 73.6343 4.1977 73.4342 3.81737C73.2342 3.44408 72.9652 3.14123 72.6272 2.92993C72.2893 2.7116 71.9168 2.60594 71.5098 2.60594C71.1029 2.60594 70.7304 2.7116 70.3925 2.92993C70.0545 3.14827 69.7786 3.44408 69.5855 3.81737C69.3854 4.1977 69.2889 4.6062 69.2889 5.04992C69.2889 5.72606 69.5096 6.31065 69.9441 6.78958" fill="white"/>
<path d="M76.3864 1.51427H77.7589V6.09938L81.5318 1.50019H82.394V8.59969H81.0283V4.0146L77.2692 8.59969H76.3932V1.50724L76.3864 1.51427ZM80.4282 0.1479L80.7593 0.0140893V1.19733L80.6145 1.26777C80.2627 1.42272 79.8765 1.50019 79.4488 1.50019C79.0212 1.50019 78.6142 1.42272 78.2762 1.26777L78.1383 1.19733V0L78.4694 0.1479C78.7867 0.274677 79.1177 0.345108 79.4557 0.345108C79.7937 0.345108 80.1317 0.281723 80.4351 0.16199" fill="white"/>
<path d="M92.4849 1.51438L95.0232 7.38837H95.8577V9.52246H94.4921V8.5998H89.6087V9.5295H88.2361V7.38837H89.0707L91.6089 1.51438H92.4849ZM92.0504 3.66255L90.5605 7.38837H93.5471L92.0504 3.66255Z" fill="white"/>
<path d="M97.9132 1.67624C98.3615 1.47903 98.8236 1.38748 99.3133 1.38748C99.8031 1.38748 100.265 1.48608 100.714 1.67624C101.162 1.86641 101.541 2.13405 101.865 2.45803C102.183 2.78202 102.438 3.17644 102.631 3.6272C102.817 4.07796 102.914 4.5569 102.914 5.04992C102.914 5.45138 102.852 5.83875 102.734 6.21204C102.617 6.58532 102.445 6.9234 102.224 7.22625C102.003 7.52911 101.741 7.7897 101.445 8.01508C101.148 8.24047 100.817 8.41654 100.451 8.54332C100.086 8.6701 99.7065 8.72645 99.3133 8.72645C98.9202 8.72645 98.5408 8.66305 98.1753 8.54332C97.8097 8.41654 97.4786 8.24047 97.182 8.01508C96.8855 7.7897 96.6302 7.52207 96.4026 7.22625C96.1819 6.9234 96.0095 6.58532 95.8922 6.21204C95.7681 5.83875 95.7129 5.45138 95.7129 5.04992C95.7129 4.54986 95.8094 4.07796 95.9957 3.6272C96.1819 3.17644 96.4371 2.78202 96.7613 2.45803C97.0855 2.13405 97.4648 1.86641 97.9132 1.67624ZM97.7407 6.78958C98.1753 7.27556 98.6995 7.51503 99.3133 7.51503C99.9272 7.51503 100.451 7.27556 100.886 6.78958C101.32 6.31065 101.541 5.72606 101.541 5.04992C101.541 4.6062 101.445 4.1977 101.245 3.81737C101.045 3.44408 100.776 3.14123 100.438 2.92993C100.1 2.7116 99.7272 2.60594 99.3202 2.60594C98.9133 2.60594 98.5408 2.7116 98.2028 2.92993C97.8649 3.14827 97.589 3.44408 97.3959 3.81737C97.1958 4.1977 97.0993 4.6062 97.0993 5.04992C97.0993 5.72606 97.32 6.31065 97.7545 6.78958" fill="white"/>
<path d="M110.411 1.51438H111.301V8.60685H109.929V5.05709L108.246 8.60685H107.245L105.569 5.05709V8.60685H104.197V1.51438H105.08L107.749 6.88128L110.411 1.51438Z" fill="white"/>
<path d="M7.41893 99.0479V95.3995H9.9503V105.739H7.41893V101.316H2.59764V105.739H0.0800781V95.3995H2.59764V99.0479H7.41893Z" fill="white"/>
<path d="M20.7931 96.8223V95.3925H23.3175V105.732H20.7931V104.281C20.4206 104.795 19.9585 105.211 19.3998 105.528C18.8411 105.845 18.2134 105.999 17.5099 105.999C16.5443 105.999 15.6476 105.753 14.8268 105.267C14.006 104.781 13.3576 104.112 12.8748 103.274C12.3989 102.436 12.1575 101.52 12.1575 100.534C12.1575 99.548 12.3989 98.6324 12.8748 97.7942C13.3507 96.9561 13.9991 96.287 14.8268 95.801C15.6476 95.315 16.5443 95.0685 17.5099 95.0685C18.2134 95.0685 18.8549 95.2376 19.4274 95.5756C20.0068 95.9137 20.462 96.3293 20.8 96.8152M17.5099 103.732C18.2824 103.732 18.9515 103.422 19.5033 102.795C20.062 102.168 20.3378 101.414 20.3378 100.534C20.3378 99.6536 20.062 98.9 19.5033 98.2731C18.9515 97.6463 18.2824 97.3364 17.5099 97.3364C16.7374 97.3364 16.0545 97.6463 15.5027 98.2661C14.9509 98.8859 14.6751 99.6466 14.6751 100.534C14.6751 101.421 14.9509 102.182 15.5027 102.802C16.0545 103.422 16.7236 103.739 17.5099 103.739" fill="white"/>
<path d="M42.5614 96.449C42.5614 97.1533 42.4441 97.7802 42.2027 98.3366C41.9613 98.893 41.6302 99.3367 41.2095 99.6889C40.7887 100.041 40.299 100.309 39.7541 100.506C39.2092 100.696 38.6091 100.816 37.9539 100.851H35.5398V105.746H32.8636V91.9202H37.809C38.7126 91.9202 39.5196 92.0963 40.23 92.4555C40.9474 92.8147 41.513 93.3359 41.9337 94.0261C42.3544 94.7164 42.5683 95.5264 42.5683 96.456M35.5398 98.4704H37.34C37.7952 98.4704 38.1953 98.414 38.5264 98.2943C38.8643 98.1746 39.1127 98.0408 39.2851 97.8858C39.4506 97.7309 39.5817 97.5407 39.6782 97.3294C39.7748 97.1111 39.83 96.942 39.8507 96.8082C39.8714 96.6744 39.8852 96.5406 39.8852 96.3997C39.8852 96.2589 39.8714 96.118 39.8507 95.9841C39.83 95.8433 39.7679 95.6672 39.6782 95.4489C39.5817 95.2305 39.4506 95.0404 39.2851 94.8854C39.1196 94.7305 38.8643 94.5896 38.5264 94.4699C38.1884 94.3501 37.7952 94.2938 37.34 94.2938H35.5398V98.4704Z" fill="white"/>
<path d="M46.1411 95.8363C46.9618 95.3503 47.8585 95.1108 48.8241 95.1108C49.7898 95.1108 50.6865 95.3503 51.5073 95.8363C52.328 96.3222 52.9833 96.9843 53.4592 97.8154C53.9351 98.6535 54.1766 99.5621 54.1766 100.555C54.1766 101.548 53.9351 102.457 53.4592 103.295C52.9833 104.133 52.3349 104.795 51.5073 105.288C50.6865 105.774 49.7898 106.021 48.8241 106.021C47.8585 106.021 46.9618 105.774 46.1411 105.288C45.3203 104.802 44.6719 104.14 44.1891 103.295C43.7131 102.457 43.4718 101.541 43.4718 100.555C43.4718 99.5691 43.7131 98.6535 44.1891 97.8154C44.665 96.9773 45.3134 96.3152 46.1411 95.8363ZM48.8241 103.753C49.5967 103.753 50.2657 103.443 50.8175 102.816C51.3693 102.189 51.6521 101.436 51.6521 100.555C51.6521 99.6748 51.3762 98.9212 50.8175 98.2943C50.2588 97.6675 49.5967 97.3576 48.8241 97.3576C48.0516 97.3576 47.3757 97.6675 46.8308 98.2873C46.279 98.9071 46.0031 99.6678 46.0031 100.555C46.0031 101.443 46.279 102.203 46.8308 102.823C47.3826 103.443 48.0447 103.753 48.8241 103.753Z" fill="white"/>
<path d="M64.1158 96.7518V95.3432H66.6196V104.443H66.5989C66.5437 105.619 66.2471 106.633 65.7091 107.479C65.1711 108.324 64.4538 108.958 63.564 109.373C62.6743 109.789 61.6466 110 60.4947 110C59.7429 110 58.9841 109.873 58.2185 109.613C57.4529 109.352 56.7908 108.986 56.2252 108.514V105.513C56.4183 105.767 56.6321 105.999 56.8666 106.225C57.108 106.45 57.3977 106.683 57.7564 106.922C58.1082 107.162 58.522 107.359 58.9979 107.5C59.4739 107.641 59.9705 107.718 60.4947 107.718C61.5983 107.718 62.4605 107.408 63.0881 106.788C63.7089 106.169 64.0469 105.309 64.0951 104.211C63.7641 104.704 63.3088 105.119 62.7364 105.457C62.157 105.795 61.5155 105.971 60.8051 105.971C59.8394 105.971 58.9428 105.725 58.122 105.239C57.3012 104.753 56.6459 104.091 56.17 103.246C55.6941 102.407 55.4527 101.492 55.4527 100.506C55.4527 99.5198 55.6941 98.6042 56.17 97.766C56.6459 96.9279 57.3012 96.2588 58.122 95.7728C58.9428 95.2868 59.8394 95.0403 60.8051 95.0403C61.5086 95.0403 62.1363 95.1953 62.695 95.5122C63.2537 95.8221 63.7227 96.2377 64.1089 96.7518M60.8051 103.703C61.5914 103.703 62.2604 103.394 62.8122 102.767C63.364 102.147 63.6399 101.386 63.6399 100.499C63.6399 99.6113 63.364 98.8507 62.8122 98.2238C62.2604 97.597 61.5914 97.2871 60.812 97.2871C60.0326 97.2871 59.3635 97.597 58.8186 98.2238C58.2668 98.8507 57.9909 99.6043 57.9909 100.499C57.9909 101.393 58.2668 102.147 58.8186 102.767C59.3704 103.386 60.0326 103.703 60.812 103.703" fill="white"/>
<path d="M76.9105 99.0479V95.3995H79.4419V105.739H76.9105V101.316H72.0962V105.739H69.5717V95.3995H72.0962V99.0479H76.9105Z" fill="white"/>
<path d="M86.9463 106.007C86.3117 106.007 85.7323 105.915 85.215 105.725C84.6977 105.535 84.2632 105.288 83.9183 104.964C83.5734 104.647 83.2837 104.267 83.0492 103.837C82.8147 103.408 82.6492 102.95 82.5457 102.471C82.4423 101.992 82.394 101.492 82.394 100.971V95.3574H84.9253V100.914C84.9253 101.788 85.1392 102.478 85.5668 102.999C85.9945 103.52 86.5807 103.774 87.3256 103.774C88.0292 103.774 88.6086 103.513 89.0569 102.985C89.5121 102.457 89.7397 101.767 89.7397 100.914V95.3574H92.2711V105.718H89.7397V104.697C89.5811 104.859 89.4225 105.007 89.2707 105.126C89.119 105.246 88.9258 105.387 88.6982 105.535C88.4637 105.683 88.1947 105.802 87.8981 105.88C87.6016 105.957 87.2843 106 86.9601 106" fill="white"/>
<path d="M97.8925 105.739H95.3887V91.1948H97.8925V105.739ZM105.004 95.3996L100.92 99.8438L105.921 105.739H102.603L98.4305 100.668V98.9352L101.583 95.3925H104.997L105.004 95.3996Z" fill="white"/>
<path d="M108.494 95.8363C109.315 95.3503 110.211 95.1108 111.177 95.1108C112.143 95.1108 113.039 95.3503 113.86 95.8363C114.681 96.3222 115.336 96.9843 115.812 97.8154C116.288 98.6535 116.529 99.5621 116.529 100.555C116.529 101.548 116.288 102.457 115.812 103.295C115.336 104.133 114.688 104.795 113.86 105.288C113.039 105.774 112.143 106.021 111.177 106.021C110.211 106.021 109.315 105.774 108.494 105.288C107.673 104.802 107.025 104.14 106.542 103.295C106.066 102.457 105.825 101.541 105.825 100.555C105.825 99.5691 106.066 98.6535 106.542 97.8154C107.018 96.9773 107.673 96.3152 108.494 95.8363ZM111.177 103.753C111.949 103.753 112.619 103.443 113.17 102.816C113.722 102.189 114.005 101.436 114.005 100.555C114.005 99.6748 113.729 98.9212 113.17 98.2943C112.612 97.6675 111.949 97.3576 111.177 97.3576C110.404 97.3576 109.728 97.6675 109.184 98.2873C108.632 98.9071 108.356 99.6678 108.356 100.555C108.356 101.443 108.632 102.203 109.184 102.823C109.735 103.443 110.398 103.753 111.177 103.753Z" fill="white"/>
<path d="M125.199 97.5056C125.42 97.5689 125.627 97.6394 125.82 97.7169C126.013 97.7943 126.255 97.9352 126.544 98.1324C126.834 98.3296 127.082 98.555 127.283 98.8156C127.483 99.0691 127.662 99.4213 127.807 99.8509C127.958 100.288 128.034 100.774 128.034 101.316C128.034 102.196 127.821 102.999 127.4 103.718C126.979 104.436 126.4 104.992 125.682 105.394C124.958 105.795 124.165 105.993 123.303 105.993C122.799 105.993 122.316 105.929 121.854 105.809C121.392 105.69 120.958 105.507 120.558 105.253C120.157 104.999 119.806 104.697 119.509 104.33C119.213 103.971 118.985 103.527 118.812 103.006C118.64 102.485 118.557 101.922 118.557 101.309V95.0193C118.557 94.4347 118.64 93.9136 118.799 93.4417C118.957 92.9698 119.178 92.5824 119.447 92.2795C119.716 91.9767 120.033 91.7231 120.399 91.5189C120.764 91.3146 121.137 91.1738 121.516 91.0892C121.896 91.0047 122.296 90.9625 122.71 90.9625C123.434 90.9625 124.103 91.1245 124.737 91.4485C125.372 91.7724 125.882 92.2373 126.275 92.8359C126.669 93.4417 126.869 94.1178 126.869 94.8644C126.869 95.9279 126.317 96.8083 125.213 97.5056M123.316 103.76C123.903 103.76 124.42 103.542 124.862 103.112C125.303 102.682 125.524 102.098 125.524 101.365C125.524 100.879 125.386 100.457 125.103 100.083C124.827 99.7101 124.475 99.4354 124.061 99.2593C123.641 99.0832 123.206 98.9917 122.744 98.9917H121.792V96.7308H122.434C122.93 96.7308 123.379 96.5688 123.765 96.2519C124.158 95.9349 124.351 95.5124 124.351 94.9841C124.351 94.5122 124.192 94.0967 123.882 93.7445C123.572 93.3924 123.185 93.2092 122.73 93.2092C122.309 93.2092 121.937 93.3571 121.606 93.6529C121.275 93.9488 121.109 94.3573 121.109 94.8785V101.457C121.109 102.239 121.33 102.816 121.765 103.189C122.206 103.57 122.723 103.753 123.323 103.753" fill="white"/>
<path d="M131.987 95.8363C132.807 95.3503 133.704 95.1108 134.67 95.1108C135.635 95.1108 136.532 95.3503 137.353 95.8363C138.174 96.3222 138.829 96.9843 139.305 97.8154C139.781 98.6535 140.022 99.5621 140.022 100.555C140.022 101.548 139.781 102.457 139.305 103.295C138.829 104.133 138.18 104.795 137.353 105.288C136.532 105.774 135.635 106.021 134.67 106.021C133.704 106.021 132.807 105.774 131.987 105.288C131.166 104.802 130.517 104.14 130.035 103.295C129.559 102.457 129.317 101.541 129.317 100.555C129.317 99.5691 129.559 98.6535 130.035 97.8154C130.51 96.9773 131.166 96.3152 131.987 95.8363ZM134.67 103.753C135.442 103.753 136.111 103.443 136.663 102.816C137.215 102.189 137.498 101.436 137.498 100.555C137.498 99.6748 137.222 98.9212 136.663 98.2943C136.104 97.6675 135.442 97.3576 134.67 97.3576C133.897 97.3576 133.221 97.6675 132.676 98.2873C132.124 98.9071 131.849 99.6678 131.849 100.555C131.849 101.443 132.124 102.203 132.676 102.823C133.228 103.443 133.89 103.753 134.67 103.753Z" fill="white"/>
<path d="M146.602 106.042C145.968 106.042 145.388 105.95 144.871 105.76C144.354 105.57 143.919 105.323 143.574 105.007C143.229 104.69 142.94 104.316 142.705 103.88C142.471 103.443 142.305 102.985 142.202 102.506C142.098 102.027 142.05 101.52 142.05 100.992V95.3785H144.581V100.95C144.581 101.816 144.795 102.506 145.223 103.02C145.65 103.535 146.237 103.795 146.975 103.795C147.713 103.795 148.258 103.535 148.706 103.006C149.161 102.485 149.389 101.795 149.389 100.95V95.3785H151.92V105.739H149.389V104.739C149.216 104.908 149.058 105.056 148.913 105.169C148.768 105.288 148.582 105.422 148.347 105.57C148.113 105.718 147.844 105.838 147.547 105.922C147.251 106.007 146.933 106.049 146.609 106.049M148.899 92.1246L149.547 91.8851V93.9347L149.271 94.0615C148.637 94.3502 147.878 94.4911 147.002 94.4911C146.126 94.4911 145.354 94.3432 144.712 94.0615L144.443 93.9347V91.8429L145.099 92.1175C145.699 92.3711 146.333 92.4979 147.002 92.4979C147.671 92.4979 148.285 92.3711 148.906 92.1175" fill="white"/>
</svg>
