<svg viewBox="0 0 98 71" fill="none" xmlns="http://www.w3.org/2000/svg">
<path d="M27.6896 31.354C27.6941 31.6904 27.703 31.9359 27.7119 31.7859L27.7208 31.6222C27.7163 31.5358 27.7074 31.4449 27.703 31.3586H27.6896V31.354ZM71.7972 28.6446H71.8195V25.4669L71.8284 25.2578L71.8195 25.0396V13.3335C71.8195 11.797 70.5997 10.5513 69.095 10.5513H30.423C28.9049 10.5513 27.6718 11.806 27.6718 13.3608V31.354H27.6852C27.6807 31.0085 27.6763 30.5675 27.6718 30.3539C27.6718 30.6903 27.6807 31.0221 27.6985 31.354H27.7297L27.7163 31.6177C28.4019 43.4237 38.022 52.8159 49.7479 52.8159C61.4737 52.8159 71.8239 42.7009 71.8239 30.2721C71.8239 29.872 71.8105 29.4719 71.7883 29.0719V28.64L71.7972 28.6446ZM54.9163 11.9788L53.6787 12.738C52.3076 13.579 51.1056 14.6246 50.0995 15.8429L49.7924 16.2157L49.4852 15.8429C48.4791 14.6246 47.2727 13.579 45.906 12.738L44.6685 11.9788H54.9163ZM29.1008 30.072C29.1008 30.0311 29.1008 30.0447 29.1008 30.0902V30.072ZM37.1629 46.806L36.504 46.2423C32.1324 42.5054 29.497 37.1502 29.1453 31.3904L29.172 30.7676L29.8398 31.6404C31.5448 33.8634 34.0823 35.3045 36.8023 35.5864L37.1629 35.6227V46.806ZM41.7882 48.9017C41.7882 49.1972 41.4855 49.3972 41.2228 49.2745C40.3592 48.8744 39.5223 48.4153 38.721 47.8925C38.6052 47.8198 38.5384 47.6879 38.5384 47.5515V35.991C38.5384 35.7818 38.6943 35.6046 38.899 35.5818C39.7137 35.4954 40.5105 35.3045 41.2851 35.0227C41.5344 34.9317 41.7926 35.1181 41.7926 35.3863V48.8972L41.7882 48.9017ZM46.6406 50.9156L46.1687 50.8338C45.2383 50.6701 44.3212 50.4383 43.4353 50.1473L43.1593 50.0564V25.3532C43.1192 22.7756 41.4009 20.4435 38.9257 19.9389C35.2531 19.1979 32.0523 22.3574 32.5954 26.0851C32.9337 28.4173 34.8302 30.213 37.105 30.613C37.1762 30.6266 37.2474 30.6357 37.3187 30.6448C37.332 30.6448 37.3409 30.6403 37.3498 30.6403C37.3632 30.6403 37.3721 30.6448 37.381 30.6448C37.7594 30.6448 38.0666 30.3312 38.0666 29.9447C38.0666 29.5583 37.7594 29.2446 37.381 29.2446C37.3765 29.2446 37.3721 29.2446 37.3632 29.2446C35.1195 28.9628 33.4546 26.7489 34.0155 24.2895C34.3449 22.8529 35.8897 21.4436 37.3231 21.2618C39.5801 20.9754 41.4988 22.5756 41.757 24.7532H41.7882V33.2497L41.5567 33.3588C40.377 33.9271 39.1305 34.2135 37.8484 34.2135C33.2676 34.2135 29.4213 30.5584 29.1008 25.8578V24.6077C29.4258 19.9389 33.2676 16.2793 37.8484 16.2793C42.4292 16.2793 46.4847 20.1571 46.6272 24.9759V30.6857L46.6361 30.6721V50.9065L46.6406 50.9156ZM47.2638 21.2163L46.8364 20.3981C45.0647 16.984 41.619 14.8655 37.844 14.8655C34.6877 14.8655 31.7585 16.3339 29.8131 18.8979L29.0964 19.8434V13.9791C29.0964 12.8744 29.9733 11.9833 31.0551 11.9833H38.5562C42.5984 11.9879 46.3423 13.8745 48.8264 17.1613L48.9955 17.384L48.8486 17.625C48.3278 18.4887 47.9004 19.4025 47.5665 20.3571L47.2638 21.2254V21.2163ZM51.4974 24.7577C51.4885 24.9214 51.4751 25.0896 51.4751 25.2578L51.484 25.526V51.0793L51.1101 51.102C50.656 51.1338 50.2019 51.152 49.7389 51.152C49.276 51.152 48.8308 51.1293 48.3812 51.102L48.0072 51.0793V25.4396L48.0339 25.1532C48.0518 23.112 48.5192 21.1436 49.4273 19.2979L49.7879 18.5705L50.1441 19.2979C50.9498 20.9345 51.4083 22.6983 51.5063 24.594L51.4929 24.7577H51.4974ZM60.9617 47.5197C60.9617 47.6743 60.886 47.8152 60.7569 47.897C59.9601 48.4107 59.1321 48.8699 58.2729 49.2654C58.0058 49.3881 57.7075 49.1927 57.7075 48.8926V35.3863C57.7075 35.1181 57.9702 34.9272 58.215 35.0227C58.9852 35.3045 59.7865 35.4954 60.5967 35.5818C60.8015 35.6046 60.9573 35.7818 60.9573 35.991V47.5197H60.9617ZM62.9917 46.2332L62.3328 46.7969V35.6273L62.6934 35.5909C65.409 35.3091 67.9465 33.8725 69.647 31.6586L70.3148 30.7857C70.3148 30.7857 70.3771 30.5312 70.3726 30.763C70.1812 36.7547 67.5146 42.36 62.9873 46.2332M70.3816 26.117C69.9497 30.7357 66.1925 34.218 61.6428 34.218C60.3563 34.218 59.1098 33.9316 57.9301 33.3588L57.7031 33.2497V24.7577H57.7342C57.9746 22.7484 59.6218 21.23 61.6428 21.23C63.8731 21.23 65.6761 23.1302 65.5781 25.426C65.5381 26.3761 65.1107 27.2717 64.4741 27.9627C63.7663 28.7264 62.9427 29.1446 62.0925 29.2492C62.0613 29.2492 62.0346 29.2537 62.0034 29.2583C61.9812 29.2583 61.9678 29.2446 61.9455 29.2446C61.5672 29.2446 61.26 29.5583 61.26 29.9447C61.26 30.3312 61.5672 30.6448 61.9455 30.6448C61.9767 30.6448 62.0079 30.6312 62.039 30.6266C62.0657 30.6357 62.0924 30.6539 62.1192 30.6539C62.2082 30.6448 62.2928 30.6312 62.3863 30.613C64.6566 30.213 66.5531 28.4173 66.8959 26.0897C67.4434 22.3665 64.256 19.207 60.5922 19.9344C58.126 20.4208 56.4032 22.7256 56.3364 25.2896V50.0519L56.0559 50.1428C55.1789 50.4292 54.2574 50.661 53.3226 50.8292L52.8551 50.9111V31.8086L52.8685 31.4813V25.526C52.8685 20.8799 56.2162 16.7885 60.7436 16.3339C65.6894 15.8338 69.923 19.4661 70.386 24.4258V26.117H70.3816ZM70.3816 19.8162L69.6648 18.8751C67.3143 15.7975 63.5482 14.3018 59.6752 15.0474C56.6258 15.6338 54.0616 17.7295 52.5791 20.5117C52.4589 20.739 52.1384 20.7117 52.0494 20.4708L51.9648 20.2344C51.6354 19.3161 51.2169 18.4296 50.7139 17.5977L50.5714 17.3658L50.7406 17.1431C53.2246 13.8609 56.9685 11.9742 61.0107 11.9652H68.4985C69.5357 11.9652 70.3726 12.8198 70.3726 13.879V19.8071L70.3816 19.8162Z" fill="#C39B54"/>
<path d="M29.5193 3.10501L28.028 0.977458H29.1053L30.3518 2.8277V3.39595L28.767 5.55986H27.654L29.5193 3.10955V3.10501ZM31.4692 5.55532H30.5877V0.977458H31.4692V5.55532ZM34.0333 0.977458L32.542 3.10501L34.3984 5.55532H33.2899L31.7051 3.3914V2.82315L32.9516 0.972914H34.0289L34.0333 0.977458Z" fill="#C39B54"/>
<path d="M34.8302 5.55532V0.977458H35.7161V3.93693L38.1512 0.968364H38.7032V5.55532H37.8218V2.5913L35.3956 5.55532H34.8302Z" fill="#C39B54"/>
<path d="M41.4499 2.35946L40.1722 5.55532H39.1928L41.1694 0.968364H41.7348L43.7158 5.55532H42.732L41.4499 2.35946Z" fill="#C39B54"/>
<path d="M45.1938 1.08194C45.4831 0.954649 45.7814 0.895556 46.0975 0.895556C46.4135 0.895556 46.7118 0.959195 47.0012 1.08194C47.2905 1.20468 47.5354 1.37743 47.7446 1.58655C47.9494 1.79567 48.1141 2.05025 48.2387 2.34119C48.3589 2.63214 48.4213 2.94127 48.4213 3.25949C48.4213 3.51862 48.3812 3.76865 48.3055 4.00959C48.2298 4.25053 48.1186 4.46874 47.9761 4.66422C47.8336 4.8597 47.6645 5.0279 47.4731 5.17337C47.2816 5.31885 47.0679 5.4325 46.832 5.51433C46.5961 5.59615 46.3512 5.63253 46.0975 5.63253C45.8437 5.63253 45.5989 5.59161 45.3629 5.51433C45.127 5.4325 44.9133 5.31885 44.7219 5.17337C44.5305 5.0279 44.3613 4.85515 44.2189 4.66422C44.0764 4.46874 43.9651 4.25053 43.8894 4.00959C43.8093 3.76865 43.7737 3.51862 43.7737 3.25949C43.7737 2.93673 43.836 2.63214 43.9562 2.34119C44.0764 2.05025 44.2411 1.79567 44.4503 1.58655C44.6596 1.37743 44.9044 1.20468 45.1938 1.08194ZM45.0825 4.38237C45.3629 4.69604 45.7013 4.85061 46.0975 4.85061C46.4937 4.85061 46.832 4.69604 47.1125 4.38237C47.3929 4.07324 47.5354 3.69591 47.5354 3.25949C47.5354 2.97309 47.4731 2.70942 47.344 2.46394C47.2149 2.223 47.0412 2.02752 46.8231 1.89114C46.605 1.75021 46.3646 1.68202 46.1019 1.68202C45.8393 1.68202 45.5989 1.75021 45.3808 1.89114C45.1626 2.03207 44.9845 2.223 44.8599 2.46394C44.7308 2.70942 44.6685 2.97309 44.6685 3.25949C44.6685 3.69591 44.8109 4.07324 45.0914 4.38237" fill="#C39B54"/>
<path d="M49.2493 0.977395H50.1352V3.93687L52.5703 0.968301H53.1267V5.55071H52.2453V2.59124L49.8191 5.55071H49.2538V0.972852L49.2493 0.977395ZM51.858 0.0954629L52.0717 0.00909402V0.772825L51.9782 0.818288C51.7512 0.918301 51.5019 0.968301 51.2259 0.968301C50.9499 0.968301 50.6872 0.918301 50.4691 0.818288L50.38 0.772825V0L50.5937 0.0954629C50.7985 0.177292 51.0122 0.222751 51.2303 0.222751C51.4484 0.222751 51.6666 0.18184 51.8625 0.104557" fill="#C39B54"/>
<path d="M59.6396 0.977465L61.2778 4.76886H61.8165V6.14631H60.935V5.55078H57.7832V6.15086H56.8973V4.76886H57.436L59.0742 0.977465H59.6396ZM59.3591 2.36401L58.3975 4.76886H60.3251L59.3591 2.36401Z" fill="#C39B54"/>
<path d="M63.1431 1.08194C63.4324 0.954649 63.7307 0.895556 64.0468 0.895556C64.3628 0.895556 64.6611 0.959195 64.9505 1.08194C65.2398 1.20468 65.4847 1.37743 65.6939 1.58655C65.8987 1.79567 66.0634 2.05025 66.188 2.34119C66.3082 2.63214 66.3706 2.94127 66.3706 3.25949C66.3706 3.51862 66.3305 3.76865 66.2548 4.00959C66.1791 4.25053 66.0678 4.46874 65.9254 4.66422C65.7829 4.8597 65.6138 5.0279 65.4223 5.17337C65.2309 5.31885 65.0172 5.4325 64.7813 5.51433C64.5453 5.59615 64.3005 5.63253 64.0468 5.63253C63.793 5.63253 63.5482 5.59161 63.3122 5.51433C63.0763 5.4325 62.8626 5.31885 62.6712 5.17337C62.4798 5.0279 62.315 4.85515 62.1681 4.66422C62.0257 4.46874 61.9144 4.25053 61.8387 4.00959C61.7586 3.76865 61.723 3.51862 61.723 3.25949C61.723 2.93673 61.7853 2.63214 61.9055 2.34119C62.0257 2.05025 62.1904 1.79567 62.3996 1.58655C62.6089 1.37743 62.8537 1.20468 63.1431 1.08194ZM63.0318 4.38237C63.3122 4.69604 63.6506 4.85061 64.0468 4.85061C64.443 4.85061 64.7813 4.69604 65.0618 4.38237C65.3422 4.07324 65.4847 3.69591 65.4847 3.25949C65.4847 2.97309 65.4223 2.70942 65.2932 2.46394C65.1641 2.223 64.9905 2.02752 64.7724 1.89114C64.5543 1.75021 64.3139 1.68202 64.0512 1.68202C63.7886 1.68202 63.5482 1.75021 63.33 1.89114C63.1119 2.03207 62.9338 2.223 62.8092 2.46394C62.6801 2.70942 62.6178 2.97309 62.6178 3.25949C62.6178 3.69591 62.7602 4.07324 63.0407 4.38237" fill="#C39B54"/>
<path d="M71.2096 0.977465H71.7839V5.55533H70.898V3.26412L69.8118 5.55533H69.1663L68.0845 3.26412V5.55533H67.1986V0.977465H67.7684L69.4912 4.44155L71.2096 0.977465Z" fill="#C39B54"/>
<path d="M4.73662 63.9309V61.5761H6.3704V68.2496H4.73662V65.3947H1.62487V68.2496H0V61.5761H1.62487V63.9309H4.73662Z" fill="#C39B54"/>
<path d="M13.3685 62.4944V61.5715H14.9978V68.2451H13.3685V67.3086C13.1281 67.6405 12.8298 67.9087 12.4693 68.1133C12.1087 68.3178 11.7036 68.4179 11.2495 68.4179C10.6262 68.4179 10.0475 68.2588 9.51778 67.9451C8.98803 67.6314 8.56956 67.1995 8.25794 66.6585C7.95077 66.1176 7.79495 65.5266 7.79495 64.8901C7.79495 64.2537 7.95077 63.6627 8.25794 63.1217C8.56511 62.5807 8.98357 62.1489 9.51778 61.8352C10.0475 61.5215 10.6262 61.3624 11.2495 61.3624C11.7036 61.3624 12.1176 61.4715 12.4871 61.6897C12.861 61.9079 13.1548 62.1762 13.373 62.4898M11.2495 66.954C11.7481 66.954 12.1799 66.754 12.536 66.3494C12.8966 65.9448 13.0747 65.4584 13.0747 64.8901C13.0747 64.3219 12.8966 63.8354 12.536 63.4308C12.1799 63.0263 11.7481 62.8262 11.2495 62.8262C10.7509 62.8262 10.3102 63.0263 9.95404 63.4263C9.5979 63.8264 9.41984 64.3173 9.41984 64.8901C9.41984 65.4629 9.5979 65.9539 9.95404 66.354C10.3102 66.754 10.742 66.9586 11.2495 66.9586" fill="#C39B54"/>
<path d="M27.4181 62.2534C27.4181 62.708 27.3424 63.1127 27.1866 63.4718C27.0308 63.8309 26.8171 64.1173 26.5456 64.3446C26.274 64.5719 25.958 64.7447 25.6063 64.872C25.2546 64.9947 24.8673 65.072 24.4444 65.0947H22.8863V68.2542H21.159V59.3303H24.3509C24.9341 59.3303 25.4549 59.444 25.9134 59.6758C26.3764 59.9077 26.7415 60.2441 27.013 60.6896C27.2846 61.1351 27.4226 61.6579 27.4226 62.258M22.8863 63.5582H24.0482C24.342 63.5582 24.6002 63.5218 24.8139 63.4445C25.032 63.3672 25.1923 63.2808 25.3036 63.1808C25.4104 63.0808 25.495 62.9581 25.5573 62.8217C25.6196 62.6808 25.6552 62.5717 25.6686 62.4853C25.682 62.3989 25.6908 62.3125 25.6908 62.2216C25.6908 62.1307 25.682 62.0398 25.6686 61.9534C25.6552 61.8625 25.6152 61.7488 25.5573 61.6079C25.495 61.467 25.4104 61.3442 25.3036 61.2442C25.1967 61.1442 25.032 61.0533 24.8139 60.976C24.5957 60.8987 24.342 60.8624 24.0482 60.8624H22.8863V63.5582Z" fill="#C39B54"/>
<path d="M29.7285 61.858C30.2583 61.5443 30.837 61.3897 31.4602 61.3897C32.0835 61.3897 32.6622 61.5443 33.1919 61.858C33.7217 62.1716 34.1446 62.599 34.4518 63.1354C34.7589 63.6764 34.9147 64.2628 34.9147 64.9038C34.9147 65.5448 34.7589 66.1312 34.4518 66.6722C34.1446 67.2132 33.7261 67.6405 33.1919 67.9587C32.6622 68.2724 32.0835 68.4315 31.4602 68.4315C30.837 68.4315 30.2583 68.2724 29.7285 67.9587C29.1987 67.6451 28.7803 67.2177 28.4687 66.6722C28.1615 66.1312 28.0057 65.5402 28.0057 64.9038C28.0057 64.2674 28.1615 63.6764 28.4687 63.1354C28.7758 62.5944 29.1943 62.1671 29.7285 61.858ZM31.4602 66.9677C31.9588 66.9677 32.3906 66.7677 32.7468 66.3631C33.1029 65.9585 33.2854 65.4721 33.2854 64.9038C33.2854 64.3355 33.1074 63.8491 32.7468 63.4445C32.3862 63.0399 31.9588 62.8399 31.4602 62.8399C30.9616 62.8399 30.5254 63.0399 30.1737 63.44C29.8175 63.84 29.6395 64.331 29.6395 64.9038C29.6395 65.4766 29.8175 65.9676 30.1737 66.3676C30.5298 66.7677 30.9572 66.9677 31.4602 66.9677Z" fill="#C39B54"/>
<path d="M41.3297 62.4489V61.5397H42.9457V67.4132H42.9323C42.8967 68.1724 42.7053 68.827 42.3581 69.3725C42.0108 69.918 41.5478 70.3272 40.9736 70.5954C40.3993 70.8636 39.736 71 38.9926 71C38.5073 71 38.0176 70.9182 37.5235 70.75C37.0294 70.5818 36.602 70.3454 36.237 70.0408V68.1042C36.3616 68.2678 36.4996 68.4178 36.651 68.5633C36.8068 68.7088 36.9938 68.8588 37.2252 69.0134C37.4523 69.1679 37.7194 69.2952 38.0265 69.3861C38.3337 69.4771 38.6542 69.5271 38.9926 69.5271C39.7048 69.5271 40.2613 69.3271 40.6664 68.927C41.0671 68.527 41.2852 67.9723 41.3164 67.2632C41.1027 67.5814 40.8089 67.8496 40.4394 68.0678C40.0654 68.286 39.6514 68.3997 39.1929 68.3997C38.5696 68.3997 37.9909 68.2405 37.4612 67.9269C36.9314 67.6132 36.5085 67.1859 36.2014 66.6404C35.8942 66.0994 35.7384 65.5084 35.7384 64.8719C35.7384 64.2355 35.8942 63.6445 36.2014 63.1035C36.5085 62.5625 36.9314 62.1307 37.4612 61.817C37.9909 61.5033 38.5696 61.3442 39.1929 61.3442C39.647 61.3442 40.0521 61.4442 40.4127 61.6488C40.7733 61.8488 41.076 62.117 41.3253 62.4489M39.1929 66.9358C39.7004 66.9358 40.1322 66.7358 40.4883 66.3312C40.8445 65.9312 41.0226 65.4402 41.0226 64.8674C41.0226 64.2946 40.8445 63.8036 40.4883 63.399C40.1322 62.9944 39.7004 62.7944 39.1973 62.7944C38.6943 62.7944 38.2625 62.9944 37.9108 63.399C37.5547 63.8036 37.3766 64.29 37.3766 64.8674C37.3766 65.4447 37.5547 65.9312 37.9108 66.3312C38.2669 66.7313 38.6943 66.9358 39.1973 66.9358" fill="#C39B54"/>
<path d="M49.5876 63.9309V61.5761H51.2214V68.2496H49.5876V65.3947H46.4803V68.2496H44.851V61.5761H46.4803V63.9309H49.5876Z" fill="#C39B54"/>
<path d="M56.0649 68.4225C55.6553 68.4225 55.2814 68.3634 54.9475 68.2406C54.6136 68.1179 54.3331 67.9588 54.1106 67.7497C53.888 67.5451 53.701 67.2996 53.5496 67.0223C53.3983 66.745 53.2914 66.4495 53.2247 66.1404C53.1579 65.8312 53.1267 65.5085 53.1267 65.1721V61.5489H54.7605V65.1357C54.7605 65.6994 54.8985 66.1449 55.1745 66.4813C55.4505 66.8177 55.8289 66.9814 56.3097 66.9814C56.7638 66.9814 57.1377 66.8132 57.4271 66.4722C57.7209 66.1313 57.8678 65.6858 57.8678 65.1357V61.5489H59.5016V68.2361H57.8678V67.5769C57.7654 67.6815 57.663 67.7769 57.5651 67.8542C57.4672 67.9315 57.3425 68.0224 57.1956 68.1179C57.0442 68.2134 56.8706 68.2906 56.6792 68.3406C56.4878 68.3907 56.283 68.4179 56.0738 68.4179" fill="#C39B54"/>
<path d="M63.1297 68.2496H61.5137V58.8621H63.1297V68.2496ZM67.7194 61.5761L65.084 64.4446L68.3115 68.2496H66.1702L63.477 64.9765V63.8582L65.5114 61.5715H67.715L67.7194 61.5761Z" fill="#C39B54"/>
<path d="M69.972 61.858C70.5018 61.5443 71.0805 61.3897 71.7037 61.3897C72.327 61.3897 72.9057 61.5443 73.4354 61.858C73.9652 62.1716 74.3881 62.599 74.6953 63.1354C75.0024 63.6764 75.1582 64.2628 75.1582 64.9038C75.1582 65.5448 75.0024 66.1312 74.6953 66.6722C74.3881 67.2132 73.9696 67.6405 73.4354 67.9587C72.9057 68.2724 72.327 68.4315 71.7037 68.4315C71.0805 68.4315 70.5018 68.2724 69.972 67.9587C69.4423 67.6451 69.0238 67.2177 68.7122 66.6722C68.405 66.1312 68.2492 65.5402 68.2492 64.9038C68.2492 64.2674 68.405 63.6764 68.7122 63.1354C69.0193 62.5944 69.4423 62.1671 69.972 61.858ZM71.7037 66.9677C72.2023 66.9677 72.6341 66.7677 72.9903 66.3631C73.3464 65.9585 73.5289 65.4721 73.5289 64.9038C73.5289 64.3355 73.3509 63.8491 72.9903 63.4445C72.6297 63.0399 72.2023 62.8399 71.7037 62.8399C71.2051 62.8399 70.7689 63.0399 70.4172 63.44C70.061 63.84 69.883 64.331 69.883 64.9038C69.883 65.4766 70.061 65.9676 70.4172 66.3676C70.7733 66.7677 71.2007 66.9677 71.7037 66.9677Z" fill="#C39B54"/>
<path d="M80.7541 62.9354C80.8966 62.9763 81.0301 63.0218 81.1547 63.0718C81.2794 63.1218 81.4352 63.2127 81.6222 63.34C81.8092 63.4673 81.9694 63.6128 82.0985 63.781C82.2276 63.9446 82.3434 64.1719 82.4368 64.4492C82.5348 64.7311 82.5837 65.0448 82.5837 65.3948C82.5837 65.9631 82.4457 66.4813 82.1742 66.945C81.9026 67.4087 81.5287 67.7678 81.0657 68.027C80.5983 68.2861 80.0863 68.4134 79.5299 68.4134C79.2049 68.4134 78.8933 68.3725 78.595 68.2952C78.2967 68.2179 78.0163 68.0997 77.7581 67.936C77.4999 67.7724 77.2729 67.5769 77.0814 67.3405C76.89 67.1087 76.7431 66.8223 76.6318 66.4859C76.5205 66.1495 76.4671 65.7858 76.4671 65.3903V61.3307C76.4671 60.9533 76.5205 60.6169 76.6229 60.3123C76.7253 60.0078 76.8678 59.7577 77.0414 59.5622C77.215 59.3668 77.4198 59.2031 77.6557 59.0713C77.8916 58.9394 78.132 58.8485 78.3769 58.794C78.6217 58.7394 78.8799 58.7121 79.147 58.7121C79.6144 58.7121 80.0463 58.8167 80.4558 59.0258C80.8654 59.2349 81.1948 59.535 81.4486 59.9214C81.7023 60.3123 81.8314 60.7488 81.8314 61.2306C81.8314 61.9171 81.4753 62.4853 80.763 62.9354M79.5388 66.9723C79.9172 66.9723 80.2511 66.8314 80.536 66.5541C80.8209 66.2767 80.9633 65.8994 80.9633 65.4266C80.9633 65.113 80.8743 64.8402 80.6918 64.5993C80.5137 64.3583 80.2867 64.181 80.0196 64.0674C79.748 63.9537 79.4676 63.8946 79.1693 63.8946H78.5549V62.4353H78.969C79.2895 62.4353 79.5788 62.3308 79.8281 62.1262C80.0819 61.9216 80.2065 61.6489 80.2065 61.3079C80.2065 61.0033 80.1041 60.7351 79.9038 60.5078C79.7035 60.2805 79.4542 60.1623 79.1604 60.1623C78.8888 60.1623 78.6484 60.2578 78.4348 60.4487C78.2211 60.6397 78.1142 60.9033 78.1142 61.2397V65.4857C78.1142 65.9903 78.2567 66.3631 78.5371 66.6041C78.822 66.8495 79.1559 66.9677 79.5432 66.9677" fill="#C39B54"/>
<path d="M85.1346 61.858C85.6643 61.5443 86.243 61.3897 86.8663 61.3897C87.4895 61.3897 88.0682 61.5443 88.598 61.858C89.1278 62.1716 89.5507 62.599 89.8578 63.1354C90.165 63.6764 90.3208 64.2628 90.3208 64.9038C90.3208 65.5448 90.165 66.1312 89.8578 66.6722C89.5507 67.2132 89.1322 67.6405 88.598 67.9587C88.0682 68.2724 87.4895 68.4315 86.8663 68.4315C86.243 68.4315 85.6643 68.2724 85.1346 67.9587C84.6048 67.6451 84.1864 67.2177 83.8747 66.6722C83.5676 66.1312 83.4118 65.5402 83.4118 64.9038C83.4118 64.2674 83.5676 63.6764 83.8747 63.1354C84.1819 62.5944 84.6048 62.1671 85.1346 61.858ZM86.8663 66.9677C87.3649 66.9677 87.7967 66.7677 88.1528 66.3631C88.509 65.9585 88.6915 65.4721 88.6915 64.9038C88.6915 64.3355 88.5134 63.8491 88.1528 63.4445C87.7922 63.0399 87.3649 62.8399 86.8663 62.8399C86.3677 62.8399 85.9314 63.0399 85.5797 63.44C85.2236 63.84 85.0455 64.331 85.0455 64.9038C85.0455 65.4766 85.2236 65.9676 85.5797 66.3676C85.9359 66.7677 86.3632 66.9677 86.8663 66.9677Z" fill="#C39B54"/>
<path d="M94.5677 68.4452C94.1582 68.4452 93.7842 68.3861 93.4503 68.2634C93.1165 68.1406 92.836 67.9815 92.6134 67.7769C92.3908 67.5724 92.2038 67.3314 92.0525 67.0496C91.9011 66.7677 91.7943 66.4722 91.7275 66.1631C91.6608 65.854 91.6296 65.5266 91.6296 65.1857V61.5625H93.2634V65.1584C93.2634 65.7176 93.4014 66.1631 93.6774 66.495C93.9534 66.8268 94.3318 66.995 94.8081 66.995C95.2844 66.995 95.6361 66.8268 95.9255 66.4859C96.2193 66.1495 96.3662 65.7039 96.3662 65.1584V61.5625H98V68.2497H96.3662V67.6042C96.2549 67.7133 96.1525 67.8088 96.059 67.8815C95.9655 67.9588 95.8454 68.0452 95.694 68.1406C95.5427 68.2361 95.369 68.3134 95.1776 68.3679C94.9862 68.4225 94.7814 68.4497 94.5722 68.4497M96.0501 59.4622L96.4686 59.3077V60.6306L96.2905 60.7124C95.881 60.8988 95.3913 60.9897 94.8259 60.9897C94.2606 60.9897 93.762 60.8942 93.348 60.7124L93.1743 60.6306V59.2804L93.5973 59.4577C93.9846 59.6213 94.3941 59.7032 94.8259 59.7032C95.2577 59.7032 95.654 59.6213 96.0546 59.4577" fill="#C39B54"/>
</svg>
