<svg width="161" height="161" viewBox="0 0 161 161" fill="none" xmlns="http://www.w3.org/2000/svg">
<circle opacity="0.2" cx="80.5" cy="80.5" r="80.5" fill="#C39B54"/>
<path fill-rule="evenodd" clip-rule="evenodd" d="M81.3689 110.785L81.3751 110.782L81.3904 110.772L81.4365 110.737L81.6176 110.61C81.771 110.499 81.9951 110.336 82.2775 110.123C82.8422 109.7 83.6433 109.076 84.5994 108.276C87.1091 106.177 89.4559 103.898 91.6204 101.458C96.6969 95.7131 101.97 87.5124 101.97 78.1375C101.97 72.5363 99.7079 67.1603 95.681 63.1959C93.6906 61.2338 91.3233 59.6763 88.7154 58.6129C86.1074 57.5496 83.3103 57.0014 80.485 57C77.6598 57.0012 74.8627 57.5491 72.2548 58.6122C69.6468 59.6753 67.2795 61.2326 65.289 63.1944C61.2581 67.1679 58.9973 72.5403 59 78.139C59 87.5124 64.273 95.7131 69.3496 101.458C71.514 103.898 73.8608 106.177 76.3706 108.276C77.3282 109.076 78.1278 109.7 78.6925 110.123C78.9695 110.332 79.2494 110.537 79.532 110.739L79.5811 110.772L79.5949 110.782L79.601 110.785C80.1305 111.15 80.8395 111.15 81.3689 110.785ZM88.1582 78.0234C88.1582 80.0147 87.3498 81.9245 85.9108 83.3326C84.4718 84.7407 82.5201 85.5317 80.485 85.5317C78.4499 85.5317 76.4982 84.7407 75.0592 83.3326C73.6202 81.9245 72.8118 80.0147 72.8118 78.0234C72.8118 76.032 73.6202 74.1223 75.0592 72.7142C76.4982 71.3061 78.4499 70.515 80.485 70.515C82.5201 70.515 84.4718 71.3061 85.9108 72.7142C87.3498 74.1223 88.1582 76.032 88.1582 78.0234Z" fill="#FCFAF3"/>
<path d="M92.7621 78.7742C92.7621 85.8237 87.609 91.5384 81.2523 91.5384C74.8956 91.5384 69.7425 85.8237 69.7425 78.7742C69.7425 71.7247 74.8956 66.01 81.2523 66.01C87.609 66.01 92.7621 71.7247 92.7621 78.7742Z" fill="#FCFAF3"/>
<mask id="mask0_7_27" style="mask-type:alpha" maskUnits="userSpaceOnUse" x="66" y="68" width="30" height="25">
<rect x="66" y="68" width="29.7028" height="24.9503" fill="#D9D9D9"/>
</mask>
<g mask="url(#mask0_7_27)">
<path d="M67.8562 80.5619C67.8588 80.7476 67.8639 80.8832 67.8691 80.8004L67.8743 80.71C67.8717 80.6623 67.8665 80.6121 67.8639 80.5644H67.8562V80.5619ZM93.5237 79.0657H93.5367V77.3109L93.5419 77.1954L93.5367 77.0749V70.6106C93.5367 69.7621 92.8269 69.0742 91.9513 69.0742H69.4468C68.5634 69.0742 67.8458 69.7671 67.8458 70.6257V80.5619H67.8536C67.851 80.3711 67.8484 80.1276 67.8458 80.0096C67.8458 80.1954 67.851 80.3786 67.8613 80.5619H67.8795L67.8717 80.7075C68.2707 87.227 73.8689 92.4135 80.6925 92.4135C87.5162 92.4135 93.5393 86.8279 93.5393 79.9644C93.5393 79.7435 93.5315 79.5226 93.5186 79.3016V79.0632L93.5237 79.0657ZM83.7002 69.8625L82.98 70.2817C82.1821 70.7462 81.4827 71.3235 80.8972 71.9963L80.7185 72.2022L80.5397 71.9963C79.9542 71.3235 79.2522 70.7462 78.4569 70.2817L77.7367 69.8625H83.7002ZM68.6774 79.8539C68.6774 79.8313 68.6774 79.8389 68.6774 79.864V79.8539ZM73.3689 89.0948L72.9855 88.7835C70.4416 86.7199 68.9079 83.7627 68.7033 80.582L68.7188 80.238L69.1074 80.72C70.0996 81.9476 71.5762 82.7434 73.1591 82.8991L73.3689 82.9192V89.0948ZM76.0606 90.2521C76.0606 90.4152 75.8844 90.5257 75.7316 90.4579C75.229 90.237 74.742 89.9835 74.2756 89.6948C74.2083 89.6546 74.1694 89.5818 74.1694 89.5065V83.1225C74.1694 83.007 74.2601 82.9091 74.3793 82.8966C74.8534 82.8489 75.3171 82.7434 75.7678 82.5878C75.9129 82.5376 76.0632 82.6405 76.0632 82.7886V90.2496L76.0606 90.2521ZM78.8843 91.3642L78.6097 91.319C78.0683 91.2286 77.5346 91.1006 77.0191 90.9399L76.8585 90.8897V77.2481C76.8352 75.8247 75.8352 74.5369 74.3948 74.2582C72.2576 73.849 70.3949 75.5938 70.711 77.6523C70.9079 78.9401 72.0115 79.9318 73.3353 80.1527C73.3767 80.1602 73.4182 80.1652 73.4596 80.1702C73.4674 80.1702 73.4726 80.1677 73.4777 80.1677C73.4855 80.1677 73.4907 80.1702 73.4959 80.1702C73.7161 80.1702 73.8948 79.997 73.8948 79.7836C73.8948 79.5703 73.7161 79.397 73.4959 79.397C73.4933 79.397 73.4907 79.397 73.4855 79.397C72.1799 79.2414 71.211 78.0188 71.5374 76.6607C71.7291 75.8674 72.628 75.0892 73.4622 74.9888C74.7756 74.8306 75.8922 75.7143 76.0424 76.9168H76.0606V81.6087L75.9259 81.669C75.2394 81.9828 74.514 82.1409 73.7679 82.1409C71.1022 82.1409 68.8639 80.1225 68.6774 77.5268V76.8364C68.8665 74.2582 71.1022 72.2373 73.7679 72.2373C76.4336 72.2373 78.7936 74.3787 78.8765 77.0398V80.1928L78.8817 80.1853V91.3592L78.8843 91.3642ZM79.247 74.9637L78.9983 74.5118C77.9672 72.6265 75.9621 71.4566 73.7653 71.4566C71.9286 71.4566 70.224 72.2675 69.0919 73.6833L68.6748 74.2055V70.9671C68.6748 70.357 69.1851 69.865 69.8146 69.865H74.1798C76.5321 69.8675 78.7107 70.9093 80.1563 72.7244L80.2547 72.8474L80.1692 72.9804C79.8661 73.4574 79.6175 73.962 79.4232 74.4892L79.247 74.9687V74.9637ZM81.7106 76.9193C81.7055 77.0096 81.6977 77.1025 81.6977 77.1954L81.7029 77.3435V91.4546L81.4853 91.4671C81.221 91.4847 80.9568 91.4947 80.6874 91.4947C80.4179 91.4947 80.1589 91.4822 79.8972 91.4671L79.6796 91.4546V77.2958L79.6952 77.1377C79.7055 76.0105 79.9775 74.9235 80.506 73.9043L80.7159 73.5026L80.9231 73.9043C81.392 74.808 81.6588 75.782 81.7158 76.8289L81.7081 76.9193H81.7106ZM87.2182 89.4889C87.2182 89.5743 87.1742 89.6521 87.0991 89.6973C86.6354 89.9809 86.1535 90.2345 85.6535 90.4529C85.4981 90.5207 85.3245 90.4127 85.3245 90.247V82.7886C85.3245 82.6405 85.4774 82.5351 85.6199 82.5878C86.068 82.7434 86.5343 82.8489 87.0058 82.8966C87.125 82.9091 87.2157 83.007 87.2157 83.1225V89.4889H87.2182ZM88.3996 88.7785L88.0161 89.0897V82.9217L88.226 82.9016C89.8062 82.7459 91.2829 81.9526 92.2725 80.7301L92.6611 80.2481C92.6611 80.2481 92.6973 80.1075 92.6948 80.2355C92.5834 83.5442 91.0316 86.6396 88.397 88.7785M92.6999 77.6699C92.4487 80.2205 90.2622 82.1434 87.6146 82.1434C86.8659 82.1434 86.1406 81.9853 85.4541 81.669L85.3219 81.6087V76.9193H85.3401C85.48 75.8097 86.4385 74.9712 87.6146 74.9712C88.9125 74.9712 89.9617 76.0205 89.9047 77.2883C89.8814 77.813 89.6327 78.3075 89.2622 78.6891C88.8503 79.1109 88.3711 79.3418 87.8763 79.3996C87.8581 79.3996 87.8426 79.4021 87.8244 79.4046C87.8115 79.4046 87.8037 79.397 87.7908 79.397C87.5706 79.397 87.3918 79.5703 87.3918 79.7836C87.3918 79.997 87.5706 80.1702 87.7908 80.1702C87.8089 80.1702 87.827 80.1627 87.8452 80.1602C87.8607 80.1652 87.8763 80.1753 87.8918 80.1753C87.9436 80.1703 87.9928 80.1627 88.0472 80.1527C89.3684 79.9318 90.472 78.9401 90.6715 77.6548C90.9901 75.5988 89.1353 73.854 87.0032 74.2557C85.568 74.5243 84.5655 75.7971 84.5266 77.213V90.8872L84.3634 90.9374C83.8531 91.0956 83.3168 91.2236 82.7728 91.3165L82.5008 91.3617V80.8129L82.5085 80.6322V77.3435C82.5085 74.7779 84.4567 72.5185 87.0913 72.2675C89.9695 71.9913 92.4331 73.9971 92.7025 76.736V77.6699H92.6999ZM92.6999 74.1904L92.2829 73.6708C90.915 71.9712 88.7234 71.1453 86.4696 71.557C84.695 71.8809 83.2028 73.0382 82.3402 74.5745C82.2702 74.7001 82.0837 74.685 82.0319 74.5519L81.9827 74.4214C81.791 73.9143 81.5474 73.4248 81.2547 72.9654L81.1718 72.8373L81.2702 72.7143C82.7158 70.9018 84.8945 69.86 87.2467 69.855H91.6041C92.2077 69.855 92.6948 70.3269 92.6948 70.9118V74.1854L92.6999 74.1904Z" fill="#C39B54"/>
<path d="M68.9209 64.9622L68.0531 63.7873H68.68L69.4054 64.8091V65.1229L68.4831 66.3178H67.8355L68.9209 64.9647V64.9622ZM70.0556 66.3153H69.5427V63.7873H70.0556V66.3153ZM71.5478 63.7873L70.6799 64.9622L71.7602 66.3153H71.1152L70.1929 65.1204V64.8066L70.9183 63.7848H71.5452L71.5478 63.7873Z" fill="#C39B54"/>
<path d="M72.0115 66.3153V63.7873H72.527V65.4216L73.9441 63.7823H74.2653V66.3153H73.7524V64.6785L72.3405 66.3153H72.0115Z" fill="#C39B54"/>
<path d="M75.8637 64.5505L75.1202 66.3153H74.5503L75.7005 63.7823H76.0295L77.1823 66.3153H76.6098L75.8637 64.5505Z" fill="#C39B54"/>
<path d="M78.0424 63.845C78.2108 63.7747 78.3843 63.7421 78.5683 63.7421C78.7522 63.7421 78.9258 63.7772 79.0942 63.845C79.2626 63.9128 79.405 64.0082 79.5268 64.1237C79.646 64.2392 79.7418 64.3797 79.8143 64.5404C79.8843 64.7011 79.9206 64.8718 79.9206 65.0475C79.9206 65.1906 79.8972 65.3287 79.8532 65.4617C79.8092 65.5948 79.7444 65.7153 79.6615 65.8232C79.5786 65.9312 79.4802 66.0241 79.3688 66.1044C79.2574 66.1847 79.133 66.2475 78.9957 66.2927C78.8584 66.3379 78.7159 66.358 78.5683 66.358C78.4206 66.358 78.2781 66.3354 78.1408 66.2927C78.0035 66.2475 77.8792 66.1847 77.7678 66.1044C77.6564 66.0241 77.5579 65.9287 77.475 65.8232C77.3921 65.7153 77.3274 65.5948 77.2833 65.4617C77.2367 65.3287 77.216 65.1906 77.216 65.0475C77.216 64.8693 77.2523 64.7011 77.3222 64.5404C77.3921 64.3797 77.488 64.2392 77.6098 64.1237C77.7315 64.0082 77.874 63.9128 78.0424 63.845ZM77.9776 65.6676C78.1408 65.8408 78.3377 65.9262 78.5683 65.9262C78.7988 65.9262 78.9957 65.8408 79.1589 65.6676C79.3221 65.4969 79.405 65.2885 79.405 65.0475C79.405 64.8894 79.3688 64.7438 79.2936 64.6082C79.2185 64.4751 79.1175 64.3672 78.9905 64.2919C78.8636 64.2141 78.7237 64.1764 78.5709 64.1764C78.418 64.1764 78.2781 64.2141 78.1512 64.2919C78.0243 64.3697 77.9206 64.4751 77.8481 64.6082C77.773 64.7438 77.7367 64.8894 77.7367 65.0475C77.7367 65.2885 77.8196 65.4969 77.9828 65.6676" fill="#C39B54"/>
<path d="M80.4024 63.7873H80.918V65.4216L82.335 63.7823H82.6588V66.3128H82.1459V64.6785L80.734 66.3128H80.405V63.7848L80.4024 63.7873ZM81.9205 63.3003L82.0449 63.2526V63.6743L81.9905 63.6994C81.8583 63.7547 81.7133 63.7823 81.5526 63.7823C81.392 63.7823 81.2392 63.7547 81.1122 63.6994L81.0604 63.6743V63.2476L81.1848 63.3003C81.3039 63.3455 81.4283 63.3706 81.5552 63.3706C81.6822 63.3706 81.8091 63.348 81.9231 63.3053" fill="#C39B54"/>
<path d="M86.4489 63.7873L87.4022 65.881H87.7156V66.6417H87.2027V66.3128H85.3686V66.6442H84.853V65.881H85.1665L86.1198 63.7873H86.4489ZM86.2856 64.553L85.7261 65.881H86.8478L86.2856 64.553Z" fill="#C39B54"/>
<path d="M88.4876 63.845C88.656 63.7747 88.8296 63.7421 89.0135 63.7421C89.1975 63.7421 89.371 63.7772 89.5394 63.845C89.7078 63.9128 89.8503 64.0082 89.972 64.1237C90.0912 64.2392 90.1871 64.3797 90.2596 64.5404C90.3295 64.7011 90.3658 64.8718 90.3658 65.0475C90.3658 65.1906 90.3425 65.3287 90.2985 65.4617C90.2544 65.5948 90.1897 65.7153 90.1068 65.8232C90.0239 65.9312 89.9254 66.0241 89.814 66.1044C89.7026 66.1847 89.5783 66.2475 89.441 66.2927C89.3037 66.3379 89.1612 66.358 89.0135 66.358C88.8659 66.358 88.7234 66.3354 88.5861 66.2927C88.4488 66.2475 88.3244 66.1847 88.213 66.1044C88.1016 66.0241 88.0058 65.9287 87.9203 65.8232C87.8374 65.7153 87.7726 65.5948 87.7286 65.4617C87.682 65.3287 87.6612 65.1906 87.6612 65.0475C87.6612 64.8693 87.6975 64.7011 87.7675 64.5404C87.8374 64.3797 87.9332 64.2392 88.055 64.1237C88.1768 64.0082 88.3192 63.9128 88.4876 63.845ZM88.4229 65.6676C88.5861 65.8408 88.783 65.9262 89.0135 65.9262C89.2441 65.9262 89.441 65.8408 89.6042 65.6676C89.7674 65.4969 89.8503 65.2885 89.8503 65.0475C89.8503 64.8894 89.814 64.7438 89.7389 64.6082C89.6638 64.4751 89.5627 64.3672 89.4358 64.2919C89.3089 64.2141 89.169 64.1764 89.0161 64.1764C88.8633 64.1764 88.7234 64.2141 88.5964 64.2919C88.4695 64.3697 88.3659 64.4751 88.2933 64.6082C88.2182 64.7438 88.1819 64.8894 88.1819 65.0475C88.1819 65.2885 88.2648 65.4969 88.4281 65.6676" fill="#C39B54"/>
<path d="M93.1818 63.7873H93.516V66.3153H93.0005V65.0501L92.3684 66.3153H91.9927L91.3632 65.0501V66.3153H90.8477V63.7873H91.1793L92.1818 65.7003L93.1818 63.7873Z" fill="#C39B54"/>
<path d="M54.4991 98.5515V97.2511H55.4498V100.936H54.4991V99.3598H52.6883V100.936H51.7427V97.2511H52.6883V98.5515H54.4991Z" fill="#C39B54"/>
<path d="M59.5223 97.7582V97.2486H60.4704V100.934H59.5223V100.417C59.3824 100.6 59.2088 100.748 58.999 100.861C58.7891 100.974 58.5534 101.029 58.2891 101.029C57.9265 101.029 57.5897 100.941 57.2814 100.768C56.9731 100.595 56.7296 100.356 56.5483 100.058C56.3695 99.759 56.2788 99.4327 56.2788 99.0812C56.2788 98.7297 56.3695 98.4034 56.5483 98.1046C56.727 97.8059 56.9705 97.5674 57.2814 97.3942C57.5897 97.221 57.9265 97.1331 58.2891 97.1331C58.5534 97.1331 58.7943 97.1934 59.0093 97.3139C59.2269 97.4344 59.3979 97.5825 59.5248 97.7557M58.2891 100.221C58.5793 100.221 58.8306 100.11 59.0378 99.887C59.2477 99.6636 59.3513 99.395 59.3513 99.0812C59.3513 98.7674 59.2477 98.4988 59.0378 98.2754C58.8306 98.0519 58.5793 97.9415 58.2891 97.9415C57.999 97.9415 57.7425 98.0519 57.5353 98.2728C57.328 98.4938 57.2244 98.7649 57.2244 99.0812C57.2244 99.3975 57.328 99.6686 57.5353 99.8896C57.7425 100.11 57.9938 100.223 58.2891 100.223" fill="#C39B54"/>
<path d="M67.6982 97.6252C67.6982 97.8762 67.6541 98.0996 67.5635 98.298C67.4728 98.4963 67.3484 98.6544 67.1904 98.78C67.0324 98.9055 66.8485 99.0009 66.6438 99.0712C66.4391 99.1389 66.2138 99.1816 65.9677 99.1942H65.0609V100.939H64.0558V96.011H65.9132C66.2526 96.011 66.5557 96.0737 66.8225 96.2018C67.092 96.3298 67.3044 96.5156 67.4624 96.7616C67.6205 97.0076 67.7008 97.2963 67.7008 97.6277M65.0609 98.3456H65.7371C65.9081 98.3456 66.0583 98.3256 66.1827 98.2829C66.3096 98.2402 66.4029 98.1925 66.4676 98.1373C66.5298 98.0821 66.579 98.0143 66.6153 97.939C66.6516 97.8611 66.6723 97.8009 66.6801 97.7532C66.6878 97.7055 66.693 97.6578 66.693 97.6076C66.693 97.5574 66.6878 97.5072 66.6801 97.4595C66.6723 97.4093 66.649 97.3465 66.6153 97.2687C66.579 97.1909 66.5298 97.1231 66.4676 97.0678C66.4055 97.0126 66.3096 96.9624 66.1827 96.9197C66.0557 96.8771 65.9081 96.857 65.7371 96.857H65.0609V98.3456Z" fill="#C39B54"/>
<path d="M69.0427 97.4068C69.3509 97.2335 69.6877 97.1482 70.0504 97.1482C70.4131 97.1482 70.7499 97.2335 71.0581 97.4068C71.3664 97.58 71.6125 97.816 71.7913 98.1122C71.97 98.4109 72.0607 98.7348 72.0607 99.0887C72.0607 99.4427 71.97 99.7666 71.7913 100.065C71.6125 100.364 71.369 100.6 71.0581 100.776C70.7499 100.949 70.4131 101.037 70.0504 101.037C69.6877 101.037 69.3509 100.949 69.0427 100.776C68.7344 100.603 68.4909 100.367 68.3095 100.065C68.1308 99.7666 68.0401 99.4402 68.0401 99.0887C68.0401 98.7373 68.1308 98.4109 68.3095 98.1122C68.4883 97.8135 68.7318 97.5775 69.0427 97.4068ZM70.0504 100.228C70.3405 100.228 70.5918 100.118 70.7991 99.8946C71.0063 99.6712 71.1125 99.4025 71.1125 99.0887C71.1125 98.7749 71.0089 98.5063 70.7991 98.2829C70.5892 98.0595 70.3405 97.949 70.0504 97.949C69.7602 97.949 69.5064 98.0595 69.3017 98.2804C69.0945 98.5013 68.9908 98.7724 68.9908 99.0887C68.9908 99.4051 69.0945 99.6762 69.3017 99.8971C69.509 100.118 69.7577 100.228 70.0504 100.228Z" fill="#C39B54"/>
<path d="M75.7938 97.7331V97.231H76.7342V100.474H76.7264C76.7057 100.894 76.5943 101.255 76.3922 101.556C76.1901 101.858 75.9207 102.084 75.5865 102.232C75.2523 102.38 74.8663 102.455 74.4337 102.455C74.1513 102.455 73.8664 102.41 73.5788 102.317C73.2913 102.224 73.0426 102.094 72.8301 101.925V100.856C72.9027 100.946 72.983 101.029 73.0711 101.11C73.1617 101.19 73.2705 101.273 73.4052 101.358C73.5374 101.443 73.6928 101.514 73.8715 101.564C74.0503 101.614 74.2368 101.642 74.4337 101.642C74.8482 101.642 75.172 101.531 75.4078 101.31C75.6409 101.09 75.7679 100.783 75.786 100.392C75.6616 100.567 75.4907 100.715 75.2757 100.836C75.058 100.956 74.8171 101.019 74.5503 101.019C74.1876 101.019 73.8508 100.931 73.5425 100.758C73.2343 100.585 72.9882 100.349 72.8094 100.048C72.6307 99.749 72.54 99.4226 72.54 99.0711C72.54 98.7197 72.6307 98.3933 72.8094 98.0946C72.9882 97.7959 73.2343 97.5574 73.5425 97.3841C73.8508 97.2109 74.1876 97.1231 74.5503 97.1231C74.8145 97.1231 75.0503 97.1783 75.2601 97.2913C75.4699 97.4017 75.6461 97.5498 75.7912 97.7331M74.5503 100.211C74.8456 100.211 75.0969 100.1 75.3041 99.877C75.5114 99.6561 75.615 99.3849 75.615 99.0686C75.615 98.7523 75.5114 98.4812 75.3041 98.2578C75.0969 98.0343 74.8456 97.9239 74.5529 97.9239C74.2601 97.9239 74.0089 98.0343 73.8042 98.2578C73.5969 98.4812 73.4933 98.7498 73.4933 99.0686C73.4933 99.3875 73.5969 99.6561 73.8042 99.877C74.0114 100.098 74.2601 100.211 74.5529 100.211" fill="#C39B54"/>
<path d="M80.5993 98.5515V97.2511H81.5501V100.936H80.5993V99.3598H78.7911V100.936H77.8429V97.2511H78.7911V98.5515H80.5993Z" fill="#C39B54"/>
<path d="M84.3686 101.032C84.1303 101.032 83.9127 100.999 83.7184 100.931C83.5241 100.864 83.3609 100.776 83.2313 100.66C83.1018 100.547 82.993 100.412 82.9049 100.259C82.8168 100.105 82.7547 99.9423 82.7158 99.7716C82.677 99.6009 82.6588 99.4227 82.6588 99.2369V97.2361H83.6096V99.2168C83.6096 99.5281 83.6899 99.7741 83.8505 99.9599C84.0111 100.146 84.2313 100.236 84.5111 100.236C84.7753 100.236 84.9929 100.143 85.1613 99.9549C85.3323 99.7666 85.4178 99.5206 85.4178 99.2168V97.2361H86.3686V100.929H85.4178V100.565C85.3582 100.623 85.2986 100.675 85.2416 100.718C85.1846 100.761 85.1121 100.811 85.0266 100.864C84.9385 100.916 84.8375 100.959 84.7261 100.987C84.6147 101.014 84.4955 101.029 84.3738 101.029" fill="#C39B54"/>
<path d="M88.4799 100.936H87.5395V95.7524H88.4799V100.936ZM91.1508 97.2511L89.6171 98.8352L91.4953 100.936H90.2492L88.6819 99.1289V98.5113L89.8658 97.2486H91.1482L91.1508 97.2511Z" fill="#C39B54"/>
<path d="M92.4616 97.4068C92.7699 97.2335 93.1067 97.1482 93.4694 97.1482C93.832 97.1482 94.1688 97.2335 94.4771 97.4068C94.7854 97.58 95.0315 97.816 95.2102 98.1122C95.389 98.4109 95.4797 98.7348 95.4797 99.0887C95.4797 99.4427 95.389 99.7666 95.2102 100.065C95.0315 100.364 94.788 100.6 94.4771 100.776C94.1688 100.949 93.832 101.037 93.4694 101.037C93.1067 101.037 92.7699 100.949 92.4616 100.776C92.1533 100.603 91.9098 100.367 91.7285 100.065C91.5497 99.7666 91.4591 99.4402 91.4591 99.0887C91.4591 98.7373 91.5497 98.4109 91.7285 98.1122C91.9072 97.8135 92.1533 97.5775 92.4616 97.4068ZM93.4694 100.228C93.7595 100.228 94.0108 100.118 94.218 99.8946C94.4253 99.6712 94.5315 99.4025 94.5315 99.0887C94.5315 98.7749 94.4279 98.5063 94.218 98.2829C94.0082 98.0595 93.7595 97.949 93.4694 97.949C93.1792 97.949 92.9253 98.0595 92.7207 98.2804C92.5134 98.5013 92.4098 98.7724 92.4098 99.0887C92.4098 99.4051 92.5134 99.6762 92.7207 99.8971C92.9279 100.118 93.1766 100.228 93.4694 100.228Z" fill="#C39B54"/>
<path d="M98.736 98.0018C98.8189 98.0243 98.8967 98.0495 98.9692 98.0771C99.0417 98.1047 99.1324 98.1549 99.2412 98.2252C99.35 98.2955 99.4433 98.3758 99.5184 98.4687C99.5935 98.5591 99.6609 98.6846 99.7153 98.8377C99.7723 98.9934 99.8008 99.1666 99.8008 99.3599C99.8008 99.6737 99.7205 99.9599 99.5624 100.216C99.4044 100.472 99.1868 100.67 98.9174 100.813C98.6454 100.957 98.3475 101.027 98.0236 101.027C97.8345 101.027 97.6532 101.004 97.4796 100.962C97.306 100.919 97.1428 100.854 96.9926 100.763C96.8423 100.673 96.7102 100.565 96.5988 100.434C96.4874 100.306 96.4019 100.148 96.3372 99.9624C96.2724 99.7766 96.2413 99.5758 96.2413 99.3574V97.1156C96.2413 96.9072 96.2724 96.7214 96.332 96.5532C96.3916 96.3851 96.4745 96.247 96.5755 96.139C96.6765 96.0311 96.7957 95.9407 96.933 95.8679C97.0703 95.7951 97.2102 95.7449 97.3527 95.7148C97.4952 95.6846 97.6454 95.6696 97.8008 95.6696C98.0729 95.6696 98.3241 95.7273 98.5625 95.8428C98.8008 95.9583 98.9925 96.124 99.1402 96.3373C99.2878 96.5532 99.363 96.7942 99.363 97.0603C99.363 97.4394 99.1557 97.7532 98.7412 98.0018M98.0288 100.231C98.249 100.231 98.4433 100.153 98.6091 100C98.7749 99.8469 98.8578 99.6385 98.8578 99.3775C98.8578 99.2042 98.806 99.0536 98.6998 98.9206C98.5962 98.7875 98.464 98.6896 98.3086 98.6269C98.1506 98.5641 97.9874 98.5315 97.8138 98.5315H97.4563V97.7256H97.6972C97.8837 97.7256 98.0521 97.6679 98.1972 97.5549C98.3449 97.4419 98.4174 97.2913 98.4174 97.103C98.4174 96.9348 98.3578 96.7867 98.2412 96.6612C98.1247 96.5357 97.9796 96.4704 97.8086 96.4704C97.6506 96.4704 97.5107 96.5231 97.3864 96.6286C97.262 96.734 97.1998 96.8796 97.1998 97.0654V99.4101C97.1998 99.6888 97.2827 99.8946 97.4459 100.028C97.6117 100.163 97.806 100.228 98.0314 100.228" fill="#C39B54"/>
<path d="M101.285 97.4068C101.593 97.2335 101.93 97.1482 102.293 97.1482C102.656 97.1482 102.992 97.2335 103.301 97.4068C103.609 97.58 103.855 97.816 104.034 98.1122C104.213 98.4109 104.303 98.7348 104.303 99.0887C104.303 99.4427 104.213 99.7666 104.034 100.065C103.855 100.364 103.612 100.6 103.301 100.776C102.992 100.949 102.656 101.037 102.293 101.037C101.93 101.037 101.593 100.949 101.285 100.776C100.977 100.603 100.733 100.367 100.552 100.065C100.373 99.7666 100.283 99.4402 100.283 99.0887C100.283 98.7373 100.373 98.4109 100.552 98.1122C100.731 97.8135 100.977 97.5775 101.285 97.4068ZM102.293 100.228C102.583 100.228 102.834 100.118 103.042 99.8946C103.249 99.6712 103.355 99.4025 103.355 99.0887C103.355 98.7749 103.251 98.5063 103.042 98.2829C102.832 98.0595 102.583 97.949 102.293 97.949C102.003 97.949 101.749 98.0595 101.544 98.2804C101.337 98.5013 101.233 98.7724 101.233 99.0887C101.233 99.4051 101.337 99.6762 101.544 99.8971C101.751 100.118 102 100.228 102.293 100.228Z" fill="#C39B54"/>
<path d="M106.775 101.044C106.536 101.044 106.319 101.012 106.124 100.944C105.93 100.876 105.767 100.788 105.637 100.675C105.508 100.562 105.399 100.429 105.311 100.274C105.223 100.118 105.161 99.9549 105.122 99.7841C105.083 99.6134 105.065 99.4327 105.065 99.2444V97.2436H106.016V99.2294C106.016 99.5381 106.096 99.7842 106.257 99.9674C106.417 100.151 106.637 100.244 106.915 100.244C107.192 100.244 107.396 100.151 107.565 99.9624C107.736 99.7766 107.821 99.5306 107.821 99.2294V97.2436H108.772V100.936H107.821V100.58C107.756 100.64 107.697 100.693 107.642 100.733C107.588 100.776 107.518 100.823 107.43 100.876C107.342 100.929 107.241 100.972 107.13 101.002C107.018 101.032 106.899 101.047 106.777 101.047M107.637 96.0838L107.881 95.9984V96.729L107.777 96.7742C107.539 96.8771 107.254 96.9273 106.925 96.9273C106.596 96.9273 106.306 96.8746 106.065 96.7742L105.964 96.729V95.9834L106.21 96.0813C106.435 96.1717 106.674 96.2169 106.925 96.2169C107.176 96.2169 107.407 96.1717 107.64 96.0813" fill="#C39B54"/>
</g>
</svg>
