<?xml version="1.0" encoding="UTF-8"?>
<svg xmlns="http://www.w3.org/2000/svg">
    <defs>
        <symbol id="info01" viewBox="0 0 60 60" fill="none">
            <g opacity="0.5">
                <path d="M48.5193 23.9429L53.9621 26.9818C56.328 28.3027 56.328 31.6974 53.9621 33.0183L48.4127 36.1167L33.7324 44.313C31.4135 45.6077 28.5864 45.6077 26.2676 44.313L6.03785 33.0183C3.67195 31.6974 3.67195 28.3027 6.03785 26.9818L11.3401 24.0214" stroke="#C39B54" stroke-width="1.5" stroke-miterlimit="10" stroke-linecap="round" stroke-linejoin="round"/>
                <path d="M26.2676 31.9406L6.03785 20.646C3.67195 19.325 3.67195 15.9304 6.03785 14.6094L26.2676 3.31477C28.5865 2.02008 31.4136 2.02008 33.7324 3.31477L53.9621 14.6094C56.328 15.9304 56.328 19.325 53.9621 20.646L33.7324 31.9406C31.4136 33.2353 28.5864 33.2353 26.2676 31.9406Z" stroke="#C39B54" stroke-width="1.5" stroke-miterlimit="10" stroke-linecap="round" stroke-linejoin="round"/>
                <path d="M11.3943 36.3633L6.03785 39.3539C3.67195 40.6748 3.67195 44.0695 6.03785 45.3905L26.2676 56.6851C28.5865 57.9798 31.4136 57.9798 33.7324 56.6851L33.9784 56.5478" stroke="#C39B54" stroke-width="1.5" stroke-miterlimit="10" stroke-linecap="round" stroke-linejoin="round"/>
                <path d="M44.2114 50.8346L53.9621 45.3906C56.328 44.0696 56.328 40.675 53.9621 39.354L48.6422 36.3838" stroke="#C39B54" stroke-width="1.5" stroke-miterlimit="10" stroke-linecap="round" stroke-linejoin="round"/>
            </g>
        </symbol>
        <symbol id="info02" viewBox="0 0 60 60" fill="none">
            <g opacity="0.5">
                <mask id="mask0_1_275" style="mask-type:luminance" maskUnits="userSpaceOnUse" x="0" y="0" width="60" height="60">
                    <path d="M0 3.8147e-06H60V60H0V3.8147e-06Z" fill="white"/>
                </mask>
                <g mask="url(#mask0_1_275)">
                    <path d="M46.2785 40.7041L51.6188 34.4861C52.1965 33.8135 53.2383 33.8135 53.816 34.4861L59.1211 40.6643" stroke="#C39B54" stroke-width="1.5" stroke-miterlimit="10" stroke-linecap="round" stroke-linejoin="round"/>
                    <path d="M0.878937 40.6643L6.18401 34.4861C6.76175 33.8135 7.80355 33.8135 8.38128 34.4861L13.7215 40.7041" stroke="#C39B54" stroke-width="1.5" stroke-miterlimit="10" stroke-linecap="round" stroke-linejoin="round"/>
                    <path d="M51.6873 46.0898L31.6487 26.1355C30.7371 25.2278 29.263 25.2278 28.3514 26.1355L8.31277 46.0898" stroke="#C39B54" stroke-width="1.5" stroke-miterlimit="10" stroke-linecap="round" stroke-linejoin="round"/>
                    <path d="M59.1211 26.9517V13.8864C59.1211 13.1384 58.4299 12.5822 57.6993 12.7424C42.2318 16.1364 26.327 16.6559 10.7256 14.301" stroke="#C39B54" stroke-width="1.5" stroke-miterlimit="10" stroke-linecap="round" stroke-linejoin="round"/>
                    <path d="M6.62402 13.6142C5.17957 13.3484 3.73828 13.0579 2.30074 12.7424C1.5702 12.5821 0.878906 13.1383 0.878906 13.8863V46.114C0.878906 46.862 1.5702 47.4182 2.30074 47.258C20.5636 43.2505 39.4364 43.2505 57.6993 47.258C58.4299 47.4182 59.1211 46.862 59.1211 46.114V31.0531" stroke="#C39B54" stroke-width="1.5" stroke-miterlimit="10" stroke-linecap="round" stroke-linejoin="round"/>
                    <path d="M43.875 45V15" stroke="#C39B54" stroke-width="1.5" stroke-miterlimit="10" stroke-linecap="round" stroke-linejoin="round"/>
                    <path d="M16.125 45V15" stroke="#C39B54" stroke-width="1.5" stroke-miterlimit="10" stroke-linecap="round" stroke-linejoin="round"/>
                    <path d="M50.1068 22.1504C48.8124 22.1504 47.7631 23.1997 47.7631 24.4941C47.7631 25.7886 48.8124 26.8379 50.1068 26.8379C51.4011 26.8379 52.4506 25.7886 52.4506 24.4941C52.4506 23.1997 51.4011 22.1504 50.1068 22.1504Z" stroke="#C39B54" stroke-width="1.5" stroke-miterlimit="10" stroke-linecap="round" stroke-linejoin="round"/>
                    <path d="M22.2815 32.1799L26.0198 35.1151C26.4964 35.4891 27.1782 35.4451 27.6027 35.0127L30.1716 32.3953C30.4742 32.087 30.9271 31.9805 31.3353 32.1218L41.0272 35.4746" stroke="#C39B54" stroke-width="1.5" stroke-miterlimit="10" stroke-linecap="round" stroke-linejoin="round"/>
                </g>
            </g>
        </symbol>
        <symbol id="info03" viewBox="0 0 60 60" fill="none">
            <g opacity="0.5">
                <path d="M23.9813 23.9812V4H56.125V37.8812H46.5688V56.125H38.75" stroke="#C39B54" stroke-width="1.8" stroke-linecap="round" stroke-linejoin="round"/>
                <path d="M36.1437 50.9124L30.9312 56.1249H4V13.5562H23.9812" stroke="#C39B54" stroke-width="1.8" stroke-linecap="round" stroke-linejoin="round"/>
                <path d="M23.9813 31.7998V43.0936" stroke="#C39B54" stroke-width="1.8" stroke-linecap="round" stroke-linejoin="round"/>
                <path d="M23.9813 50.9126V56.1251" stroke="#C39B54" stroke-width="1.8" stroke-linecap="round" stroke-linejoin="round"/>
                <path d="M23.9813 37.8813H4" stroke="#C39B54" stroke-width="1.8" stroke-linecap="round" stroke-linejoin="round"/>
            </g>
        </symbol>
        <symbol id="info04" viewBox="0 0 60 60" fill="none">
            <g opacity="0.5">
                <path d="M16.0698 46.7271H51.5854C52.327 46.7264 53.038 46.4315 53.5625 45.9071C54.0869 45.3828 54.3819 44.6718 54.3828 43.9302V8.41458C54.382 7.6729 54.087 6.96182 53.5626 6.43738C53.0381 5.91293 52.3271 5.61796 51.5854 5.61719H16.0698C15.3282 5.61806 14.6172 5.91308 14.0929 6.43752C13.5685 6.96196 13.2736 7.67298 13.2729 8.41458V43.9302C13.2737 44.6717 13.5687 45.3826 14.093 45.907C14.6173 46.4313 15.3283 46.7263 16.0698 46.7271ZM15.1479 8.41458C15.148 8.17009 15.2452 7.93565 15.4181 7.76272C15.5909 7.58979 15.8253 7.4925 16.0698 7.49219H51.5854C51.8299 7.49248 52.0644 7.58975 52.2373 7.76267C52.4102 7.93559 52.5075 8.17004 52.5078 8.41458V43.9302C52.5075 44.1747 52.4102 44.4091 52.2373 44.5819C52.0643 44.7548 51.8299 44.8519 51.5854 44.8521H16.0698C15.8253 44.8519 15.591 44.7547 15.4181 44.5819C15.2453 44.409 15.1481 44.1746 15.1479 43.9302V8.41458Z" fill="#C39B54"/>
                <path d="M21.5959 37.9917C21.844 37.9924 22.0823 37.8948 22.2585 37.7202C22.4347 37.5455 22.5346 37.3082 22.5362 37.0601L22.6016 26.5595C22.7431 22.0358 28.5852 22.0563 28.6949 26.5834V37.0542C28.6949 37.3028 28.7937 37.5413 28.9695 37.7171C29.1453 37.8929 29.3838 37.9917 29.6324 37.9917C29.8811 37.9917 30.1195 37.8929 30.2953 37.7171C30.4711 37.5413 30.5699 37.3028 30.5699 37.0542V26.5833C30.6621 22.0765 36.6224 22.0047 36.7287 26.5834V37.0542C36.7323 37.3004 36.8327 37.5353 37.0081 37.7081C37.1836 37.881 37.4199 37.9778 37.6662 37.9778C37.9124 37.9778 38.1488 37.8809 38.3242 37.7081C38.4996 37.5353 38.6 37.3004 38.6037 37.0541V26.5833C38.6264 25.9064 38.5154 25.2318 38.2769 24.5979C38.0384 23.9641 37.6772 23.3835 37.2139 22.8895C36.7506 22.3955 36.1944 21.9979 35.5771 21.7192C34.9599 21.4406 34.2937 21.2866 33.6168 21.2659C32.8229 21.2756 32.0437 21.4814 31.3486 21.865C30.6534 22.2486 30.0639 22.7981 29.6324 23.4645C29.2647 22.8921 28.7776 22.4058 28.2046 22.039C27.6316 21.6721 26.9861 21.4334 26.3123 21.339C25.6385 21.2447 24.9523 21.297 24.3006 21.4923C23.6488 21.6876 23.047 22.0214 22.5361 22.4709V20.9867C22.5325 20.7404 22.4321 20.5055 22.2567 20.3327C22.0812 20.1599 21.8449 20.063 21.5986 20.063C21.3524 20.063 21.116 20.1599 20.9406 20.3327C20.7652 20.5056 20.6648 20.7405 20.6611 20.9867V37.0542C20.6611 37.3023 20.7596 37.5404 20.9348 37.7161C21.11 37.8918 21.3478 37.9909 21.5959 37.9917Z" fill="#C39B54"/>
                <path d="M42.0758 17.6773L43.0293 16.6071C43.1376 16.481 43.2732 16.3815 43.4259 16.316C43.5785 16.2506 43.7442 16.2209 43.9101 16.2294C44.7448 16.2508 45.0902 16.991 45.1195 17.7446C45.1277 18.1924 44.9608 18.6259 44.6544 18.9526L40.7162 22.85C40.5872 22.9819 40.4996 23.1488 40.4643 23.3299C40.4291 23.5111 40.4477 23.6986 40.5179 23.8693C40.5881 24.0399 40.7068 24.1863 40.8593 24.2902C41.0118 24.3941 41.1914 24.4511 41.3759 24.454H46.057C46.3025 24.4492 46.5363 24.3483 46.7082 24.173C46.8801 23.9977 46.9764 23.762 46.9763 23.5165C46.9763 23.271 46.88 23.0352 46.7081 22.86C46.5362 22.6847 46.3024 22.5838 46.0569 22.579H43.656L45.9732 20.2856C48.084 18.3575 46.6808 13.98 43.6142 14.3691C42.3734 14.3539 41.4223 15.562 40.676 16.4304C40.5163 16.6169 40.4361 16.8585 40.4527 17.1034C40.4692 17.3483 40.5812 17.577 40.7645 17.7403C40.9478 17.9035 41.1878 17.9884 41.433 17.9766C41.6782 17.9649 41.909 17.8574 42.0758 17.6773Z" fill="#C39B54"/>
                <path d="M57.1151 53.4371C57.1853 53.2658 57.2035 53.0776 57.1674 52.896C57.1314 52.7144 57.0428 52.5473 56.9125 52.4157L53.7419 49.2451C53.5661 49.0693 53.3277 48.9706 53.0791 48.9706C52.8305 48.9706 52.592 49.0693 52.4162 49.2451C52.2404 49.4209 52.1417 49.6593 52.1417 49.908C52.1417 50.1566 52.2404 50.395 52.4162 50.5708L53.9868 52.1414H9.68352C9.19966 52.1408 8.73579 51.9483 8.39365 51.6061C8.05151 51.264 7.85903 50.8001 7.85842 50.3163V6.01298L9.42901 7.58358C9.60594 7.75386 9.84261 7.84794 10.0882 7.84558C10.3337 7.84323 10.5685 7.74464 10.7422 7.57099C10.9158 7.39735 11.0144 7.16252 11.0167 6.91697C11.019 6.67142 10.9249 6.43476 10.7546 6.25785L7.58401 3.08722C7.45235 2.95709 7.28534 2.86851 7.10375 2.8325C6.92216 2.79648 6.73399 2.81463 6.56263 2.88468C6.44794 2.93224 3.08718 6.25789 3.08718 6.25789C2.91659 6.43475 2.82225 6.67152 2.82447 6.91724C2.82669 7.16296 2.9253 7.39798 3.09906 7.57173C3.27282 7.74548 3.50786 7.84407 3.75357 7.84627C3.99929 7.84847 4.23606 7.75412 4.41291 7.58351L5.98342 6.01298V50.3163C5.98452 51.2973 6.37471 52.2378 7.06837 52.9314C7.76204 53.6251 8.70253 54.0153 9.68352 54.0164H53.9868L52.4162 55.587C52.3284 55.6739 52.2585 55.7772 52.2108 55.8912C52.163 56.0051 52.1382 56.1274 52.1379 56.2509C52.1375 56.3745 52.1616 56.4969 52.2087 56.6111C52.2559 56.7253 52.3251 56.8291 52.4125 56.9164C52.4998 57.0038 52.6036 57.073 52.7178 57.1201C52.832 57.1673 52.9544 57.1913 53.078 57.191C53.2015 57.1906 53.3238 57.1658 53.4377 57.1181C53.5517 57.0703 53.655 57.0005 53.7419 56.9126C53.7419 56.9126 57.0676 53.5519 57.1151 53.4371Z" fill="#C39B54"/>
            </g>
        </symbol>
        <symbol id="info05" viewBox="0 0 60 60" fill="none">
            <g opacity="0.5">
                <path d="M10.3125 58.0078H49.6875C51.8935 58.0055 54.0084 57.1281 55.5682 55.5682C57.1281 54.0084 58.0055 51.8935 58.0078 49.6875V10.3125C58.0055 8.10654 57.1281 5.99161 55.5682 4.43175C54.0084 2.8719 51.8935 1.99455 49.6875 1.99219H10.3125C8.10654 1.99455 5.99161 2.8719 4.43175 4.43175C2.8719 5.99161 1.99455 8.10654 1.99219 10.3125V49.6875C1.99455 51.8935 2.8719 54.0084 4.43175 55.5682C5.99161 57.1281 8.10654 58.0055 10.3125 58.0078ZM3.63281 10.3125C3.63492 8.54158 4.33935 6.8438 5.59158 5.59158C6.8438 4.33935 8.54158 3.63492 10.3125 3.63281H49.6875C51.4584 3.63492 53.1562 4.33935 54.4084 5.59158C55.6607 6.8438 56.3651 8.54158 56.3672 10.3125V49.6875C56.3651 51.4584 55.6607 53.1562 54.4084 54.4084C53.1562 55.6607 51.4584 56.3651 49.6875 56.3672H10.3125C8.54158 56.3651 6.8438 55.6607 5.59158 54.4084C4.33935 53.1562 3.63492 51.4584 3.63281 49.6875V10.3125Z" fill="#C39B54"/>
                <path d="M19.2188 49.5288H24.9262C25.1438 49.5288 25.3525 49.4424 25.5063 49.2886C25.6601 49.1347 25.7466 48.9261 25.7466 48.7085V33.6738H31.875C34.9519 33.6738 37.9028 32.4515 40.0785 30.2758C42.2543 28.1001 43.4766 25.1492 43.4766 22.0723C43.4766 18.9953 42.2543 16.0444 40.0785 13.8687C37.9028 11.693 34.9519 10.4707 31.875 10.4707H19.2188C19.0012 10.4708 18.7927 10.5573 18.6388 10.7111C18.485 10.8649 18.3986 11.0735 18.3984 11.291V48.7085C18.3986 48.926 18.485 49.1346 18.6388 49.2884C18.7927 49.4422 19.0012 49.5287 19.2188 49.5288ZM20.0391 12.1113H31.875C34.5168 12.1113 37.0504 13.1608 38.9184 15.0288C40.7865 16.8969 41.8359 19.4305 41.8359 22.0723C41.8359 24.7141 40.7865 27.2477 38.9184 29.1157C37.0504 30.9837 34.5168 32.0332 31.875 32.0332H24.9262C24.7087 32.0333 24.5001 32.1198 24.3463 32.2736C24.1925 32.4274 24.1061 32.636 24.1059 32.8535V47.8882H20.0391V12.1113Z" fill="#C39B54"/>
                <path d="M24.893 27.6643H32.1755C35.2781 27.6643 37.8005 25.005 37.8005 21.7369C37.8005 18.4688 35.2767 15.8096 32.1755 15.8096H24.893C24.6754 15.8097 24.4669 15.8962 24.3131 16.05C24.1592 16.2038 24.0728 16.4124 24.0727 16.6299V26.8439C24.0728 27.0615 24.1592 27.27 24.3131 27.4239C24.4669 27.5777 24.6754 27.6641 24.893 27.6643ZM25.7133 17.4502H32.1755C34.3734 17.4502 36.1598 19.3721 36.1598 21.7369C36.1598 24.1018 34.372 26.0236 32.1755 26.0236H25.7133V17.4502Z" fill="#C39B54"/>
            </g>
        </symbol>
        <symbol id="info06" viewBox="0 0 60 60" fill="none">
            <g opacity="0.5" clip-path="url(#clip0_1_313)">
                <path d="M23.3972 55.1848C23.3972 55.7023 22.9861 56.1265 22.4686 56.1265C21.9511 56.1265 21.5269 55.7023 21.5269 55.1848V43.391C21.5269 42.5955 21.8714 41.8788 22.4288 41.3618C22.973 40.8579 23.7028 40.5527 24.5119 40.5527H35.4825C36.2916 40.5527 37.0345 40.8574 37.5647 41.3618C38.1216 41.8793 38.4675 42.5955 38.4675 43.391V55.1848C38.4675 55.7023 38.056 56.1265 37.5385 56.1265C37.021 56.1265 36.5967 55.7023 36.5967 55.1848V43.391C36.5967 43.1393 36.4903 42.9002 36.3047 42.7282C36.0928 42.5426 35.8139 42.423 35.4825 42.423H30.9319V55.1852C30.9319 55.7027 30.5213 56.127 30.0038 56.127C29.4867 56.127 29.062 55.7027 29.062 55.1852V42.4226H24.5119C24.1936 42.4226 23.9147 42.5426 23.7028 42.7277C23.5172 42.8998 23.3977 43.1388 23.3977 43.3905L23.3972 55.1848Z" fill="#C39B54"/>
                <path d="M20.7577 27.9771H26.8861C27.4036 27.9771 27.8147 28.3887 27.8147 28.9057V34.6104C27.8147 35.1279 27.4036 35.538 26.8861 35.538H20.7577C20.2402 35.538 19.8291 35.1274 19.8291 34.6104V28.9057C19.8286 28.3887 20.2402 27.9771 20.7577 27.9771ZM20.7577 16.6348H26.8861C27.4036 16.6348 27.8147 17.0463 27.8147 17.5634V23.2676C27.8147 23.7851 27.4036 24.1962 26.8861 24.1962H20.7577C20.2402 24.1962 19.8291 23.7846 19.8291 23.2676V17.5638C19.8286 17.0463 20.2402 16.6348 20.7577 16.6348ZM25.9444 18.506H21.6994V22.3259H25.9444V18.506ZM36.1852 22.3259C36.7027 22.3259 37.1133 22.7505 37.1133 23.268C37.1133 23.7855 36.7022 24.1966 36.1852 24.1966H33.1209C32.6034 24.1966 32.1788 23.7851 32.1788 23.268V17.5638C32.1788 17.0463 32.603 16.6352 33.1209 16.6352C33.6384 16.6352 34.0495 17.0468 34.0495 17.5638V22.3259H36.1852ZM33.1209 27.9771H39.2363C39.7538 27.9771 40.178 28.3887 40.178 28.9057V34.6104C40.178 35.1279 39.7538 35.538 39.2363 35.538H33.1209C32.6034 35.538 32.1788 35.1274 32.1788 34.6104V28.9057C32.1788 28.3887 32.6034 27.9771 33.1209 27.9771ZM38.3081 29.8479H34.05V33.6682H38.3081V29.8479ZM25.9444 29.8479H21.6994V33.6682H25.9444V29.8479Z" fill="#C39B54"/>
                <path d="M45.7627 28.7334C45.4978 29.1712 44.9278 29.3302 44.4895 29.0648C44.3433 28.972 44.2242 28.853 44.1445 28.7203L36.1055 15.0961C35.6939 14.393 35.3494 13.4911 35.1375 12.6952C34.9247 11.8725 34.8188 11.0241 34.8188 10.148C34.8188 7.34859 35.9466 4.81547 37.7902 2.97094C39.6211 1.14094 42.1547 0 44.9672 0C47.7661 0 50.2997 1.14094 52.1438 2.97141C53.9742 4.81594 55.1156 7.34906 55.1156 10.1484C55.1156 11.0241 54.9961 11.873 54.7842 12.6956C54.5714 13.545 54.2395 14.3405 53.8289 15.0834L45.7627 28.7334ZM44.9672 26.4248L52.2098 14.1539C52.5417 13.5572 52.807 12.907 52.9795 12.2306C53.1516 11.5669 53.2444 10.8773 53.2444 10.148C53.2444 7.86609 52.3167 5.79703 50.8172 4.29797C49.3181 2.79937 47.2486 1.87031 44.9672 1.87031C42.6722 1.87031 40.6027 2.79891 39.1041 4.29797C37.6177 5.79703 36.6895 7.86609 36.6895 10.148C36.6895 10.8778 36.7819 11.5669 36.9417 12.2306C37.1138 12.8934 37.3791 13.5305 37.6973 14.1272L44.9672 26.4248Z" fill="#C39B54"/>
                <path d="M44.9672 4.73584C46.4531 4.73584 47.806 5.34662 48.7871 6.32771C49.7691 7.29615 50.3794 8.64896 50.3794 10.148C50.3794 11.6466 49.7686 13.0004 48.7871 13.9819C47.8055 14.9504 46.4531 15.5602 44.9672 15.5602C43.4681 15.5602 42.1149 14.9504 41.1333 13.9819C40.1517 13.0004 39.555 11.6471 39.555 10.148C39.555 8.64896 40.1517 7.29615 41.1333 6.32771C42.1149 5.34615 43.4677 4.73584 44.9672 4.73584ZM47.461 7.64115C46.8239 7.00459 45.9356 6.60662 44.9672 6.60662C43.9856 6.60662 43.0964 7.00459 42.4599 7.64115C41.8228 8.29131 41.4253 9.16646 41.4253 10.1485C41.4253 11.1301 41.8228 12.0188 42.4599 12.6558C43.096 13.2924 43.9856 13.6904 44.9672 13.6904C45.9356 13.6904 46.8239 13.2924 47.461 12.6558C48.1106 12.0193 48.5086 11.1301 48.5086 10.1485C48.5086 9.16646 48.1106 8.29131 47.461 7.64115Z" fill="#C39B54"/>
                <path d="M49.2909 45.5671C48.7734 45.5671 48.3633 45.1428 48.3633 44.6253C48.3633 44.1078 48.7739 43.6963 49.2909 43.6963H52.687C53.8547 43.6963 54.8897 44.3732 55.3406 45.4475L59.7314 56.1397C59.917 56.5907 59.9831 57.0421 59.9302 57.493C59.8374 58.4085 59.2266 59.2569 58.4175 59.6816C58.0064 59.8939 57.5555 60.0004 57.0783 60.0004H2.92876C2.4511 60.0004 2.00016 59.8939 1.58907 59.6816C0.766413 59.2569 0.169694 58.4085 0.0637567 57.493C0.023913 57.0421 0.0900068 56.5907 0.262507 56.1397L4.66688 45.4475C5.11782 44.3732 6.15235 43.6963 7.32001 43.6963H10.6894C11.2069 43.6963 11.618 44.1083 11.618 44.6253C11.618 45.1424 11.2069 45.5671 10.6894 45.5671H7.32001C6.90891 45.5671 6.55032 45.7658 6.39141 46.1638L2.00063 56.8555C1.93407 57.0022 1.90782 57.1475 1.92094 57.2938C1.96079 57.5989 2.17313 57.8774 2.43844 58.0236C2.58423 58.0902 2.74313 58.13 2.92923 58.13H57.0792C57.2649 58.13 57.4238 58.0902 57.5569 58.0236C57.8358 57.8774 58.0477 57.5994 58.0744 57.2938C58.0875 57.1475 58.0744 57.0022 58.0078 56.8555L53.617 46.1638C53.4577 45.7654 53.0995 45.5671 52.6884 45.5671H49.2909Z" fill="#C39B54"/>
                <path d="M44.0255 32.7524C44.0255 32.2349 44.4497 31.8102 44.9672 31.8102C45.4847 31.8102 45.8958 32.2349 45.8958 32.7524V55.1844C45.8958 55.7019 45.4842 56.1261 44.9672 56.1261H15.0399C14.5224 56.1261 14.1113 55.7019 14.1113 55.1844V14.181C14.1113 13.385 14.4563 12.6683 15.0136 12.1513C15.5442 11.6469 16.2872 11.3286 17.0963 11.3286H31.8605C32.378 11.3286 32.7891 11.7528 32.7891 12.2708C32.7891 12.7883 32.3775 13.2125 31.8605 13.2125H17.0963C16.7644 13.2125 16.486 13.3189 16.2741 13.5177C16.0885 13.6897 15.982 13.9288 15.982 14.181V54.2553H44.026L44.0255 32.7524Z" fill="#C39B54"/>
            </g>
        </symbol>
    </defs>
</svg>
