<?xml version="1.0" standalone="no"?>
<!DOCTYPE svg PUBLIC "-//W3C//DTD SVG 20010904//EN"
 "http://www.w3.org/TR/2001/REC-SVG-20010904/DTD/svg10.dtd">
<svg version="1.0" xmlns="http://www.w3.org/2000/svg"
 width="700.000000pt" height="700.000000pt" viewBox="0 0 700.000000 700.000000"
 preserveAspectRatio="xMidYMid meet">
<metadata>
Created by potrace 1.14, written by Peter Selinger 2001-2017
</metadata>
<g transform="translate(0.000000,700.000000) scale(0.100000,-0.100000)"
fill="#000000" stroke="none">
<path d="M300 4265 l0 -2105 3200 0 3200 0 0 2105 0 2105 -3200 0 -3200 0 0
-2105z m3640 1057 c0 -5 -144 -435 -320 -957 -176 -522 -320 -951 -320 -952 0
-2 -50 -3 -111 -3 -65 0 -109 4 -107 9 2 6 147 438 323 960 l320 951 108 0
c59 0 107 -4 107 -8z m-1057 -632 c-4 -4 -230 -110 -500 -236 -271 -126 -493
-231 -493 -234 1 -3 224 -109 498 -237 l497 -231 3 -115 3 -116 -413 201
c-227 110 -509 247 -625 303 l-213 103 0 94 0 93 623 301 622 302 3 -111 c1
-61 -1 -113 -5 -117z m1912 -98 l560 -270 3 -99 3 -100 -428 -206 c-235 -113
-517 -249 -626 -301 l-198 -95 3 115 3 115 503 231 c276 128 501 236 500 240
-2 5 -229 113 -506 240 l-502 231 0 113 0 113 63 -29 c34 -16 314 -150 622
-298z"/>
<path d="M2190 1330 l0 -530 1310 0 1310 0 0 530 0 530 -1310 0 -1310 0 0
-530z"/>
</g>
</svg>
