<?xml version="1.0" encoding="UTF-8"?>
<svg version="1.1" xmlns="http://www.w3.org/2000/svg" width="256" height="256">
<path d="M0 0 C0.83323227 -0.00623996 1.66646454 -0.01247993 2.52494627 -0.01890898 C5.30944725 -0.03482937 8.09307168 -0.02223855 10.87757874 -0.00964355 C12.87693797 -0.01506514 14.8762932 -0.022188 16.87564087 -0.03088379 C22.30130204 -0.04911684 27.72665891 -0.04204926 33.15232539 -0.02936745 C38.83187475 -0.01923836 44.5113981 -0.02863301 50.19094849 -0.03491211 C59.72976863 -0.04218935 69.2684649 -0.03259935 78.80726624 -0.0135498 C89.8318198 0.00821278 100.85607739 0.00117223 111.88062376 -0.02085543 C121.34831745 -0.03901461 130.81592209 -0.041565 140.28362757 -0.03110075 C145.93722131 -0.0248679 151.59067601 -0.02402443 157.24426079 -0.0372467 C162.56066788 -0.0488118 167.87669394 -0.04076711 173.19305992 -0.01766968 C175.14292519 -0.01238589 177.09282258 -0.0138907 179.04267502 -0.02272034 C181.7071852 -0.0336726 184.37047914 -0.01991629 187.03491211 0 C187.80418295 -0.00892289 188.5734538 -0.01784577 189.36603588 -0.02703905 C194.84454655 0.05223722 198.05658431 1.39024368 202.58094788 4.50793457 C206.7667086 10.08894887 206.72990589 15.47831373 206.72621155 22.24523926 C206.72957016 23.12720474 206.73292877 24.00917023 206.73638916 24.91786194 C206.74589761 27.83852546 206.74784305 30.75913152 206.74891663 33.67980957 C206.7521322 35.72084578 206.7554965 37.76188175 206.75900269 39.80291748 C206.76499575 44.09017469 206.76684269 48.37741175 206.76625061 52.66467285 C206.76614965 58.11783575 206.77973252 63.5708665 206.79702282 69.02399826 C206.8082349 73.24691338 206.81016692 77.46979766 206.80964088 81.69272614 C206.81080985 83.7002533 206.81516962 85.70778155 206.82297325 87.71529388 C206.95530428 125.31489482 197.69371897 156.56494905 171.26844788 184.13293457 C149.13111298 205.58324873 120.82484621 216.23166717 90.22157288 215.98034668 C59.31983725 215.14547205 31.80167392 201.12805268 10.64735413 178.90637207 C-12.40550943 153.8192209 -18.91152618 122.61188717 -18.85264587 89.52746582 C-18.85721736 87.25684962 -18.86252578 84.98623481 -18.86853027 82.71562195 C-18.87739872 77.99325883 -18.87510469 73.27106547 -18.86509705 68.54870605 C-18.85352893 62.50175741 -18.87397018 56.45538599 -18.90301418 50.40851307 C-18.92134735 45.7356344 -18.92109092 41.06289545 -18.91537666 36.38998985 C-18.91522356 34.15928008 -18.92125902 31.92856078 -18.93366814 29.69788551 C-18.94854662 26.58968003 -18.93792899 23.48256108 -18.92076111 20.37438965 C-18.93042908 19.459543 -18.94009705 18.54469635 -18.95005798 17.60212708 C-18.88631432 12.09034036 -18.22581266 8.78525793 -14.41905212 4.50793457 C-9.6880578 0.65704118 -5.93319182 -0.06862099 0 0 Z M-8.41905212 11.50793457 C-10.9479912 14.91720656 -10.64940976 18.32573392 -10.61436462 22.46105957 C-10.61153473 23.12128113 -10.60870483 23.78150269 -10.60578918 24.46173096 C-10.59463627 26.56065354 -10.56954158 28.65914199 -10.54405212 30.75793457 C-10.53401596 32.18501172 -10.52489122 33.61209559 -10.51670837 35.03918457 C-10.49471323 38.52890785 -10.46021748 42.0183788 -10.41905212 45.50793457 C-9.64198914 44.72998535 -8.86492615 43.95203613 -8.0643158 43.1505127 C4.06878413 31.02973064 15.82801872 23.35253159 33.45594788 23.07043457 C45.06703383 23.15956076 55.12927062 26.80554037 64.58094788 33.50793457 C65.27833069 33.99777832 65.9757135 34.48762207 66.69422913 34.99230957 C73.03545838 39.96678844 76.67407157 46.59816663 80.58094788 53.50793457 C83.02065685 51.06822559 83.79850653 48.83121818 85.08094788 45.63293457 C86.46965303 42.18657483 87.86158283 38.80338423 89.58094788 35.50793457 C77.02150778 20.70357039 63.23377021 10.81545318 43.58094788 8.50793457 C36.63471008 8.04988497 29.67709869 8.07500447 22.71888733 8.11682129 C19.49345123 8.13306042 16.26923919 8.11681875 13.0438385 8.09777832 C10.98198679 8.09975819 8.92013584 8.10359653 6.85829163 8.10949707 C5.89994919 8.10342438 4.94160675 8.09735168 3.95422363 8.09109497 C-2.74508982 8.15105994 -2.74508982 8.15105994 -8.41905212 11.50793457 Z M70.58094788 8.50793457 C73.21170176 11.13868846 75.66692431 13.02899518 78.70594788 15.13293457 C84.23585855 19.09444182 88.93658317 23.55394555 93.58094788 28.50793457 C98.22370426 24.56171339 98.22370426 24.56171339 102.76844788 20.50402832 C107.00737476 16.6257046 111.1599889 13.28606888 116.14735413 10.41809082 C116.62044006 10.11773926 117.093526 9.8173877 117.58094788 9.50793457 C117.58094788 9.17793457 117.58094788 8.84793457 117.58094788 8.50793457 C102.07094788 8.50793457 86.56094788 8.50793457 70.58094788 8.50793457 Z M122.33094788 15.13293457 C121.66401917 15.47630859 120.99709045 15.81968262 120.30995178 16.17346191 C114.25032261 19.42979784 109.37133946 23.58145232 104.58094788 28.50793457 C103.94157288 29.13570801 103.30219788 29.76348145 102.64344788 30.41027832 C101.27234612 31.75916315 99.92321051 33.13034924 98.58094788 34.50793457 C100.08457047 38.29509615 101.63581789 42.06038645 103.20594788 45.82043457 C103.6519635 46.88906738 104.09797913 47.9577002 104.55751038 49.05871582 C104.89524475 49.86695801 105.23297913 50.6752002 105.58094788 51.50793457 C109.27949196 50.27508654 109.75016919 49.10133525 111.83094788 45.88293457 C119.31442685 34.94554222 129.28666922 26.99047005 142.47547913 23.94543457 C157.58488375 21.81681404 171.14055712 23.80237376 183.99891663 32.50012207 C188.24608445 35.80276089 191.93037597 39.56852621 195.58094788 43.50793457 C196.24094788 44.16793457 196.90094788 44.82793457 197.58094788 45.50793457 C197.68014898 41.18467424 197.75257053 36.86202434 197.80067444 32.53796387 C197.82073612 31.06844536 197.84799266 29.59900616 197.88270569 28.12976074 C197.93146929 26.0121297 197.95396949 23.8955577 197.97157288 21.77746582 C197.99252014 20.50491943 198.01346741 19.23237305 198.03504944 17.92126465 C197.50414324 13.93061969 196.39166301 12.32877664 193.58094788 9.50793457 C191.249797 8.34235913 189.85873676 8.36929774 187.26161194 8.34680176 C186.36597534 8.33719421 185.47033875 8.32758667 184.54756165 8.31768799 C183.57373535 8.31343811 182.59990906 8.30918823 181.59657288 8.30480957 C180.58939209 8.2991095 179.5822113 8.29340942 178.54450989 8.28753662 C176.40253248 8.27807073 174.2605404 8.27154636 172.11854553 8.2677002 C168.8856888 8.25809718 165.65349621 8.22713261 162.42079163 8.19543457 C148.37992673 8.12133205 135.03637227 8.39700003 122.33094788 15.13293457 Z M-0.56358337 46.17199707 C-9.15055087 56.9825372 -11.5683593 69.03230796 -10.41905212 82.50793457 C-7.99669316 94.75736342 -2.0893868 104.60189503 7.58094788 112.50793457 C17.70928084 119.17636985 27.43252962 121.9692122 39.58094788 120.50793457 C43.95673656 119.30033264 48.27186509 117.93392709 52.58094788 116.50793457 C52.70823828 109.96110917 52.79550379 103.41460555 52.85560608 96.86682129 C52.88067395 94.64176508 52.91473731 92.41679059 52.95814514 90.1920166 C53.01913596 86.98461692 53.04723572 83.7783105 53.06922913 80.57043457 C53.10793877 79.09026855 53.10793877 79.09026855 53.14743042 77.5802002 C53.15009575 70.943465 51.84432298 66.65028753 47.58094788 61.50793457 C43.27466235 57.41696332 39.66892337 55.71330921 33.76844788 55.13293457 C28.22655096 55.31035877 23.92140411 57.41602236 19.81532288 61.08605957 C15.76820105 65.44752095 13.62834902 69.64135578 13.55360413 75.73840332 C13.99707921 82.52698342 16.45670389 86.38369058 21.26844788 91.19543457 C24.91873982 94.10440758 29.13298257 95.29215739 33.58094788 96.50793457 C33.91094788 98.48793457 34.24094788 100.46793457 34.58094788 102.50793457 C26.67862189 102.14208614 20.86812119 100.34685698 14.83094788 95.13293457 C7.52327804 86.60731976 6.76916642 79.36134149 7.58094788 68.50793457 C8.47686576 65.16565024 9.74863235 62.43197817 11.58094788 59.50793457 C12.13782288 58.60043457 12.69469788 57.69293457 13.26844788 56.75793457 C18.80889674 51.36722757 25.51410747 48.43345569 33.20594788 48.19543457 C40.61776205 48.30459236 46.92910316 50.64816844 52.45594788 55.63293457 C59.45516448 63.64429275 60.16994134 72.49418226 60.12684631 82.76037598 C60.13718399 84.04930756 60.14752167 85.33823914 60.15817261 86.66622925 C60.18583159 90.16974463 60.1894418 93.6729055 60.18845272 97.17651415 C60.1915993 100.84943447 60.21725348 104.52219916 60.24043274 108.19503784 C60.28086351 115.13623244 60.30130288 122.0773334 60.31440663 129.01862752 C60.3303207 136.92689411 60.36875465 144.83500234 60.40899992 152.7431767 C60.49122182 168.99805441 60.54462554 185.25288872 60.58094788 201.50793457 C66.19094788 202.82793457 71.80094788 204.14793457 77.58094788 205.50793457 C77.67379286 188.0002862 77.74505324 170.4927371 77.78819656 152.98489857 C77.80876681 144.85455219 77.83678057 136.72436218 77.88270569 128.59411621 C77.92274406 121.50259863 77.94842087 114.41119439 77.95730186 107.31956691 C77.96248806 103.5692587 77.97455972 99.81927452 78.0038681 96.06907082 C78.03130712 92.52890518 78.03933646 88.98919263 78.0333786 85.44893074 C78.03497931 83.55127257 78.05635148 81.65366212 78.07862854 79.75613403 C78.01603837 66.52708233 74.44294259 53.92791156 65.32313538 44.06652832 C55.36704692 34.59419964 44.5150957 29.91835583 30.79969788 30.19543457 C18.21659651 31.4170949 8.07965619 37.16646602 -0.56358337 46.17199707 Z M120.62391663 45.94543457 C113.87306738 54.41303898 110.4236046 64.37239882 110.16908264 75.13098145 C110.14983923 75.86781158 110.13059582 76.60464172 110.11076927 77.36380005 C110.05032468 79.81798024 110.00446165 82.27216864 109.95985413 84.72668457 C109.92183575 86.49251525 109.88371141 88.25834364 109.8454895 90.02416992 C109.40453509 111.90785788 109.46718491 133.79664426 109.51228333 155.68359375 C109.52275526 161.33076585 109.52713049 166.97794294 109.53211975 172.62512207 C109.54265166 183.58607406 109.56014488 194.54699727 109.58094788 205.50793457 C117.99594788 203.52793457 117.99594788 203.52793457 126.58094788 201.50793457 C126.58681412 199.91401886 126.59268036 198.32010315 126.59872437 196.67788696 C126.65599053 181.64099414 126.72859718 166.60426335 126.81666279 151.56752205 C126.86154507 143.83738701 126.90097698 136.10729726 126.92738342 128.3770752 C126.95042503 121.63598745 126.9838913 114.89504394 127.02964944 108.15407073 C127.05349903 104.58786211 127.0722817 101.02179562 127.07856178 97.45550919 C127.08578467 93.46512931 127.11629077 89.47524126 127.14857483 85.48498535 C127.14713974 84.31469284 127.14570465 83.14440033 127.14422607 81.93864441 C127.26581657 71.27925957 129.06997211 62.42193831 136.58094788 54.50793457 C143.13899069 49.20568719 150.32439895 47.6475883 158.58094788 48.50793457 C165.66272784 49.83501429 170.84109986 53.10322099 175.58094788 58.50793457 C180.47463298 66.0889034 181.74936191 74.0012619 180.15516663 82.87902832 C178.24749682 89.63194535 174.4024317 94.81499485 168.66297913 98.85949707 C163.82215086 101.54562533 159.06297095 102.25413721 153.58094788 102.50793457 C153.25094788 100.85793457 152.92094788 99.20793457 152.58094788 97.50793457 C153.21001038 97.30039551 153.83907288 97.09285645 154.48719788 96.87902832 C162.19989075 94.1029235 167.79671612 90.42326047 172.58094788 83.69543457 C174.43499844 77.78564841 174.56010982 72.00959029 172.08094788 66.25793457 C169.35435422 61.45718217 164.84036746 57.53624094 159.53797913 55.86340332 C152.21642812 54.53354076 146.90170217 56.24378391 140.83094788 60.38293457 C136.79690502 64.19286394 134.76419277 68.17171956 134.46069336 73.69732666 C134.46291397 74.48786438 134.46513458 75.2784021 134.46742249 76.09289551 C134.46753578 77.44384308 134.46753578 77.44384308 134.46765137 78.82208252 C134.47281265 79.78575745 134.47797394 80.74943237 134.48329163 81.74230957 C134.48541405 83.23205292 134.48541405 83.23205292 134.48757935 84.75189209 C134.493172 87.92060369 134.50572318 91.08924436 134.51844788 94.25793457 C134.52346382 96.40767313 134.52802657 98.5574128 134.53211975 100.70715332 C134.54313902 105.97410456 134.55986987 111.2410145 134.58094788 116.50793457 C136.60934269 117.17295722 138.64132107 117.82705436 140.67469788 118.47668457 C142.37142639 119.0248584 142.37142639 119.0248584 144.10243225 119.58410645 C155.14483904 122.51676136 166.39781031 120.43525908 176.33876038 115.00012207 C187.09331281 107.92908606 194.80926069 98.24152134 197.58094788 85.50793457 C198.87747741 71.50049204 197.74422447 59.21178686 189.20594788 47.57043457 C181.79609872 38.85390233 172.21306927 31.95942979 160.58094788 30.50793457 C144.45200131 29.34548797 131.84471537 34.18842066 120.62391663 45.94543457 Z M93.58094788 42.50793457 C92.7956663 44.23058783 92.0288069 45.96163656 91.26844788 47.69543457 C90.83919006 48.65836426 90.40993225 49.62129395 89.96766663 50.61340332 C86.06073603 60.7947841 85.1473002 70.93120278 85.2403717 81.74353027 C85.24122051 83.11488832 85.24073791 84.48624772 85.23904419 85.85760498 C85.23819266 89.53659316 85.25567956 93.21528058 85.27676606 96.89419961 C85.29567553 100.75518993 85.29729443 104.61618914 85.30084229 108.47721863 C85.31012124 115.76899897 85.33467802 123.06064242 85.36489075 130.35236281 C85.39856496 138.66203938 85.41495332 146.97172291 85.42997706 155.28145087 C85.46123192 172.35702652 85.51452354 189.43246076 85.58094788 206.50793457 C91.19094788 206.50793457 96.80094788 206.50793457 102.58094788 206.50793457 C102.65062645 188.90443049 102.70404972 171.30098215 102.73638439 153.69737148 C102.75180219 145.52228007 102.77279341 137.34727632 102.80726624 129.17224121 C102.83732546 122.04041911 102.85655977 114.90866055 102.86321336 107.77677685 C102.86709788 104.00634673 102.87611853 100.23609829 102.89813805 96.46572685 C102.91876554 92.90426728 102.92472978 89.34306119 102.92027092 85.78154755 C102.92146741 83.8771437 102.9374702 81.97276634 102.95420837 80.06843567 C102.90714316 66.67743418 100.31181134 54.67186216 94.58094788 42.50793457 C94.25094788 42.50793457 93.92094788 42.50793457 93.58094788 42.50793457 Z M-10.41905212 105.50793457 C-8.09732109 133.19544343 2.06514416 159.02135177 22.58094788 178.50793457 C24.89094788 180.15793457 27.20094788 181.80793457 29.58094788 183.50793457 C29.58094788 165.35793457 29.58094788 147.20793457 29.58094788 128.50793457 C24.63094788 127.18793457 19.68094788 125.86793457 14.58094788 124.50793457 C4.51419468 119.85341427 -2.67066384 113.30927312 -10.41905212 105.50793457 Z M196.58094788 105.50793457 C195.77489698 106.6647099 194.98698328 107.83412414 194.20594788 109.00793457 C185.21522456 121.10259809 171.79113674 125.6658968 157.58094788 128.50793457 C157.58094788 146.65793457 157.58094788 164.80793457 157.58094788 183.50793457 C179.48880873 168.902694 191.27750119 144.12917599 196.89344788 119.07043457 C197.72116633 114.5141152 197.73003386 110.12960007 197.58094788 105.50793457 C197.25094788 105.50793457 196.92094788 105.50793457 196.58094788 105.50793457 Z M43.39344788 127.00793457 C42.30676819 127.28637207 41.2200885 127.56480957 40.10047913 127.85168457 C39.26903381 128.06824707 38.4375885 128.28480957 37.58094788 128.50793457 C37.37203224 136.35724603 37.21231592 144.20590186 37.11463833 152.05729866 C37.06774469 155.70362943 37.00420133 159.34805317 36.9019928 162.99328613 C36.80389168 166.5142359 36.75033136 170.03335746 36.72705269 173.5555687 C36.70242915 175.54690716 36.63221219 177.53751343 36.5612793 179.52774048 C36.3964986 186.11251724 36.3964986 186.11251724 39.46867371 191.63238525 C43.25906021 194.24196951 47.30907033 195.84177419 51.58094788 197.50793457 C52.90302514 196.41128752 52.90302514 196.41128752 52.70120239 193.69224548 C52.69898178 192.43315872 52.69676117 191.17407196 52.69447327 189.87683105 C52.69461929 189.18418152 52.69476532 188.49153198 52.69491577 187.77789307 C52.69421662 185.47824011 52.68642416 183.1786672 52.67860413 180.87902832 C52.67673995 179.28862045 52.67531605 177.698212 52.67431641 176.10780334 C52.67049116 171.91397527 52.66066083 167.72018162 52.64961243 163.52636719 C52.63939844 159.25004543 52.63481881 154.97371813 52.629776 150.6973877 C52.61903856 142.30088749 52.60196207 133.90441531 52.58094788 125.50793457 C49.26550488 125.50793457 46.60093399 126.18019622 43.39344788 127.00793457 Z M134.58094788 125.50793457 C134.58094788 148.93793457 134.58094788 172.36793457 134.58094788 196.50793457 C135.24094788 196.83793457 135.90094788 197.16793457 136.58094788 197.50793457 C141.20094788 194.86793457 145.82094788 192.22793457 150.58094788 189.50793457 C150.58094788 169.70793457 150.58094788 149.90793457 150.58094788 129.50793457 C142.02816147 126.35886337 142.02816147 126.35886337 134.58094788 125.50793457 Z " fill="#C29A53" transform="translate(32.41905212402344,19.4920654296875)"/>
</svg>
