<svg xmlns="http://www.w3.org/2000/svg" viewBox="0 0 220.14 156.19"><defs><style>.cls-1{fill:#7e7f81;}</style></defs><g id="Layer_2" data-name="Layer 2"><g id="Layer_1-2" data-name="Layer 1"><path class="cls-1" d="M62.2,69c0,.74,0,1.28,0,1l0-.37c0-.19,0-.39,0-.58Zm99.08-6h0V56l0-.46,0-.48V29.35a6.11,6.11,0,0,0-6.11-6.11H68.34a6.17,6.17,0,0,0-6.17,6.17V69h0c0-.76,0-1.73,0-2.2,0,.74,0,1.47.06,2.2h.06l0,.58a49.59,49.59,0,0,0,99.09-3c0-.89,0-1.77-.08-2.64ZM123.36,26.37,120.58,28a32.1,32.1,0,0,0-8,6.83l-.69.81-.69-.81a32.28,32.28,0,0,0-8-6.83l-2.78-1.67Zm-58,39.8v0M83.48,103,82,101.75A46.28,46.28,0,0,1,65.47,69.08l.06-1.36L67,69.64a22.94,22.94,0,0,0,15.64,8.68l.81.08Zm10.39,4.6a.9.9,0,0,1-1.27.82,46.07,46.07,0,0,1-5.62-3,.91.91,0,0,1-.42-.76V79.2a.91.91,0,0,1,.81-.9h0a22.92,22.92,0,0,0,5.36-1.23.85.85,0,0,1,1.14.8Zm10.9,4.44-1.06-.19a46.47,46.47,0,0,1-6.13-1.5l-.63-.2V55.79a12.17,12.17,0,0,0-9.51-11.9A12,12,0,0,0,73.23,57.41a12.2,12.2,0,0,0,10.13,10l.48.08.07,0,.07,0a1.54,1.54,0,0,0,0-3.08h0a8.87,8.87,0,0,1-7.52-10.9,9.65,9.65,0,0,1,7.43-6.67,8.81,8.81,0,0,1,10,7.69h.07V73.17l-.52.25A19.35,19.35,0,0,1,85,75.3,19.77,19.77,0,0,1,65.37,56.92V54.18a19.71,19.71,0,0,1,39.37.81h0V67.54l0,0Zm1.4-65.34-1-1.8A22.82,22.82,0,0,0,67,41.59l-1.61,2.08V30.76a4.39,4.39,0,0,1,4.39-4.39H86.61a29,29,0,0,1,23.07,11.39l.38.49-.32.53a31.23,31.23,0,0,0-2.88,6Zm9.52,7.79c0,.37,0,.73,0,1.1l0,.59v56.21l-.84.06c-1,.06-2,.11-3.07.11s-2,0-3-.11l-.85-.06V56l0-.63A29,29,0,0,1,111,42.47l.81-1.59.8,1.59a28.94,28.94,0,0,1,3.06,11.66ZM137,104.56a1,1,0,0,1-.46.83h0a46.69,46.69,0,0,1-5.57,3h0a.91.91,0,0,1-1.28-.82V77.87a.86.86,0,0,1,1.15-.8h0a22.84,22.84,0,0,0,5.35,1.23h0a.91.91,0,0,1,.81.9Zm4.56-2.83L140,103V78.4l.81-.08a23,23,0,0,0,15.63-8.65l1.5-1.92s.15-.56.13,0a46.27,46.27,0,0,1-16.59,34m16.61-44.25A19.63,19.63,0,0,1,138.49,75.3a19.35,19.35,0,0,1-8.33-1.88l-.52-.25V54.49h.06a8.73,8.73,0,1,1,9.79,9.88l-.2,0a.61.61,0,0,0-.13,0,1.54,1.54,0,0,0,0,3.08,1.3,1.3,0,0,0,.21,0,.41.41,0,0,0,.18,0q.3,0,.6-.09a12.22,12.22,0,0,0,10.13-9.94,12,12,0,0,0-14.17-13.54,12.18,12.18,0,0,0-9.56,11.78v54.47l-.62.2a47.45,47.45,0,0,1-6.14,1.51l-1.06.18V70l0-.72V56.18C118.77,46,126.29,37,136.46,36a19.66,19.66,0,0,1,21.66,17.8Zm0-13.86-1.61-2.06a22.78,22.78,0,0,0-22.43-8.42,23.35,23.35,0,0,0-15.94,12h0a.66.66,0,0,1-1.19-.09l-.19-.52a32,32,0,0,0-2.81-5.8l-.31-.51.38-.49a29,29,0,0,1,23.07-11.39h16.82a4.2,4.2,0,0,1,4.21,4.21Z"/><path class="cls-1" d="M66.31,6.84,63,2.16h2.42l2.8,4.07V7.47l-3.56,4.76h-2.5Zm4.38,5.39h-2V2.16h2ZM76.45,2.16,73.1,6.84l4.17,5.39H74.78L71.23,7.47V6.23L74,2.16Z"/><polygon class="cls-1" points="78.24 12.23 78.24 2.16 80.23 2.16 80.23 8.68 85.7 2.15 86.95 2.15 86.95 12.23 84.97 12.23 84.97 5.72 79.51 12.23 78.24 12.23"/><polygon class="cls-1" points="93.12 5.21 90.25 12.23 88.05 12.23 92.49 2.15 93.75 2.15 98.2 12.23 95.99 12.23 93.12 5.21"/><path class="cls-1" d="M101.52,2.39a5.26,5.26,0,0,1,2-.41,5.19,5.19,0,0,1,2,.41,5.42,5.42,0,0,1,1.67,1.11,5.31,5.31,0,0,1,1.11,1.66,5,5,0,0,1,.41,2,5.17,5.17,0,0,1-.26,1.65,4.91,4.91,0,0,1-.74,1.44,6,6,0,0,1-1.13,1.12,5.19,5.19,0,0,1-1.44.75,5.37,5.37,0,0,1-1.65.26,5.31,5.31,0,0,1-1.64-.26,5.19,5.19,0,0,1-1.44-.75,5.71,5.71,0,0,1-1.13-1.12,4.91,4.91,0,0,1-.74-1.44,5.19,5.19,0,0,1-.27-1.65,5,5,0,0,1,.42-2A5.15,5.15,0,0,1,99.86,3.5a5.37,5.37,0,0,1,1.66-1.11m-.25,7.26a3,3,0,0,0,4.56,0,3.45,3.45,0,0,0,1-2.46,3.57,3.57,0,0,0-.43-1.75,3.29,3.29,0,0,0-1.18-1.27,3,3,0,0,0-1.62-.46,3,3,0,0,0-1.62.46,3.34,3.34,0,0,0-1.17,1.27,3.57,3.57,0,0,0-.43,1.75,3.49,3.49,0,0,0,.94,2.46"/><path class="cls-1" d="M110.63,2.16h2V8.67l5.47-6.52h1.25V12.23h-2V5.72l-5.46,6.51h-1.27ZM116.49.22,117,0V1.7l-.21.1a4.25,4.25,0,0,1-1.69.33,4.21,4.21,0,0,1-1.71-.33l-.2-.1V0l.48.21a3.9,3.9,0,0,0,1.43.27,3.65,3.65,0,0,0,1.41-.26"/><path class="cls-1" d="M134,2.16l3.68,8.34h1.21v3h-2V12.22h-7.07v1.32h-2v-3H129l3.68-8.34Zm-.63,3.05-2.16,5.29h4.33Z"/><path class="cls-1" d="M141.84,2.39a5.26,5.26,0,0,1,2-.41,5.19,5.19,0,0,1,2,.41,5.42,5.42,0,0,1,1.67,1.11,5.49,5.49,0,0,1,1.11,1.66,5.19,5.19,0,0,1,.41,2,5.47,5.47,0,0,1-.26,1.65,4.91,4.91,0,0,1-.74,1.44A6,6,0,0,1,147,11.4a5.19,5.19,0,0,1-1.44.75,5.37,5.37,0,0,1-1.65.26,5.31,5.31,0,0,1-1.64-.26,5.19,5.19,0,0,1-1.44-.75,5.71,5.71,0,0,1-1.13-1.12,5.19,5.19,0,0,1-.75-1.44,5.47,5.47,0,0,1-.26-1.65,5,5,0,0,1,.42-2,5.15,5.15,0,0,1,1.11-1.66,5.37,5.37,0,0,1,1.66-1.11m-.25,7.26a3,3,0,0,0,4.56,0,3.5,3.5,0,0,0,.95-2.46,3.57,3.57,0,0,0-.43-1.75,3.29,3.29,0,0,0-1.18-1.27,3,3,0,0,0-1.62-.46,3,3,0,0,0-1.62.46,3.34,3.34,0,0,0-1.17,1.27,3.57,3.57,0,0,0-.43,1.75,3.49,3.49,0,0,0,.94,2.46"/><polygon class="cls-1" points="159.96 2.16 161.25 2.16 161.25 12.23 159.26 12.23 159.26 7.2 156.82 12.23 155.37 12.23 152.94 7.2 152.94 12.23 150.95 12.23 150.95 2.16 152.24 2.16 156.1 9.78 159.96 2.16"/><polygon class="cls-1" points="10.64 140.65 10.64 135.46 14.31 135.46 14.31 150.14 10.64 150.14 10.64 143.86 3.66 143.86 3.66 150.14 0 150.14 0 135.46 3.66 135.46 3.66 140.65 10.64 140.65"/><path class="cls-1" d="M30,137.49v-2h3.66v14.68H30v-2.06a6.26,6.26,0,0,1-2,1.77,5.53,5.53,0,0,1-2.74.67,7.77,7.77,0,0,1-6.72-11.65A7.68,7.68,0,0,1,25.27,135a5.49,5.49,0,0,1,2.78.72,6.07,6.07,0,0,1,2,1.76m-4.76,9.82A3.77,3.77,0,0,0,28.16,146a4.88,4.88,0,0,0,0-6.43,3.77,3.77,0,0,0-2.89-1.33,3.83,3.83,0,0,0-2.92,1.32,4.92,4.92,0,0,0,0,6.44,3.8,3.8,0,0,0,2.92,1.33"/><path class="cls-1" d="M61.59,137a6.67,6.67,0,0,1-.52,2.68,5.09,5.09,0,0,1-1.45,1.92,7.06,7.06,0,0,1-2.11,1.16,10,10,0,0,1-2.61.49H51.4v6.94H47.52V130.51h7.17a8,8,0,0,1,3.52.76,6,6,0,0,1,2.46,2.23,6.44,6.44,0,0,1,.92,3.45M51.4,139.81H54a5.31,5.31,0,0,0,1.73-.25,2.91,2.91,0,0,0,1.09-.58,2.28,2.28,0,0,0,.58-.79,3,3,0,0,0,.25-.73,3.81,3.81,0,0,0,.05-.59,3.92,3.92,0,0,0-.05-.59,3,3,0,0,0-.25-.76,2.42,2.42,0,0,0-.58-.8,3.06,3.06,0,0,0-1.09-.59,5.31,5.31,0,0,0-1.73-.25H51.4Z"/><path class="cls-1" d="M66.78,136.09a7.76,7.76,0,0,1,10.61,10.59,7.54,7.54,0,0,1-2.83,2.83,7.76,7.76,0,1,1-7.78-13.42m3.89,11.25a3.79,3.79,0,0,0,2.9-1.34,4.89,4.89,0,0,0,0-6.42,3.83,3.83,0,0,0-5.79,0,4.92,4.92,0,0,0,0,6.44,3.77,3.77,0,0,0,2.89,1.33"/><path class="cls-1" d="M92.84,137.38v-2h3.63V148.3h0a8.51,8.51,0,0,1-1.29,4.31,7.18,7.18,0,0,1-3.11,2.69,10.91,10.91,0,0,1-7.74.34,8.9,8.9,0,0,1-2.9-1.57v-4.25a8.86,8.86,0,0,0,.94,1,9.87,9.87,0,0,0,1.28,1,6.7,6.7,0,0,0,1.81.83,7.74,7.74,0,0,0,2.17.3,5.14,5.14,0,0,0,3.75-1.32A5.23,5.23,0,0,0,92.82,148a6.17,6.17,0,0,1-2,1.77,5.53,5.53,0,0,1-2.8.72,7.76,7.76,0,1,1,0-15.52,5.64,5.64,0,0,1,2.74.67,6.32,6.32,0,0,1,2,1.76m-4.79,9.88A3.77,3.77,0,0,0,91,145.93a4.94,4.94,0,0,0,0-6.44,3.8,3.8,0,0,0-5.79,0,4.92,4.92,0,0,0,0,6.44,3.73,3.73,0,0,0,2.89,1.33"/><polygon class="cls-1" points="111.4 140.65 111.4 135.46 115.07 135.46 115.07 150.14 111.4 150.14 111.4 143.86 104.41 143.86 104.41 150.14 100.75 150.14 100.75 135.46 104.41 135.46 104.41 140.65 111.4 140.65"/><path class="cls-1" d="M125.94,150.52a7.48,7.48,0,0,1-2.52-.4,5.45,5.45,0,0,1-1.88-1.07,6.37,6.37,0,0,1-1.26-1.6,7.24,7.24,0,0,1-.73-1.94,9.86,9.86,0,0,1-.22-2.13v-8H123v7.89a4.45,4.45,0,0,0,.93,3,3.14,3.14,0,0,0,2.54,1.1,3.2,3.2,0,0,0,2.52-1.12,4.28,4.28,0,0,0,1-2.94v-7.89h3.67v14.71H130v-1.45a7.32,7.32,0,0,1-.68.61,6.8,6.8,0,0,1-.83.58,3.9,3.9,0,0,1-1.16.49,5.45,5.45,0,0,1-1.36.17"/><path class="cls-1" d="M141.81,150.14h-3.63V129.5h3.63Zm10.31-14.68-5.92,6.31,7.25,8.37h-4.8L142.6,143v-2.46l4.57-5Z"/><path class="cls-1" d="M157.18,136.09a7.76,7.76,0,0,1,10.61,10.59,7.54,7.54,0,0,1-2.83,2.83,7.76,7.76,0,1,1-7.78-13.42m3.89,11.25A3.79,3.79,0,0,0,164,146a4.89,4.89,0,0,0,0-6.42,3.83,3.83,0,0,0-5.79,0,4.92,4.92,0,0,0,0,6.44,3.77,3.77,0,0,0,2.89,1.33"/><path class="cls-1" d="M181.4,138.45q.48.13.9.3a6.73,6.73,0,0,1,1,.59,4.59,4.59,0,0,1,1.08,1,5.15,5.15,0,0,1,.76,1.47,6.22,6.22,0,0,1,.33,2.08,6.47,6.47,0,0,1-3.42,5.79,7.22,7.22,0,0,1-3.45.85,8.53,8.53,0,0,1-2.11-.26,6.76,6.76,0,0,1-1.88-.79,5.91,5.91,0,0,1-1.51-1.3,5.84,5.84,0,0,1-1-1.88,7.71,7.71,0,0,1-.37-2.41v-8.93a6.54,6.54,0,0,1,.36-2.24,4.55,4.55,0,0,1,.94-1.65,5.36,5.36,0,0,1,1.37-1.08,6.4,6.4,0,0,1,1.62-.61,8.19,8.19,0,0,1,1.73-.18,6.55,6.55,0,0,1,2.94.68,5.68,5.68,0,0,1,2.23,2,5.06,5.06,0,0,1,.86,2.88,4.36,4.36,0,0,1-2.41,3.74m-2.75,8.89a3.12,3.12,0,0,0,2.24-.93,3.25,3.25,0,0,0,1-2.47,2.94,2.94,0,0,0-.61-1.82,3.63,3.63,0,0,0-1.52-1.17,4.93,4.93,0,0,0-1.91-.38h-1.38v-3.21h.92a3,3,0,0,0,1.94-.68,2.21,2.21,0,0,0,.84-1.8,2.57,2.57,0,0,0-.67-1.77,2.18,2.18,0,0,0-1.68-.75,2.4,2.4,0,0,0-1.63.63,2.19,2.19,0,0,0-.72,1.74v9.34a3,3,0,0,0,1,2.46,3.37,3.37,0,0,0,2.26.81"/><path class="cls-1" d="M191.24,136.09a7.88,7.88,0,0,1,7.79,0,7.78,7.78,0,0,1,2.83,2.81,7.76,7.76,0,1,1-13.44,7.78,7.8,7.8,0,0,1,0-7.78,7.68,7.68,0,0,1,2.82-2.81m3.89,11.25A3.79,3.79,0,0,0,198,146a4.86,4.86,0,0,0,0-6.42,3.83,3.83,0,0,0-5.79,0,5,5,0,0,0,0,6.44,3.77,3.77,0,0,0,2.89,1.33"/><path class="cls-1" d="M212.43,150.57a7.64,7.64,0,0,1-2.51-.39,5.79,5.79,0,0,1-1.88-1.07,6.19,6.19,0,0,1-1.26-1.6,6.92,6.92,0,0,1-.73-2,10,10,0,0,1-.23-2.15v-8h3.68v7.91a4.39,4.39,0,0,0,.93,2.94,3.43,3.43,0,0,0,5,0,4.23,4.23,0,0,0,1-2.92v-7.91h3.67v14.7h-3.67v-1.42a8.42,8.42,0,0,1-.69.61,6.23,6.23,0,0,1-.82.57,4.19,4.19,0,0,1-1.16.5,5.09,5.09,0,0,1-1.37.17m3.32-19.77.94-.34v2.91l-.4.19a9.26,9.26,0,0,1-6.61,0l-.39-.19v-3l1,.39a7.15,7.15,0,0,0,2.76.54,7.32,7.32,0,0,0,2.75-.54"/></g></g></svg>