<svg aria-hidden="true" style="position: absolute; width: 0; height: 0; overflow: hidden;" xmlns:xlink="http://www.w3.org/1999/xlink">
	<symbol viewBox="0 0 14 14" id="icon__check">
        <path d="M12.25 0.25H1.75C0.92125 0.25 0.25 0.92125 0.25 1.75V12.25C0.25 13.0787 0.92125 13.75 1.75 13.75H12.25C13.0787 13.75 13.75 13.0787 13.75 12.25V1.75C13.75 0.92125 13.0787 0.25 12.25 0.25ZM5.5 10.75L1.75 7L2.81125 5.93875L5.5 8.6275L11.1887 2.93875L12.25 4L5.5 10.75Z" fill="#C39B54"/>
    </symbol>
	<symbol viewBox="0 0 20 20" fill="none" id="icon__phone">
        <path d="M18.5732 4.96901C17.0594 11.7192 11.7664 17.034 5.04137 18.558C2.88687 19.0463 1.07303 17.2091 1.07303 15V13.25C1.07303 12.6977 1.52164 12.2547 2.07178 12.206C3.15623 12.1099 4.19633 11.8589 5.16997 11.4751L6.87325 13.1843C9.64355 11.854 11.8895 9.60029 13.2152 6.82037L11.5119 5.11118C11.8947 4.13313 12.145 3.08824 12.2405 1.99877C12.2888 1.4486 12.7318 1 13.2841 1H15.0107C17.2199 1 19.0567 2.81342 18.5732 4.96901Z" stroke-linecap="round" stroke-linejoin="round"/>
    </symbol>
	<symbol viewBox="0 0 26 26" id="icon__close"><rect x="1.405" width="34.782" height="1.988" rx=".994" transform="rotate(45 1.405 0)"/>
		<rect width="34.782" height="1.988" rx=".994" transform="scale(-1 1) rotate(45 -12.297 -29.688)"/>
	</symbol>
	<symbol viewBox="0 0 152 110" fill="none" id="icon__logo-header">
		<path d="M42.982 48.5766C42.9889 49.0978 43.0027 49.4782 43.0165 49.2457L43.0303 48.9922C43.0234 48.8583 43.0096 48.7175 43.0027 48.5837H42.982V48.5766ZM111.322 44.3789H111.356V39.4557L111.37 39.1317L111.356 38.7937V20.6576C111.356 18.277 109.466 16.3471 107.135 16.3471H47.2171C44.865 16.3471 42.9544 18.2911 42.9544 20.6998V48.5766H42.9751C42.9682 48.0413 42.9613 47.3582 42.9544 47.0271C42.9544 47.5483 42.9682 48.0625 42.9958 48.5766H43.0441L43.0234 48.9851C44.0856 67.2762 58.991 81.8274 77.1588 81.8274C95.3266 81.8274 111.363 66.1564 111.363 46.9004C111.363 46.2806 111.342 45.6608 111.308 45.041V44.3719L111.322 44.3789ZM85.1667 18.5587L83.2492 19.7349C81.1248 21.0379 79.2625 22.6578 77.7037 24.5454L77.2278 25.1229L76.7519 24.5454C75.193 22.6578 73.3238 21.0379 71.2063 19.7349L69.2888 18.5587H85.1667ZM45.1685 46.5905C45.1685 46.5271 45.1685 46.5482 45.1685 46.6186V46.5905ZM57.6598 72.5163L56.6389 71.643C49.8657 65.8535 45.7824 57.5567 45.2375 48.633L45.2789 47.6681L46.3135 49.0203C48.9552 52.4645 52.8867 54.6971 57.1011 55.1338L57.6598 55.1902V72.5163ZM64.8262 75.7632C64.8262 76.221 64.3572 76.5309 63.9502 76.3408C62.6121 75.721 61.3154 75.0096 60.0739 74.1996C59.8945 74.0869 59.7911 73.8827 59.7911 73.6714V55.7607C59.7911 55.4367 60.0325 55.162 60.3498 55.1268C61.612 54.993 62.8466 54.6971 64.0468 54.2605C64.433 54.1196 64.8331 54.4084 64.8331 54.8239V75.7562L64.8262 75.7632ZM72.3444 78.8833L71.6133 78.7566C70.1717 78.503 68.7508 78.1438 67.3783 77.693L66.9506 77.5522V39.2797C66.8885 35.2862 64.2261 31.6731 60.3911 30.8913C54.7008 29.7432 49.7415 34.6382 50.583 40.4136C51.1072 44.0267 54.0455 46.8088 57.5701 47.4286C57.6805 47.4497 57.7908 47.4638 57.9012 47.4779C57.9219 47.4779 57.9357 47.4709 57.9495 47.4709C57.9701 47.4709 57.9839 47.4779 57.9977 47.4779C58.584 47.4779 59.0599 46.9919 59.0599 46.3933C59.0599 45.7946 58.584 45.3086 57.9977 45.3086C57.9908 45.3086 57.9839 45.3086 57.9701 45.3086C54.4938 44.8719 51.9142 41.4419 52.7833 37.6316C53.2937 35.4059 55.6871 33.2226 57.9081 32.9408C61.4051 32.4971 64.3779 34.9763 64.7779 38.35H64.8262V51.5136L64.4675 51.6827C62.6397 52.5631 60.7084 53.0068 58.722 53.0068C51.6245 53.0068 45.6651 47.3441 45.1685 40.0615V38.1246C45.672 30.8913 51.6245 25.2215 58.722 25.2215C65.8194 25.2215 72.103 31.2293 72.3237 38.6951V47.5413L72.3375 47.5201V78.8692L72.3444 78.8833ZM73.31 32.8704L72.6479 31.6026C69.9027 26.3132 64.5641 23.0311 58.7151 23.0311C53.8248 23.0311 49.2863 25.306 46.2721 29.2784L45.1616 30.7434V21.6577C45.1616 19.9462 46.5204 18.5657 48.1965 18.5657H59.8186C66.0815 18.5728 71.8823 21.4957 75.731 26.5879L75.9931 26.933L75.7655 27.3063C74.9585 28.6445 74.2964 30.0602 73.7791 31.5392L73.31 32.8845V32.8704ZM79.8695 38.357C79.8557 38.6106 79.835 38.8712 79.835 39.1317L79.8488 39.5473V79.1369L79.2694 79.1721C78.5659 79.2214 77.8623 79.2496 77.145 79.2496C76.4277 79.2496 75.7379 79.2144 75.0413 79.1721L74.4619 79.1369V39.4135L74.5033 38.9698C74.5309 35.8074 75.2551 32.7577 76.6622 29.8982L77.2209 28.7713L77.7727 29.8982C79.0211 32.4337 79.7315 35.1665 79.8833 38.1035L79.8626 38.357H79.8695ZM94.5334 73.6221C94.5334 73.8616 94.4162 74.0799 94.2161 74.2067C92.9815 75.0026 91.6986 75.7139 90.3674 76.3267C89.9535 76.5168 89.4914 76.214 89.4914 75.7491V54.8239C89.4914 54.4084 89.8983 54.1125 90.2777 54.2605C91.471 54.6971 92.7125 54.993 93.9678 55.1268C94.2851 55.162 94.5265 55.4367 94.5265 55.7607V73.6221H94.5334ZM97.6787 71.6289L96.6578 72.5022V55.1972L97.2165 55.1409C101.424 54.7042 105.355 52.4785 107.99 49.0485L109.025 47.6962C109.025 47.6962 109.121 47.3018 109.115 47.661C108.818 56.9439 104.686 65.6281 97.6718 71.6289M109.128 40.4629C108.459 47.6188 102.638 53.0138 95.5887 53.0138C93.5954 53.0138 91.6641 52.5701 89.8363 51.6827L89.4845 51.5136V38.357H89.5328C89.9053 35.2439 92.4573 32.8915 95.5887 32.8915C99.0443 32.8915 101.838 35.8356 101.686 39.3924C101.624 40.8644 100.962 42.2519 99.9755 43.3224C98.8788 44.5057 97.6028 45.1537 96.2854 45.3157C96.2371 45.3157 96.1957 45.3227 96.1474 45.3297C96.1129 45.3297 96.0922 45.3086 96.0578 45.3086C95.4715 45.3086 94.9955 45.7946 94.9955 46.3933C94.9955 46.9919 95.4715 47.4779 96.0578 47.4779C96.106 47.4779 96.1543 47.4568 96.2026 47.4497C96.244 47.4638 96.2854 47.492 96.3267 47.492C96.4647 47.4779 96.5957 47.4568 96.7406 47.4286C100.258 46.8088 103.197 44.0268 103.728 40.4207C104.576 34.6523 99.6375 29.7573 93.9609 30.8842C90.1398 31.6378 87.4705 35.2087 87.367 39.1811V77.5451L86.9324 77.686C85.5737 78.1297 84.1459 78.4889 82.6974 78.7495L81.9732 78.8763V49.2809L81.9939 48.7738V39.5473C81.9939 32.3492 87.1808 26.0104 94.1954 25.306C101.858 24.5313 108.418 30.1588 109.135 37.8429V40.4629H109.128ZM109.128 30.7011L108.018 29.2432C104.376 24.475 98.5408 22.1577 92.5401 23.3128C87.8153 24.2214 83.8424 27.4683 81.5456 31.7787C81.3593 32.1309 80.8627 32.0886 80.7248 31.7153L80.5937 31.3491C80.0833 29.9263 79.4349 28.5529 78.6555 27.264L78.4348 26.9048L78.6969 26.5597C82.5457 21.4746 88.3464 18.5516 94.6093 18.5376H106.211C107.818 18.5376 109.115 19.8617 109.115 21.5027V30.687L109.128 30.7011Z" fill="white"/>
		<path d="M45.8169 4.81057L43.5063 1.51437H45.1755L47.1068 4.38094V5.26134L44.6513 8.61388H42.9269L45.8169 4.81761V4.81057ZM48.838 8.60684H47.4723V1.51437H48.838V8.60684ZM52.8109 1.51437L50.5003 4.81057L53.3765 8.60684H51.6591L49.2036 5.25429V4.37389L51.1348 1.50733H52.804L52.8109 1.51437Z" fill="white"/>
		<path d="M54.0456 8.60684V1.51437H55.4181V6.09947L59.191 1.50028H60.0463V8.60684H58.6806V4.01469L54.9215 8.60684H54.0456Z" fill="white"/>
		<path d="M64.302 3.6555L62.3224 8.60684H60.805L63.8675 1.50028H64.7434L67.8128 8.60684H66.2885L64.302 3.6555Z" fill="white"/>
		<path d="M70.1028 1.67624C70.5511 1.47903 71.0132 1.38748 71.5029 1.38748C71.9927 1.38748 72.4548 1.48608 72.9031 1.67624C73.3514 1.86641 73.7308 2.13405 74.055 2.45803C74.3723 2.78202 74.6275 3.17644 74.8206 3.6272C75.0068 4.07796 75.1034 4.5569 75.1034 5.04992C75.1034 5.45138 75.0413 5.83875 74.9241 6.21204C74.8068 6.58532 74.6344 6.9234 74.4137 7.22625C74.1929 7.52911 73.9308 7.7897 73.6342 8.01508C73.3377 8.24047 73.0066 8.41654 72.641 8.54332C72.2755 8.6701 71.8961 8.72645 71.5029 8.72645C71.1098 8.72645 70.7304 8.66305 70.3649 8.54332C69.9993 8.41654 69.6682 8.24047 69.3716 8.01508C69.0751 7.7897 68.8129 7.52207 68.5922 7.22625C68.3715 6.9234 68.1991 6.58532 68.0818 6.21204C67.9577 5.83875 67.9025 5.45138 67.9025 5.04992C67.9025 4.54986 67.999 4.07796 68.1853 3.6272C68.3715 3.17644 68.6267 2.78202 68.9509 2.45803C69.2751 2.13405 69.6544 1.86641 70.1028 1.67624ZM69.9303 6.78958C70.3649 7.27556 70.8891 7.51503 71.5029 7.51503C72.1168 7.51503 72.641 7.27556 73.0756 6.78958C73.5101 6.31065 73.7308 5.72606 73.7308 5.04992C73.7308 4.6062 73.6343 4.1977 73.4342 3.81737C73.2342 3.44408 72.9652 3.14123 72.6272 2.92993C72.2893 2.7116 71.9168 2.60594 71.5098 2.60594C71.1029 2.60594 70.7304 2.7116 70.3925 2.92993C70.0545 3.14827 69.7786 3.44408 69.5855 3.81737C69.3854 4.1977 69.2889 4.6062 69.2889 5.04992C69.2889 5.72606 69.5096 6.31065 69.9441 6.78958" fill="white"/>
		<path d="M76.3864 1.51427H77.7589V6.09938L81.5318 1.50019H82.394V8.59969H81.0283V4.0146L77.2692 8.59969H76.3932V1.50724L76.3864 1.51427ZM80.4282 0.1479L80.7593 0.0140893V1.19733L80.6145 1.26777C80.2627 1.42272 79.8765 1.50019 79.4488 1.50019C79.0212 1.50019 78.6142 1.42272 78.2762 1.26777L78.1383 1.19733V0L78.4694 0.1479C78.7867 0.274677 79.1177 0.345108 79.4557 0.345108C79.7937 0.345108 80.1317 0.281723 80.4351 0.16199" fill="white"/>
		<path d="M92.4849 1.51438L95.0232 7.38837H95.8577V9.52246H94.4921V8.5998H89.6087V9.5295H88.2361V7.38837H89.0707L91.6089 1.51438H92.4849ZM92.0504 3.66255L90.5605 7.38837H93.5471L92.0504 3.66255Z" fill="white"/>
		<path d="M97.9132 1.67624C98.3615 1.47903 98.8236 1.38748 99.3133 1.38748C99.8031 1.38748 100.265 1.48608 100.714 1.67624C101.162 1.86641 101.541 2.13405 101.865 2.45803C102.183 2.78202 102.438 3.17644 102.631 3.6272C102.817 4.07796 102.914 4.5569 102.914 5.04992C102.914 5.45138 102.852 5.83875 102.734 6.21204C102.617 6.58532 102.445 6.9234 102.224 7.22625C102.003 7.52911 101.741 7.7897 101.445 8.01508C101.148 8.24047 100.817 8.41654 100.451 8.54332C100.086 8.6701 99.7065 8.72645 99.3133 8.72645C98.9202 8.72645 98.5408 8.66305 98.1753 8.54332C97.8097 8.41654 97.4786 8.24047 97.182 8.01508C96.8855 7.7897 96.6302 7.52207 96.4026 7.22625C96.1819 6.9234 96.0095 6.58532 95.8922 6.21204C95.7681 5.83875 95.7129 5.45138 95.7129 5.04992C95.7129 4.54986 95.8094 4.07796 95.9957 3.6272C96.1819 3.17644 96.4371 2.78202 96.7613 2.45803C97.0855 2.13405 97.4648 1.86641 97.9132 1.67624ZM97.7407 6.78958C98.1753 7.27556 98.6995 7.51503 99.3133 7.51503C99.9272 7.51503 100.451 7.27556 100.886 6.78958C101.32 6.31065 101.541 5.72606 101.541 5.04992C101.541 4.6062 101.445 4.1977 101.245 3.81737C101.045 3.44408 100.776 3.14123 100.438 2.92993C100.1 2.7116 99.7272 2.60594 99.3202 2.60594C98.9133 2.60594 98.5408 2.7116 98.2028 2.92993C97.8649 3.14827 97.589 3.44408 97.3959 3.81737C97.1958 4.1977 97.0993 4.6062 97.0993 5.04992C97.0993 5.72606 97.32 6.31065 97.7545 6.78958" fill="white"/>
		<path d="M110.411 1.51438H111.301V8.60685H109.929V5.05709L108.246 8.60685H107.245L105.569 5.05709V8.60685H104.197V1.51438H105.08L107.749 6.88128L110.411 1.51438Z" fill="white"/>
		<path d="M7.41893 99.0479V95.3995H9.9503V105.739H7.41893V101.316H2.59764V105.739H0.0800781V95.3995H2.59764V99.0479H7.41893Z" fill="white"/>
		<path d="M20.7931 96.8223V95.3925H23.3175V105.732H20.7931V104.281C20.4206 104.795 19.9585 105.211 19.3998 105.528C18.8411 105.845 18.2134 105.999 17.5099 105.999C16.5443 105.999 15.6476 105.753 14.8268 105.267C14.006 104.781 13.3576 104.112 12.8748 103.274C12.3989 102.436 12.1575 101.52 12.1575 100.534C12.1575 99.548 12.3989 98.6324 12.8748 97.7942C13.3507 96.9561 13.9991 96.287 14.8268 95.801C15.6476 95.315 16.5443 95.0685 17.5099 95.0685C18.2134 95.0685 18.8549 95.2376 19.4274 95.5756C20.0068 95.9137 20.462 96.3293 20.8 96.8152M17.5099 103.732C18.2824 103.732 18.9515 103.422 19.5033 102.795C20.062 102.168 20.3378 101.414 20.3378 100.534C20.3378 99.6536 20.062 98.9 19.5033 98.2731C18.9515 97.6463 18.2824 97.3364 17.5099 97.3364C16.7374 97.3364 16.0545 97.6463 15.5027 98.2661C14.9509 98.8859 14.6751 99.6466 14.6751 100.534C14.6751 101.421 14.9509 102.182 15.5027 102.802C16.0545 103.422 16.7236 103.739 17.5099 103.739" fill="white"/>
		<path d="M42.5614 96.449C42.5614 97.1533 42.4441 97.7802 42.2027 98.3366C41.9613 98.893 41.6302 99.3367 41.2095 99.6889C40.7887 100.041 40.299 100.309 39.7541 100.506C39.2092 100.696 38.6091 100.816 37.9539 100.851H35.5398V105.746H32.8636V91.9202H37.809C38.7126 91.9202 39.5196 92.0963 40.23 92.4555C40.9474 92.8147 41.513 93.3359 41.9337 94.0261C42.3544 94.7164 42.5683 95.5264 42.5683 96.456M35.5398 98.4704H37.34C37.7952 98.4704 38.1953 98.414 38.5264 98.2943C38.8643 98.1746 39.1127 98.0408 39.2851 97.8858C39.4506 97.7309 39.5817 97.5407 39.6782 97.3294C39.7748 97.1111 39.83 96.942 39.8507 96.8082C39.8714 96.6744 39.8852 96.5406 39.8852 96.3997C39.8852 96.2589 39.8714 96.118 39.8507 95.9841C39.83 95.8433 39.7679 95.6672 39.6782 95.4489C39.5817 95.2305 39.4506 95.0404 39.2851 94.8854C39.1196 94.7305 38.8643 94.5896 38.5264 94.4699C38.1884 94.3501 37.7952 94.2938 37.34 94.2938H35.5398V98.4704Z" fill="white"/>
		<path d="M46.1411 95.8363C46.9618 95.3503 47.8585 95.1108 48.8241 95.1108C49.7898 95.1108 50.6865 95.3503 51.5073 95.8363C52.328 96.3222 52.9833 96.9843 53.4592 97.8154C53.9351 98.6535 54.1766 99.5621 54.1766 100.555C54.1766 101.548 53.9351 102.457 53.4592 103.295C52.9833 104.133 52.3349 104.795 51.5073 105.288C50.6865 105.774 49.7898 106.021 48.8241 106.021C47.8585 106.021 46.9618 105.774 46.1411 105.288C45.3203 104.802 44.6719 104.14 44.1891 103.295C43.7131 102.457 43.4718 101.541 43.4718 100.555C43.4718 99.5691 43.7131 98.6535 44.1891 97.8154C44.665 96.9773 45.3134 96.3152 46.1411 95.8363ZM48.8241 103.753C49.5967 103.753 50.2657 103.443 50.8175 102.816C51.3693 102.189 51.6521 101.436 51.6521 100.555C51.6521 99.6748 51.3762 98.9212 50.8175 98.2943C50.2588 97.6675 49.5967 97.3576 48.8241 97.3576C48.0516 97.3576 47.3757 97.6675 46.8308 98.2873C46.279 98.9071 46.0031 99.6678 46.0031 100.555C46.0031 101.443 46.279 102.203 46.8308 102.823C47.3826 103.443 48.0447 103.753 48.8241 103.753Z" fill="white"/>
		<path d="M64.1158 96.7518V95.3432H66.6196V104.443H66.5989C66.5437 105.619 66.2471 106.633 65.7091 107.479C65.1711 108.324 64.4538 108.958 63.564 109.373C62.6743 109.789 61.6466 110 60.4947 110C59.7429 110 58.9841 109.873 58.2185 109.613C57.4529 109.352 56.7908 108.986 56.2252 108.514V105.513C56.4183 105.767 56.6321 105.999 56.8666 106.225C57.108 106.45 57.3977 106.683 57.7564 106.922C58.1082 107.162 58.522 107.359 58.9979 107.5C59.4739 107.641 59.9705 107.718 60.4947 107.718C61.5983 107.718 62.4605 107.408 63.0881 106.788C63.7089 106.169 64.0469 105.309 64.0951 104.211C63.7641 104.704 63.3088 105.119 62.7364 105.457C62.157 105.795 61.5155 105.971 60.8051 105.971C59.8394 105.971 58.9428 105.725 58.122 105.239C57.3012 104.753 56.6459 104.091 56.17 103.246C55.6941 102.407 55.4527 101.492 55.4527 100.506C55.4527 99.5198 55.6941 98.6042 56.17 97.766C56.6459 96.9279 57.3012 96.2588 58.122 95.7728C58.9428 95.2868 59.8394 95.0403 60.8051 95.0403C61.5086 95.0403 62.1363 95.1953 62.695 95.5122C63.2537 95.8221 63.7227 96.2377 64.1089 96.7518M60.8051 103.703C61.5914 103.703 62.2604 103.394 62.8122 102.767C63.364 102.147 63.6399 101.386 63.6399 100.499C63.6399 99.6113 63.364 98.8507 62.8122 98.2238C62.2604 97.597 61.5914 97.2871 60.812 97.2871C60.0326 97.2871 59.3635 97.597 58.8186 98.2238C58.2668 98.8507 57.9909 99.6043 57.9909 100.499C57.9909 101.393 58.2668 102.147 58.8186 102.767C59.3704 103.386 60.0326 103.703 60.812 103.703" fill="white"/>
		<path d="M76.9105 99.0479V95.3995H79.4419V105.739H76.9105V101.316H72.0962V105.739H69.5717V95.3995H72.0962V99.0479H76.9105Z" fill="white"/>
		<path d="M86.9463 106.007C86.3117 106.007 85.7323 105.915 85.215 105.725C84.6977 105.535 84.2632 105.288 83.9183 104.964C83.5734 104.647 83.2837 104.267 83.0492 103.837C82.8147 103.408 82.6492 102.95 82.5457 102.471C82.4423 101.992 82.394 101.492 82.394 100.971V95.3574H84.9253V100.914C84.9253 101.788 85.1392 102.478 85.5668 102.999C85.9945 103.52 86.5807 103.774 87.3256 103.774C88.0292 103.774 88.6086 103.513 89.0569 102.985C89.5121 102.457 89.7397 101.767 89.7397 100.914V95.3574H92.2711V105.718H89.7397V104.697C89.5811 104.859 89.4225 105.007 89.2707 105.126C89.119 105.246 88.9258 105.387 88.6982 105.535C88.4637 105.683 88.1947 105.802 87.8981 105.88C87.6016 105.957 87.2843 106 86.9601 106" fill="white"/>
		<path d="M97.8925 105.739H95.3887V91.1948H97.8925V105.739ZM105.004 95.3996L100.92 99.8438L105.921 105.739H102.603L98.4305 100.668V98.9352L101.583 95.3925H104.997L105.004 95.3996Z" fill="white"/>
		<path d="M108.494 95.8363C109.315 95.3503 110.211 95.1108 111.177 95.1108C112.143 95.1108 113.039 95.3503 113.86 95.8363C114.681 96.3222 115.336 96.9843 115.812 97.8154C116.288 98.6535 116.529 99.5621 116.529 100.555C116.529 101.548 116.288 102.457 115.812 103.295C115.336 104.133 114.688 104.795 113.86 105.288C113.039 105.774 112.143 106.021 111.177 106.021C110.211 106.021 109.315 105.774 108.494 105.288C107.673 104.802 107.025 104.14 106.542 103.295C106.066 102.457 105.825 101.541 105.825 100.555C105.825 99.5691 106.066 98.6535 106.542 97.8154C107.018 96.9773 107.673 96.3152 108.494 95.8363ZM111.177 103.753C111.949 103.753 112.619 103.443 113.17 102.816C113.722 102.189 114.005 101.436 114.005 100.555C114.005 99.6748 113.729 98.9212 113.17 98.2943C112.612 97.6675 111.949 97.3576 111.177 97.3576C110.404 97.3576 109.728 97.6675 109.184 98.2873C108.632 98.9071 108.356 99.6678 108.356 100.555C108.356 101.443 108.632 102.203 109.184 102.823C109.735 103.443 110.398 103.753 111.177 103.753Z" fill="white"/>
		<path d="M125.199 97.5056C125.42 97.5689 125.627 97.6394 125.82 97.7169C126.013 97.7943 126.255 97.9352 126.544 98.1324C126.834 98.3296 127.082 98.555 127.283 98.8156C127.483 99.0691 127.662 99.4213 127.807 99.8509C127.958 100.288 128.034 100.774 128.034 101.316C128.034 102.196 127.821 102.999 127.4 103.718C126.979 104.436 126.4 104.992 125.682 105.394C124.958 105.795 124.165 105.993 123.303 105.993C122.799 105.993 122.316 105.929 121.854 105.809C121.392 105.69 120.958 105.507 120.558 105.253C120.157 104.999 119.806 104.697 119.509 104.33C119.213 103.971 118.985 103.527 118.812 103.006C118.64 102.485 118.557 101.922 118.557 101.309V95.0193C118.557 94.4347 118.64 93.9136 118.799 93.4417C118.957 92.9698 119.178 92.5824 119.447 92.2795C119.716 91.9767 120.033 91.7231 120.399 91.5189C120.764 91.3146 121.137 91.1738 121.516 91.0892C121.896 91.0047 122.296 90.9625 122.71 90.9625C123.434 90.9625 124.103 91.1245 124.737 91.4485C125.372 91.7724 125.882 92.2373 126.275 92.8359C126.669 93.4417 126.869 94.1178 126.869 94.8644C126.869 95.9279 126.317 96.8083 125.213 97.5056M123.316 103.76C123.903 103.76 124.42 103.542 124.862 103.112C125.303 102.682 125.524 102.098 125.524 101.365C125.524 100.879 125.386 100.457 125.103 100.083C124.827 99.7101 124.475 99.4354 124.061 99.2593C123.641 99.0832 123.206 98.9917 122.744 98.9917H121.792V96.7308H122.434C122.93 96.7308 123.379 96.5688 123.765 96.2519C124.158 95.9349 124.351 95.5124 124.351 94.9841C124.351 94.5122 124.192 94.0967 123.882 93.7445C123.572 93.3924 123.185 93.2092 122.73 93.2092C122.309 93.2092 121.937 93.3571 121.606 93.6529C121.275 93.9488 121.109 94.3573 121.109 94.8785V101.457C121.109 102.239 121.33 102.816 121.765 103.189C122.206 103.57 122.723 103.753 123.323 103.753" fill="white"/>
		<path d="M131.987 95.8363C132.807 95.3503 133.704 95.1108 134.67 95.1108C135.635 95.1108 136.532 95.3503 137.353 95.8363C138.174 96.3222 138.829 96.9843 139.305 97.8154C139.781 98.6535 140.022 99.5621 140.022 100.555C140.022 101.548 139.781 102.457 139.305 103.295C138.829 104.133 138.18 104.795 137.353 105.288C136.532 105.774 135.635 106.021 134.67 106.021C133.704 106.021 132.807 105.774 131.987 105.288C131.166 104.802 130.517 104.14 130.035 103.295C129.559 102.457 129.317 101.541 129.317 100.555C129.317 99.5691 129.559 98.6535 130.035 97.8154C130.51 96.9773 131.166 96.3152 131.987 95.8363ZM134.67 103.753C135.442 103.753 136.111 103.443 136.663 102.816C137.215 102.189 137.498 101.436 137.498 100.555C137.498 99.6748 137.222 98.9212 136.663 98.2943C136.104 97.6675 135.442 97.3576 134.67 97.3576C133.897 97.3576 133.221 97.6675 132.676 98.2873C132.124 98.9071 131.849 99.6678 131.849 100.555C131.849 101.443 132.124 102.203 132.676 102.823C133.228 103.443 133.89 103.753 134.67 103.753Z" fill="white"/>
		<path d="M146.602 106.042C145.968 106.042 145.388 105.95 144.871 105.76C144.354 105.57 143.919 105.323 143.574 105.007C143.229 104.69 142.94 104.316 142.705 103.88C142.471 103.443 142.305 102.985 142.202 102.506C142.098 102.027 142.05 101.52 142.05 100.992V95.3785H144.581V100.95C144.581 101.816 144.795 102.506 145.223 103.02C145.65 103.535 146.237 103.795 146.975 103.795C147.713 103.795 148.258 103.535 148.706 103.006C149.161 102.485 149.389 101.795 149.389 100.95V95.3785H151.92V105.739H149.389V104.739C149.216 104.908 149.058 105.056 148.913 105.169C148.768 105.288 148.582 105.422 148.347 105.57C148.113 105.718 147.844 105.838 147.547 105.922C147.251 106.007 146.933 106.049 146.609 106.049M148.899 92.1246L149.547 91.8851V93.9347L149.271 94.0615C148.637 94.3502 147.878 94.4911 147.002 94.4911C146.126 94.4911 145.354 94.3432 144.712 94.0615L144.443 93.9347V91.8429L145.099 92.1175C145.699 92.3711 146.333 92.4979 147.002 92.4979C147.671 92.4979 148.285 92.3711 148.906 92.1175" fill="white"/>
	</symbol>
	<symbol viewBox="0 0 37 20" fill="none" id="icon__burger">
		<path d="M1 19H18" stroke-width="2" stroke-linecap="round" stroke-linejoin="round"/>
		<path d="M1 10H26" stroke-width="2" stroke-linecap="round" stroke-linejoin="round"/>
		<path d="M1 1H36" stroke-width="2" stroke-linecap="round" stroke-linejoin="round"/>
	</symbol>
	<symbol viewBox="0 0 60 60" fill="none" id="icon__about-1">
		<path d="M48.5193 23.9424L53.9621 26.9813C56.328 28.3022 56.328 31.6969 53.9621 33.0179L48.4127 36.1162L33.7324 44.3125C31.4135 45.6072 28.5864 45.6072 26.2676 44.3125L6.03785 33.0179C3.67195 31.6969 3.67195 28.3022 6.03785 26.9813L11.3401 24.0209" stroke="#C39B54" stroke-width="1.5" stroke-miterlimit="10" stroke-linecap="round" stroke-linejoin="round"/>
		<path d="M26.2676 31.9406L6.03785 20.646C3.67195 19.325 3.67195 15.9304 6.03785 14.6094L26.2676 3.31477C28.5865 2.02008 31.4136 2.02008 33.7324 3.31477L53.9621 14.6094C56.328 15.9304 56.328 19.325 53.9621 20.646L33.7324 31.9406C31.4136 33.2353 28.5864 33.2353 26.2676 31.9406Z" stroke="#C39B54" stroke-width="1.5" stroke-miterlimit="10" stroke-linecap="round" stroke-linejoin="round"/>
		<path d="M11.3943 36.3633L6.03785 39.3539C3.67195 40.6748 3.67195 44.0695 6.03785 45.3905L26.2676 56.6851C28.5865 57.9798 31.4136 57.9798 33.7324 56.6851L33.9784 56.5478" stroke="#C39B54" stroke-width="1.5" stroke-miterlimit="10" stroke-linecap="round" stroke-linejoin="round"/>
		<path d="M44.2114 50.8346L53.9621 45.3906C56.328 44.0696 56.328 40.675 53.9621 39.354L48.6422 36.3838" stroke="#C39B54" stroke-width="1.5" stroke-miterlimit="10" stroke-linecap="round" stroke-linejoin="round"/>
	</symbol>
	<symbol viewBox="0 0 60 60" fill="none" id="icon__about-2">
		<path d="M46.2786 40.7031L51.6188 34.4852C52.1965 33.8125 53.2383 33.8125 53.8161 34.4852L59.1211 40.6633" stroke="#C39B54" stroke-width="1.5" stroke-miterlimit="10" stroke-linecap="round" stroke-linejoin="round"/>
		<path d="M0.878906 40.6633L6.18398 34.4852C6.76172 33.8125 7.80352 33.8125 8.38125 34.4852L13.7215 40.7031" stroke="#C39B54" stroke-width="1.5" stroke-miterlimit="10" stroke-linecap="round" stroke-linejoin="round"/>
		<path d="M51.6872 46.0898L31.6486 26.1355C30.737 25.2278 29.2629 25.2278 28.3513 26.1355L8.31274 46.0898" stroke="#C39B54" stroke-width="1.5" stroke-miterlimit="10" stroke-linecap="round" stroke-linejoin="round"/>
		<path d="M59.1211 26.9512V13.8859C59.1211 13.1379 58.4299 12.5818 57.6993 12.742C42.2318 16.1359 26.327 16.6554 10.7256 14.3005" stroke="#C39B54" stroke-width="1.5" stroke-miterlimit="10" stroke-linecap="round" stroke-linejoin="round"/>
		<path d="M6.62402 13.6137C5.17957 13.3479 3.73828 13.0574 2.30074 12.7419C1.5702 12.5816 0.878906 13.1378 0.878906 13.8858V46.1135C0.878906 46.8615 1.5702 47.4177 2.30074 47.2575C20.5636 43.25 39.4364 43.25 57.6993 47.2575C58.4299 47.4177 59.1211 46.8615 59.1211 46.1135V31.0526" stroke="#C39B54" stroke-width="1.5" stroke-miterlimit="10" stroke-linecap="round" stroke-linejoin="round"/>
		<path d="M43.875 45V15" stroke="#C39B54" stroke-width="1.5" stroke-miterlimit="10" stroke-linecap="round" stroke-linejoin="round"/>
		<path d="M16.125 45V15" stroke="#C39B54" stroke-width="1.5" stroke-miterlimit="10" stroke-linecap="round" stroke-linejoin="round"/>
		<path d="M50.1068 22.1494C48.8124 22.1494 47.7631 23.1987 47.7631 24.4932C47.7631 25.7876 48.8124 26.8369 50.1068 26.8369C51.4011 26.8369 52.4506 25.7876 52.4506 24.4932C52.4506 23.1987 51.4011 22.1494 50.1068 22.1494Z" stroke="#C39B54" stroke-width="1.5" stroke-miterlimit="10" stroke-linecap="round" stroke-linejoin="round"/>
		<path d="M22.2815 32.1799L26.0198 35.1151C26.4964 35.4891 27.1782 35.4451 27.6026 35.0127L30.1716 32.3953C30.4742 32.087 30.9271 31.9805 31.3353 32.1218L41.0272 35.4746" stroke="#C39B54" stroke-width="1.5" stroke-miterlimit="10" stroke-linecap="round" stroke-linejoin="round"/>
	</symbol>
	<symbol viewBox="0 0 60 60" fill="none" id="icon__about-3">
		<path d="M23.9812 23.9812V4H56.125V37.8812H46.5687V56.125H38.75" stroke="#C39B54" stroke-width="1.8" stroke-linecap="round" stroke-linejoin="round"/>
		<path d="M36.1437 50.9129L30.9312 56.1254H4V13.5566H23.9812" stroke="#C39B54" stroke-width="1.8" stroke-linecap="round" stroke-linejoin="round"/>
		<path d="M23.9812 31.7998V43.0936" stroke="#C39B54" stroke-width="1.8" stroke-linecap="round" stroke-linejoin="round"/>
		<path d="M23.9812 50.9121V56.1246" stroke="#C39B54" stroke-width="1.8" stroke-linecap="round" stroke-linejoin="round"/>
		<path d="M23.9813 37.8809H4" stroke="#C39B54" stroke-width="1.8" stroke-linecap="round" stroke-linejoin="round"/>
	</symbol>
	<symbol viewBox="0 0 60 60" fill="none" id="icon__about-4">
		<path d="M16.0698 46.7271H51.5854C52.327 46.7264 53.038 46.4315 53.5624 45.9071C54.0869 45.3828 54.3819 44.6718 54.3828 43.9302V8.41458C54.382 7.6729 54.087 6.96182 53.5626 6.43738C53.0381 5.91293 52.327 5.61796 51.5854 5.61719H16.0698C15.3282 5.61806 14.6172 5.91308 14.0928 6.43752C13.5685 6.96196 13.2736 7.67298 13.2728 8.41458V43.9302C13.2737 44.6717 13.5686 45.3826 14.093 45.907C14.6173 46.4313 15.3282 46.7263 16.0698 46.7271ZM15.1478 8.41458C15.148 8.17009 15.2452 7.93565 15.418 7.76272C15.5909 7.58979 15.8253 7.4925 16.0698 7.49219H51.5854C51.8299 7.49248 52.0644 7.58975 52.2373 7.76267C52.4102 7.93559 52.5075 8.17004 52.5078 8.41458V43.9302C52.5074 44.1747 52.4102 44.4091 52.2372 44.5819C52.0643 44.7548 51.8299 44.8519 51.5854 44.8521H16.0698C15.8253 44.8519 15.5909 44.7547 15.4181 44.5819C15.2452 44.409 15.148 44.1746 15.1478 43.9302V8.41458Z" fill="#C39B54"/>
		<path d="M21.5959 37.9912C21.844 37.9919 22.0823 37.8943 22.2585 37.7197C22.4347 37.5451 22.5346 37.3077 22.5362 37.0596L22.6016 26.559C22.7431 22.0353 28.5852 22.0558 28.6949 26.5829V37.0537C28.6949 37.3023 28.7937 37.5408 28.9695 37.7166C29.1453 37.8924 29.3838 37.9912 29.6324 37.9912C29.8811 37.9912 30.1195 37.8924 30.2953 37.7166C30.4711 37.5408 30.5699 37.3023 30.5699 37.0537V26.5828C30.6621 22.076 36.6224 22.0042 36.7287 26.5829V37.0537C36.7323 37.2999 36.8327 37.5348 37.0081 37.7076C37.1836 37.8805 37.4199 37.9774 37.6662 37.9774C37.9124 37.9773 38.1488 37.8805 38.3242 37.7076C38.4996 37.5348 38.6 37.2999 38.6037 37.0536V26.5828C38.6264 25.9059 38.5154 25.2313 38.2769 24.5974C38.0384 23.9636 37.6772 23.383 37.2139 22.889C36.7506 22.3951 36.1944 21.9974 35.5771 21.7187C34.9599 21.4401 34.2937 21.2861 33.6168 21.2654C32.8229 21.2751 32.0437 21.4809 31.3486 21.8645C30.6534 22.2481 30.0639 22.7976 29.6324 23.4641C29.2647 22.8916 28.7776 22.4053 28.2046 22.0385C27.6316 21.6717 26.9861 21.4329 26.3123 21.3385C25.6385 21.2442 24.9523 21.2965 24.3006 21.4918C23.6488 21.6872 23.047 22.021 22.5361 22.4704V20.9862C22.5325 20.7399 22.4321 20.505 22.2567 20.3322C22.0812 20.1594 21.8449 20.0625 21.5986 20.0625C21.3524 20.0625 21.116 20.1594 20.9406 20.3322C20.7652 20.5051 20.6648 20.74 20.6611 20.9862V37.0537C20.6611 37.3018 20.7596 37.5399 20.9348 37.7156C21.11 37.8913 21.3478 37.9904 21.5959 37.9912Z" fill="#C39B54"/>
		<path d="M42.0759 17.6773L43.0294 16.6071C43.1376 16.481 43.2733 16.3815 43.4259 16.316C43.5786 16.2506 43.7442 16.2209 43.9101 16.2294C44.7448 16.2508 45.0902 16.991 45.1196 17.7446C45.1277 18.1924 44.9609 18.6259 44.6545 18.9526L40.7163 22.85C40.5872 22.9819 40.4997 23.1488 40.4644 23.3299C40.4292 23.5111 40.4478 23.6986 40.518 23.8693C40.5882 24.0399 40.7069 24.1863 40.8593 24.2902C41.0118 24.3941 41.1915 24.4511 41.376 24.454H46.057C46.3025 24.4492 46.5363 24.3483 46.7082 24.173C46.8801 23.9977 46.9764 23.762 46.9764 23.5165C46.9764 23.271 46.8801 23.0352 46.7082 22.86C46.5363 22.6847 46.3025 22.5838 46.057 22.579H43.656L45.9732 20.2856C48.084 18.3575 46.6809 13.98 43.6143 14.3691C42.3734 14.3539 41.4224 15.562 40.676 16.4304C40.5164 16.6169 40.4362 16.8585 40.4527 17.1034C40.4693 17.3483 40.5812 17.577 40.7645 17.7403C40.9478 17.9035 41.1879 17.9884 41.4331 17.9766C41.6783 17.9649 41.909 17.8574 42.0759 17.6773Z" fill="#C39B54"/>
		<path d="M57.1151 53.4371C57.1853 53.2658 57.2035 53.0776 57.1675 52.896C57.1315 52.7144 57.0428 52.5473 56.9126 52.4157L53.7419 49.2451C53.5661 49.0693 53.3277 48.9706 53.0791 48.9706C52.8305 48.9706 52.5921 49.0693 52.4163 49.2451C52.2405 49.4209 52.1417 49.6593 52.1417 49.908C52.1417 50.1566 52.2405 50.395 52.4163 50.5708L53.9868 52.1414H9.68355C9.19969 52.1408 8.73582 51.9483 8.39368 51.6061C8.05154 51.264 7.85906 50.8001 7.85845 50.3163V6.01298L9.42904 7.58358C9.60597 7.75386 9.84264 7.84794 10.0882 7.84558C10.3337 7.84323 10.5686 7.74464 10.7422 7.57099C10.9158 7.39735 11.0144 7.16252 11.0167 6.91697C11.0191 6.67142 10.925 6.43476 10.7547 6.25785L7.58404 3.08722C7.45238 2.95709 7.28537 2.86851 7.10378 2.8325C6.92219 2.79648 6.73403 2.81463 6.56266 2.88468C6.44797 2.93224 3.08721 6.25789 3.08721 6.25789C2.91662 6.43475 2.82228 6.67152 2.8245 6.91724C2.82672 7.16296 2.92533 7.39798 3.09909 7.57173C3.27285 7.74548 3.50789 7.84407 3.75361 7.84627C3.99932 7.84847 4.23609 7.75412 4.41294 7.58351L5.98345 6.01298V50.3163C5.98455 51.2973 6.37474 52.2378 7.06841 52.9314C7.76207 53.6251 8.70256 54.0153 9.68355 54.0164H53.9868L52.4162 55.587C52.3284 55.6739 52.2586 55.7772 52.2108 55.8912C52.163 56.0051 52.1383 56.1274 52.1379 56.2509C52.1376 56.3745 52.1616 56.4969 52.2088 56.6111C52.2559 56.7253 52.3251 56.8291 52.4125 56.9164C52.4999 57.0038 52.6036 57.073 52.7178 57.1201C52.8321 57.1673 52.9545 57.1913 53.078 57.191C53.2016 57.1906 53.3238 57.1658 53.4378 57.1181C53.5517 57.0703 53.6551 57.0005 53.7419 56.9126C53.7419 56.9126 57.0676 53.5519 57.1151 53.4371Z" fill="#C39B54"/>
	</symbol>
	<symbol viewBox="0 0 60 60" fill="none" id="icon__about-5">
		<path d="M10.3125 58.0078H49.6875C51.8935 58.0055 54.0084 57.1281 55.5682 55.5682C57.1281 54.0084 58.0055 51.8935 58.0078 49.6875V10.3125C58.0055 8.10654 57.1281 5.99161 55.5682 4.43175C54.0084 2.8719 51.8935 1.99455 49.6875 1.99219H10.3125C8.10654 1.99455 5.99161 2.8719 4.43175 4.43175C2.8719 5.99161 1.99455 8.10654 1.99219 10.3125V49.6875C1.99455 51.8935 2.8719 54.0084 4.43175 55.5682C5.99161 57.1281 8.10654 58.0055 10.3125 58.0078ZM3.63281 10.3125C3.63492 8.54158 4.33935 6.8438 5.59158 5.59158C6.8438 4.33935 8.54158 3.63492 10.3125 3.63281H49.6875C51.4584 3.63492 53.1562 4.33935 54.4084 5.59158C55.6607 6.8438 56.3651 8.54158 56.3672 10.3125V49.6875C56.3651 51.4584 55.6607 53.1562 54.4084 54.4084C53.1562 55.6607 51.4584 56.3651 49.6875 56.3672H10.3125C8.54158 56.3651 6.8438 55.6607 5.59158 54.4084C4.33935 53.1562 3.63492 51.4584 3.63281 49.6875V10.3125Z" fill="#C39B54"/>
		<path d="M19.2188 49.5288H24.9262C25.1438 49.5288 25.3525 49.4424 25.5063 49.2886C25.6601 49.1347 25.7466 48.9261 25.7466 48.7085V33.6738H31.875C34.9519 33.6738 37.9028 32.4515 40.0785 30.2758C42.2543 28.1001 43.4766 25.1492 43.4766 22.0723C43.4766 18.9953 42.2543 16.0444 40.0785 13.8687C37.9028 11.693 34.9519 10.4707 31.875 10.4707H19.2188C19.0012 10.4708 18.7927 10.5573 18.6388 10.7111C18.485 10.8649 18.3986 11.0735 18.3984 11.291V48.7085C18.3986 48.926 18.485 49.1346 18.6388 49.2884C18.7927 49.4422 19.0012 49.5287 19.2188 49.5288ZM20.0391 12.1113H31.875C34.5168 12.1113 37.0504 13.1608 38.9184 15.0288C40.7865 16.8969 41.8359 19.4305 41.8359 22.0723C41.8359 24.7141 40.7865 27.2477 38.9184 29.1157C37.0504 30.9837 34.5168 32.0332 31.875 32.0332H24.9262C24.7087 32.0333 24.5001 32.1198 24.3463 32.2736C24.1925 32.4274 24.1061 32.636 24.1059 32.8535V47.8882H20.0391V12.1113Z" fill="#C39B54"/>
		<path d="M24.8929 27.6643H32.1754C35.2781 27.6643 37.8004 25.005 37.8004 21.7369C37.8004 18.4688 35.2767 15.8096 32.1754 15.8096H24.8929C24.6754 15.8097 24.4668 15.8962 24.313 16.05C24.1592 16.2038 24.0728 16.4124 24.0726 16.6299V26.8439C24.0728 27.0615 24.1592 27.27 24.313 27.4239C24.4668 27.5777 24.6754 27.6641 24.8929 27.6643ZM25.7133 17.4502H32.1754C34.3734 17.4502 36.1598 19.3721 36.1598 21.7369C36.1598 24.1018 34.372 26.0236 32.1754 26.0236H25.7133V17.4502Z" fill="#C39B54"/>
	</symbol>
	<symbol viewBox="0 0 60 60" fill="none" id="icon__about-6">
		<path d="M23.3972 55.1848C23.3972 55.7023 22.9861 56.1265 22.4686 56.1265C21.9511 56.1265 21.5269 55.7023 21.5269 55.1848V43.391C21.5269 42.5955 21.8714 41.8788 22.4287 41.3618C22.9729 40.8579 23.7028 40.5527 24.5119 40.5527H35.4825C36.2915 40.5527 37.0345 40.8574 37.5647 41.3618C38.1215 41.8793 38.4675 42.5955 38.4675 43.391V55.1848C38.4675 55.7023 38.0559 56.1265 37.5384 56.1265C37.0209 56.1265 36.5967 55.7023 36.5967 55.1848V43.391C36.5967 43.1393 36.4903 42.9002 36.3047 42.7282C36.0928 42.5426 35.8139 42.423 35.4825 42.423H30.9319V55.1852C30.9319 55.7027 30.5212 56.127 30.0037 56.127C29.4867 56.127 29.062 55.7027 29.062 55.1852V42.4226H24.5119C24.1936 42.4226 23.9147 42.5426 23.7028 42.7277C23.5172 42.8998 23.3976 43.1388 23.3976 43.3905L23.3972 55.1848Z" fill="#C39B54"/>
		<path d="M20.7576 27.9771H26.886C27.4035 27.9771 27.8146 28.3887 27.8146 28.9057V34.6104C27.8146 35.1279 27.4035 35.538 26.886 35.538H20.7576C20.2401 35.538 19.829 35.1274 19.829 34.6104V28.9057C19.8285 28.3887 20.2401 27.9771 20.7576 27.9771ZM20.7576 16.6348H26.886C27.4035 16.6348 27.8146 17.0463 27.8146 17.5634V23.2676C27.8146 23.7851 27.4035 24.1962 26.886 24.1962H20.7576C20.2401 24.1962 19.829 23.7846 19.829 23.2676V17.5638C19.8285 17.0463 20.2401 16.6348 20.7576 16.6348ZM25.9443 18.506H21.6993V22.3259H25.9443V18.506ZM36.1851 22.3259C36.7026 22.3259 37.1132 22.7505 37.1132 23.268C37.1132 23.7855 36.7021 24.1966 36.1851 24.1966H33.1209C32.6034 24.1966 32.1787 23.7851 32.1787 23.268V17.5638C32.1787 17.0463 32.6029 16.6352 33.1209 16.6352C33.6384 16.6352 34.0494 17.0468 34.0494 17.5638V22.3259H36.1851ZM33.1209 27.9771H39.2362C39.7537 27.9771 40.1779 28.3887 40.1779 28.9057V34.6104C40.1779 35.1279 39.7537 35.538 39.2362 35.538H33.1209C32.6034 35.538 32.1787 35.1274 32.1787 34.6104V28.9057C32.1787 28.3887 32.6034 27.9771 33.1209 27.9771ZM38.308 29.8479H34.0499V33.6682H38.308V29.8479ZM25.9443 29.8479H21.6993V33.6682H25.9443V29.8479Z" fill="#C39B54"/>
		<path d="M45.7626 28.7334C45.4978 29.1712 44.9278 29.3302 44.4895 29.0648C44.3433 28.972 44.2242 28.853 44.1445 28.7203L36.1054 15.0961C35.6939 14.393 35.3494 13.4911 35.1375 12.6952C34.9247 11.8725 34.8187 11.0241 34.8187 10.148C34.8187 7.34859 35.9465 4.81547 37.7901 2.97094C39.6211 1.14094 42.1547 0 44.9672 0C47.7661 0 50.2997 1.14094 52.1437 2.97141C53.9742 4.81594 55.1156 7.34906 55.1156 10.1484C55.1156 11.0241 54.9961 11.873 54.7842 12.6956C54.5714 13.545 54.2395 14.3405 53.8289 15.0834L45.7626 28.7334ZM44.9672 26.4248L52.2098 14.1539C52.5417 13.5572 52.807 12.907 52.9795 12.2306C53.1515 11.5669 53.2444 10.8773 53.2444 10.148C53.2444 7.86609 52.3167 5.79703 50.8172 4.29797C49.3181 2.79937 47.2486 1.87031 44.9672 1.87031C42.6722 1.87031 40.6026 2.79891 39.104 4.29797C37.6176 5.79703 36.6895 7.86609 36.6895 10.148C36.6895 10.8778 36.7819 11.5669 36.9417 12.2306C37.1137 12.8934 37.379 13.5305 37.6973 14.1272L44.9672 26.4248Z" fill="#C39B54"/>
		<path d="M44.9671 4.73535C46.4531 4.73535 47.8059 5.34613 48.787 6.32723C49.769 7.29566 50.3793 8.64848 50.3793 10.1475C50.3793 11.6461 49.7685 12.9999 48.787 13.9814C47.8054 14.9499 46.4531 15.5597 44.9671 15.5597C43.4681 15.5597 42.1148 14.9499 41.1332 13.9814C40.1516 12.9999 39.5549 11.6466 39.5549 10.1475C39.5549 8.64848 40.1516 7.29566 41.1332 6.32723C42.1148 5.34566 43.4676 4.73535 44.9671 4.73535ZM47.4609 7.64066C46.8238 7.0041 45.9356 6.60613 44.9671 6.60613C43.9856 6.60613 43.0963 7.0041 42.4598 7.64066C41.8227 8.29082 41.4252 9.16598 41.4252 10.148C41.4252 11.1296 41.8227 12.0183 42.4598 12.6554C43.0959 13.2919 43.9856 13.6899 44.9671 13.6899C45.9356 13.6899 46.8238 13.2919 47.4609 12.6554C48.1106 12.0188 48.5085 11.1296 48.5085 10.148C48.5085 9.16598 48.1106 8.29082 47.4609 7.64066Z" fill="#C39B54"/>
		<path d="M49.2909 45.5671C48.7734 45.5671 48.3633 45.1428 48.3633 44.6253C48.3633 44.1078 48.7739 43.6963 49.2909 43.6963H52.687C53.8547 43.6963 54.8897 44.3732 55.3406 45.4475L59.7314 56.1397C59.917 56.5907 59.9831 57.0421 59.9301 57.493C59.8373 58.4085 59.2265 59.2569 58.4175 59.6816C58.0064 59.8939 57.5554 60.0004 57.0783 60.0004H2.92873C2.45107 60.0004 2.00013 59.8939 1.58904 59.6816C0.766383 59.2569 0.169664 58.4085 0.0637262 57.493C0.0238825 57.0421 0.0899762 56.5907 0.262476 56.1397L4.66685 45.4475C5.11779 44.3732 6.15232 43.6963 7.31998 43.6963H10.6894C11.2069 43.6963 11.6179 44.1083 11.6179 44.6253C11.6179 45.1424 11.2069 45.5671 10.6894 45.5671H7.31998C6.90888 45.5671 6.55029 45.7658 6.39138 46.1638L2.0006 56.8555C1.93404 57.0022 1.90779 57.1475 1.92091 57.2938C1.96076 57.5989 2.1731 57.8774 2.43841 58.0236C2.5842 58.0902 2.7431 58.13 2.9292 58.13H57.0792C57.2648 58.13 57.4237 58.0902 57.5569 58.0236C57.8358 57.8774 58.0476 57.5994 58.0744 57.2938C58.0875 57.1475 58.0744 57.0022 58.0078 56.8555L53.617 46.1638C53.4576 45.7654 53.0995 45.5671 52.6884 45.5671H49.2909Z" fill="#C39B54"/>
		<path d="M44.0254 32.7529C44.0254 32.2354 44.4496 31.8107 44.9671 31.8107C45.4846 31.8107 45.8957 32.2354 45.8957 32.7529V55.1849C45.8957 55.7024 45.4842 56.1266 44.9671 56.1266H15.0398C14.5223 56.1266 14.1112 55.7024 14.1112 55.1849V14.1814C14.1112 13.3855 14.4562 12.6688 15.0135 12.1518C15.5442 11.6474 16.2871 11.3291 17.0962 11.3291H31.8604C32.3779 11.3291 32.789 11.7533 32.789 12.2713C32.789 12.7888 32.3775 13.213 31.8604 13.213H17.0962C16.7643 13.213 16.4859 13.3194 16.274 13.5182C16.0884 13.6902 15.982 13.9293 15.982 14.1814V54.2558H44.0259L44.0254 32.7529Z" fill="#C39B54"/>
	</symbol>
	<symbol  viewBox="0 0 43 43" fill="none" id="icon__slider-link">
		<path d="M5.375 21.5H37.625" stroke-linecap="round" stroke-linejoin="round"/>
		<path d="M28.6665 12.542L37.6248 21.5003L28.6665 30.4587" stroke-linecap="round" stroke-linejoin="round"/>
	</symbol>
	<symbol  viewBox="0 0 42 42" fill="none" id="icon__dom-1">
		<g opacity="0.5">
			<path fill-rule="evenodd" clip-rule="evenodd" d="M17.5954 37.0862L31.206 39.3607C31.8623 39.4697 32.5343 39.3148 33.0763 38.9276C33.6184 38.5417 33.9846 37.955 34.0935 37.2988C35.0451 31.6065 37.9982 13.9337 38.9498 8.24003C39.1782 6.87372 38.2555 5.58091 36.8892 5.35253L31.0498 4.37603C30.7348 3.35097 29.7794 2.60547 28.6506 2.60547H12.9124C12.5528 2.60547 12.2076 2.74853 11.953 3.00316C10.2664 4.68972 3.79447 11.1617 3.79447 11.1617C3.66322 11.2929 3.58972 11.4701 3.58972 11.6552V34.5767C3.58972 35.9627 4.71322 37.0862 6.09922 37.0862H17.5954ZM31.1588 5.80797L31.1601 34.5767C31.1601 35.2421 30.8963 35.88 30.4251 36.3512C29.9552 36.821 29.316 37.0862 28.6506 37.0862H26.0571L31.4357 37.9839C31.7271 38.0338 32.0263 37.9642 32.2665 37.7923C32.5067 37.6203 32.6695 37.3605 32.718 37.0691C33.6696 31.3755 36.6227 13.704 37.5743 8.01034C37.6753 7.40266 37.2659 6.82909 36.6595 6.72803L31.1588 5.80797ZM6.09922 35.691H28.6506C28.9472 35.691 29.2307 35.5742 29.4394 35.3642C29.6481 35.1555 29.7649 34.872 29.7649 34.5767V5.11497C29.7649 4.49941 29.2662 4.00066 28.6506 4.00066H13.3363V11.6552C13.3363 12.0397 13.024 12.3521 12.6394 12.3521H4.98491V34.5767C4.98491 35.1922 5.48366 35.691 6.09922 35.691ZM9.81622 31.4017H25.8313C26.2159 31.4017 26.5283 31.0893 26.5283 30.7035C26.5283 30.3189 26.2159 30.0065 25.8313 30.0065H9.81622C9.43166 30.0065 9.11929 30.3189 9.11929 30.7035C9.11929 31.0893 9.43166 31.4017 9.81622 31.4017ZM9.81622 26.3867H25.8313C26.2159 26.3867 26.5283 26.0743 26.5283 25.6897C26.5283 25.3052 26.2159 24.9928 25.8313 24.9928H9.81622C9.43166 24.9928 9.11929 25.3052 9.11929 25.6897C9.11929 26.0743 9.43166 26.3867 9.81622 26.3867ZM9.81622 21.3729H25.8313C26.2159 21.3729 26.5283 21.0605 26.5283 20.676C26.5283 20.2914 26.2159 19.9777 25.8313 19.9777H9.81622C9.43166 19.9777 9.11929 20.2914 9.11929 20.676C9.11929 21.0605 9.43166 21.3729 9.81622 21.3729ZM9.81622 16.3592H25.8313C26.2159 16.3592 26.5283 16.0468 26.5283 15.6609C26.5283 15.2763 26.2159 14.964 25.8313 14.964H9.81622C9.43166 14.964 9.11929 15.2763 9.11929 15.6609C9.11929 16.0468 9.43166 16.3592 9.81622 16.3592ZM17.1439 11.3441H25.8313C26.2159 11.3441 26.5283 11.0317 26.5283 10.6472C26.5283 10.2626 26.2159 9.95022 25.8313 9.95022H17.1439C16.7593 9.95022 16.447 10.2626 16.447 10.6472C16.447 11.0317 16.7593 11.3441 17.1439 11.3441ZM11.9425 4.98634V10.9582H5.9706L11.9425 4.98634Z" fill="#C39B54"/>
		</g>
	</symbol>
	<symbol  viewBox="0 0 42 42" fill="none" id="icon__dom-2">
		<g opacity="0.5">
			<path d="M23.4607 15H17.5393C17.2414 15 17 15.2238 17 15.5C17 15.7762 17.2414 16 17.5393 16H23.4607C23.7586 16 24 15.7762 24 15.5C24 15.2238 23.7586 15 23.4607 15Z" fill="#C39B54"/>
			<path d="M38.4818 30C38.1955 30 37.9635 30.2261 37.9635 30.5051V35.4277C37.9635 36.2891 37.2443 36.9899 36.3603 36.9899H22.5183C22.232 36.9899 22 37.216 22 37.4949C22 37.7739 22.232 38 22.5183 38H36.3602C37.8159 38 39 36.8461 39 35.4277V30.505C39.0001 30.2262 38.768 30 38.4818 30Z" fill="#C39B54"/>
			<path d="M36.3141 11.9558H30.0348V10.4232C30.0348 6.88139 27.1496 4 23.603 4H18.3969C14.8504 4 11.9651 6.88132 11.9651 10.4232V11.9558H5.68587C4.20474 11.9558 3 13.1592 3 14.6382V35.3177C3 36.7968 4.20488 38 5.68587 38H19.7694C20.0607 38 20.2968 37.7643 20.2968 37.4734C20.2968 37.1825 20.0607 36.9467 19.7694 36.9467H5.68587C4.78643 36.9467 4.05476 36.216 4.05476 35.3178V22.4308C5.24297 24.2783 7.31881 25.5047 9.67604 25.5047H18.8755V26.6708C18.8755 27.4258 19.4906 28.0401 20.2466 28.0401H21.7535C22.5096 28.0401 23.1247 27.4257 23.1247 26.6708V25.5047H32.324C34.6813 25.5047 36.7571 24.2782 37.9453 22.4308V27.7271C37.9453 28.018 38.1814 28.2537 38.4727 28.2537C38.764 28.2537 39 28.018 39 27.7271C39 27.256 39 15.1095 39 14.6382C39.0001 13.1593 37.7954 11.9558 36.3141 11.9558ZM18.397 5.05334H23.6031C26.568 5.05334 28.9801 7.46223 28.9801 10.4232C28.9801 11.7254 28.9801 11.8981 28.9801 12.7323C28.9801 12.9892 28.7708 13.1981 28.5136 13.1982C28.2563 13.1982 28.0471 12.9892 28.0471 12.7323C28.0471 12.2036 28.0471 11.2489 28.0471 10.4232C28.0471 7.97609 26.0535 5.98527 23.6032 5.98527H18.3971C15.9467 5.98527 13.9532 7.97616 13.9532 10.4232C13.9532 12.9445 13.962 12.7755 13.9322 12.8707C13.8731 13.0602 13.6957 13.1982 13.4867 13.1982C13.2295 13.1982 13.0202 12.9892 13.0202 12.7323C13.02 11.8816 13.02 11.2629 13.02 10.4232C13.02 7.46223 15.4322 5.05334 18.397 5.05334ZM26.9922 10.4232V11.9558H15.0079V10.4232C15.0079 8.55693 16.5282 7.03861 18.397 7.03861H23.6031C25.4718 7.03861 26.9922 8.55693 26.9922 10.4232ZM21.7534 26.9867H20.2466C20.0751 26.9867 19.9302 26.842 19.9302 26.6708C19.9302 26.0587 19.9302 25.6659 19.9302 25.4226C19.9302 25.1604 19.9302 25.0718 19.9302 25.071C19.9302 24.8275 19.9302 24.4343 19.9302 23.8212C19.9302 23.5862 20.1216 23.395 20.3569 23.395H21.643C21.8784 23.395 22.0698 23.5862 22.0698 23.8212C22.0698 25.0474 22.0698 25.3954 22.0698 25.4207C22.0698 25.3646 22.0698 24.1253 22.0698 26.6708C22.0698 26.842 21.9249 26.9867 21.7534 26.9867ZM32.324 24.4512H23.1246C23.1246 24.1707 23.1246 23.9936 23.1246 23.7109C23.1246 22.9558 22.5095 22.3415 21.7534 22.3415C21.5812 22.3415 20.3916 22.3415 20.2466 22.3415C19.4905 22.3415 18.8754 22.9559 18.8754 23.7109C18.8754 23.9935 18.8754 24.1705 18.8754 24.4512H9.67604C6.57645 24.4513 4.05476 21.933 4.05476 18.8375V14.6381C4.05476 13.7399 4.7865 13.0092 5.68587 13.0092H11.9905C12.1214 13.7215 12.7509 14.2513 13.4864 14.2515C14.2291 14.2515 14.852 13.7144 14.9823 13.0092H27.0172C27.1549 13.7355 27.7869 14.2513 28.513 14.2515C29.2313 14.2515 29.8688 13.7445 30.009 13.0092H36.3136C37.2131 13.0092 37.9448 13.7399 37.9448 14.6381V18.8375H37.9451C37.9453 21.9329 35.4236 24.4512 32.324 24.4512Z" fill="#C39B54"/>
		</g>
	</symbol>
	<symbol  viewBox="0 0 42 42" fill="none" id="icon__dom-3">
		<g opacity="0.5">
			<path d="M36.0938 30.1875V24.9375H33.4688V27.5625L29.5312 23.625L19.6875 33.4688H22.9688V40.6875H26.9062V34.7812H32.1562V40.6875H36.0938V33.4688H39.375L36.0938 30.1875Z" stroke="#C39B54" stroke-width="1.5" stroke-linecap="round" stroke-linejoin="round"/>
			<path d="M19.1435 11.1562C19.0387 11.4532 19.0066 11.7709 19.05 12.0828C19.0934 12.3946 19.211 12.6915 19.3928 12.9486C19.5747 13.2056 19.8156 13.4153 20.0952 13.56C20.3749 13.7047 20.6851 13.7802 21 13.7802C21.3149 13.7802 21.6251 13.7047 21.9048 13.56C22.1844 13.4153 22.4253 13.2056 22.6072 12.9486C22.789 12.6915 22.9066 12.3946 22.95 12.0828C22.9934 11.7709 22.9613 11.4532 22.8565 11.1562" stroke="#C39B54" stroke-width="1.5" stroke-linecap="round" stroke-linejoin="round"/>
			<path d="M23.6112 7.21875C25.0882 8.22653 26.1594 9.72598 26.6339 11.4499C27.1084 13.1738 26.9555 15.0102 26.2022 16.6319C25.449 18.2535 24.1445 19.5551 22.5211 20.3046C20.8977 21.0541 19.061 21.2029 17.3381 20.7244" stroke="#C39B54" stroke-width="1.5" stroke-linecap="round" stroke-linejoin="round"/>
			<path d="M12.2456 15.9731C11.9571 15.1644 11.8105 14.3118 11.8125 13.4531C11.8125 11.4516 12.6076 9.53199 14.0229 8.11668C15.4383 6.70136 17.3578 5.90625 19.3594 5.90625C19.469 5.90625 19.5786 5.90625 19.6875 5.91347" stroke="#C39B54" stroke-width="1.5" stroke-linecap="round" stroke-linejoin="round"/>
			<path d="M25.4756 17.8697C26.8099 18.6342 28.3216 19.0347 29.8594 19.0313C29.9709 19.0313 30.0759 19.0313 30.1875 19.0247C31.7564 18.9668 33.2817 18.493 34.6073 17.6519C35.9329 16.8107 37.0111 15.6324 37.7317 14.2376C38.4523 12.8428 38.7892 11.2816 38.7081 9.71374C38.627 8.1459 38.1308 6.62776 37.2701 5.31474C36.4095 4.00172 35.2154 2.94097 33.8101 2.24109C32.4048 1.5412 30.8388 1.22732 29.2723 1.33157C27.7058 1.43582 26.1952 1.95445 24.895 2.83438C23.5949 3.71431 22.5519 4.92393 21.8728 6.33942C21.3424 7.43418 21.0473 8.62797 21.0066 9.84379C21 9.95536 21 10.0604 21 10.1719C20.9997 10.7223 21.0502 11.2715 21.1509 11.8125" stroke="#C39B54" stroke-width="1.5" stroke-linecap="round" stroke-linejoin="round"/>
			<path d="M29.5312 23.625V17.7188" stroke="#C39B54" stroke-width="1.5" stroke-linecap="round" stroke-linejoin="round"/>
			<path d="M12.2456 15.9731L8.53125 19.6875V21L2.625 26.9063V31.5H6.5625L7.875 30.1875V28.2188H9.84375L11.1562 26.9063V24.9375H13.125L17.3381 20.7244" stroke="#C39B54" stroke-width="1.5" stroke-linecap="round" stroke-linejoin="round"/>
			<path d="M14.3653 19.1035L4.59375 28.8751" stroke="#C39B54" stroke-width="1.5" stroke-linecap="round" stroke-linejoin="round"/>
		</g>
	</symbol>
	<symbol  viewBox="0 0 42 42" fill="none" id="icon__dom-4">
		<g opacity="0.5" clip-path="url(#clip0_176_713)">
			<path d="M41.3438 26.25C41.1697 26.25 41.0028 26.3191 40.8797 26.4422C40.7566 26.5653 40.6875 26.7322 40.6875 26.9062C40.6875 27.0803 40.6184 27.2472 40.4953 27.3703C40.3722 27.4934 40.2053 27.5625 40.0312 27.5625H30.8438C30.6697 27.5625 30.5028 27.4934 30.3797 27.3703C30.2566 27.2472 30.1875 27.0803 30.1875 26.9062V22.9688C30.1875 22.7947 30.2566 22.6278 30.3797 22.5047C30.5028 22.3816 30.6697 22.3125 30.8438 22.3125C31.0178 22.3125 31.1847 22.2434 31.3078 22.1203C31.4309 21.9972 31.5 21.8303 31.5 21.6562C31.5 21.4822 31.4309 21.3153 31.3078 21.1922C31.1847 21.0691 31.0178 21 30.8438 21C30.3579 21.0017 29.89 21.1842 29.5312 21.5119C29.1725 21.1842 28.7046 21.0017 28.2188 21H7.875C7.70095 21 7.53403 20.9309 7.41096 20.8078C7.28789 20.6847 7.21875 20.5178 7.21875 20.3438V16.4062C7.21875 16.2322 7.28789 16.0653 7.41096 15.9422C7.53403 15.8191 7.70095 15.75 7.875 15.75H19.0312C19.2053 15.75 19.3722 15.6809 19.4953 15.5578C19.6184 15.4347 19.6875 15.2678 19.6875 15.0938C19.6875 14.9197 19.6184 14.7528 19.4953 14.6297C19.3722 14.5066 19.2053 14.4375 19.0312 14.4375H13.7812C13.6072 14.4375 13.4403 14.3684 13.3172 14.2453C13.1941 14.1222 13.125 13.9553 13.125 13.7812V9.84375C13.125 9.6697 13.1941 9.50278 13.3172 9.37971C13.4403 9.25664 13.6072 9.1875 13.7812 9.1875H15.0938C15.2678 9.1875 15.4347 9.11836 15.5578 8.99529C15.6809 8.87222 15.75 8.7053 15.75 8.53125C15.75 8.3572 15.6809 8.19028 15.5578 8.06721C15.4347 7.94414 15.2678 7.875 15.0938 7.875H13.7812C13.2954 7.87671 12.8275 8.05918 12.4688 8.38687C12.11 8.05918 11.6421 7.87671 11.1562 7.875H1.96875C1.44661 7.875 0.945846 8.08242 0.576634 8.45163C0.207421 8.82085 0 9.32161 0 9.84375L0 13.7812C0.00170865 14.2671 0.184175 14.735 0.511875 15.0938C0.184175 15.4525 0.00170865 15.9204 0 16.4062L0 20.3438C0.00170865 20.8296 0.184175 21.2975 0.511875 21.6562C0.184175 22.015 0.00170865 22.4829 0 22.9688L0 26.9062C0.00170865 27.3921 0.184175 27.86 0.511875 28.2188C0.184175 28.5775 0.00170865 29.0454 0 29.5312L0 33.4688C0.00170865 33.9546 0.184175 34.4225 0.511875 34.7812C0.184175 35.14 0.00170865 35.6079 0 36.0938L0 40.0312C0 40.5534 0.207421 41.0542 0.576634 41.4234C0.945846 41.7926 1.44661 42 1.96875 42H11.1562C11.6421 41.9983 12.11 41.8158 12.4688 41.4881C12.8275 41.8158 13.2954 41.9983 13.7812 42H28.2188C28.7046 41.9983 29.1725 41.8158 29.5312 41.4881C29.89 41.8158 30.3579 41.9983 30.8438 42H40.0312C40.5534 42 41.0542 41.7926 41.4234 41.4234C41.7926 41.0542 42 40.5534 42 40.0312V36.0938C41.9983 35.6079 41.8158 35.14 41.4881 34.7812C41.8158 34.4225 41.9983 33.9546 42 33.4688V29.5312C41.9983 29.0454 41.8158 28.5775 41.4881 28.2188C41.8158 27.86 41.9983 27.3921 42 26.9062C42 26.7322 41.9309 26.5653 41.8078 26.4422C41.6847 26.3191 41.5178 26.25 41.3438 26.25ZM40.0312 28.875C40.2053 28.875 40.3722 28.9441 40.4953 29.0672C40.6184 29.1903 40.6875 29.3572 40.6875 29.5312V33.4688C40.6875 33.6428 40.6184 33.8097 40.4953 33.9328C40.3722 34.0559 40.2053 34.125 40.0312 34.125H36.75C36.576 34.125 36.409 34.0559 36.286 33.9328C36.1629 33.8097 36.0938 33.6428 36.0938 33.4688V29.5312C36.0938 29.3572 36.1629 29.1903 36.286 29.0672C36.409 28.9441 36.576 28.875 36.75 28.875H40.0312ZM34.125 28.875C34.299 28.875 34.466 28.9441 34.589 29.0672C34.7121 29.1903 34.7812 29.3572 34.7812 29.5312V33.4688C34.7812 33.6428 34.7121 33.8097 34.589 33.9328C34.466 34.0559 34.299 34.125 34.125 34.125H24.9375C24.7635 34.125 24.5965 34.0559 24.4735 33.9328C24.3504 33.8097 24.2812 33.6428 24.2812 33.4688V29.5312C24.2812 29.3572 24.3504 29.1903 24.4735 29.0672C24.5965 28.9441 24.7635 28.875 24.9375 28.875H34.125ZM28.2188 22.3125C28.3928 22.3125 28.5597 22.3816 28.6828 22.5047C28.8059 22.6278 28.875 22.7947 28.875 22.9688V26.9062C28.875 27.0803 28.8059 27.2472 28.6828 27.3703C28.5597 27.4934 28.3928 27.5625 28.2188 27.5625H19.0312C18.8572 27.5625 18.6903 27.6316 18.5672 27.7547C18.4441 27.8778 18.375 28.0447 18.375 28.2188C18.375 28.3928 18.4441 28.5597 18.5672 28.6828C18.6903 28.8059 18.8572 28.875 19.0312 28.875H22.3125C22.4865 28.875 22.6535 28.9441 22.7765 29.0672C22.8996 29.1903 22.9688 29.3572 22.9688 29.5312V33.4688C22.9688 33.6428 22.8996 33.8097 22.7765 33.9328C22.6535 34.0559 22.4865 34.125 22.3125 34.125H7.875C7.70095 34.125 7.53403 34.0559 7.41096 33.9328C7.28789 33.8097 7.21875 33.6428 7.21875 33.4688V29.5312C7.21875 29.3572 7.28789 29.1903 7.41096 29.0672C7.53403 28.9441 7.70095 28.875 7.875 28.875H16.4062C16.5803 28.875 16.7472 28.8059 16.8703 28.6828C16.9934 28.5597 17.0625 28.3928 17.0625 28.2188C17.0625 28.0447 16.9934 27.8778 16.8703 27.7547C16.7472 27.6316 16.5803 27.5625 16.4062 27.5625H13.7812C13.6072 27.5625 13.4403 27.4934 13.3172 27.3703C13.1941 27.2472 13.125 27.0803 13.125 26.9062V22.9688C13.125 22.7947 13.1941 22.6278 13.3172 22.5047C13.4403 22.3816 13.6072 22.3125 13.7812 22.3125H28.2188ZM1.3125 33.4688V29.5312C1.3125 29.3572 1.38164 29.1903 1.50471 29.0672C1.62778 28.9441 1.7947 28.875 1.96875 28.875H5.25C5.42405 28.875 5.59097 28.9441 5.71404 29.0672C5.83711 29.1903 5.90625 29.3572 5.90625 29.5312V33.4688C5.90625 33.6428 5.83711 33.8097 5.71404 33.9328C5.59097 34.0559 5.42405 34.125 5.25 34.125H1.96875C1.7947 34.125 1.62778 34.0559 1.50471 33.9328C1.38164 33.8097 1.3125 33.6428 1.3125 33.4688ZM11.1562 22.3125C11.3303 22.3125 11.4972 22.3816 11.6203 22.5047C11.7434 22.6278 11.8125 22.7947 11.8125 22.9688V26.9062C11.8125 27.0803 11.7434 27.2472 11.6203 27.3703C11.4972 27.4934 11.3303 27.5625 11.1562 27.5625H1.96875C1.7947 27.5625 1.62778 27.4934 1.50471 27.3703C1.38164 27.2472 1.3125 27.0803 1.3125 26.9062V22.9688C1.3125 22.7947 1.38164 22.6278 1.50471 22.5047C1.62778 22.3816 1.7947 22.3125 1.96875 22.3125H11.1562ZM1.3125 20.3438V16.4062C1.3125 16.2322 1.38164 16.0653 1.50471 15.9422C1.62778 15.8191 1.7947 15.75 1.96875 15.75H5.25C5.42405 15.75 5.59097 15.8191 5.71404 15.9422C5.83711 16.0653 5.90625 16.2322 5.90625 16.4062V20.3438C5.90625 20.5178 5.83711 20.6847 5.71404 20.8078C5.59097 20.9309 5.42405 21 5.25 21H1.96875C1.7947 21 1.62778 20.9309 1.50471 20.8078C1.38164 20.6847 1.3125 20.5178 1.3125 20.3438ZM1.3125 9.84375C1.3125 9.6697 1.38164 9.50278 1.50471 9.37971C1.62778 9.25664 1.7947 9.1875 1.96875 9.1875H11.1562C11.3303 9.1875 11.4972 9.25664 11.6203 9.37971C11.7434 9.50278 11.8125 9.6697 11.8125 9.84375V13.7812C11.8125 13.9553 11.7434 14.1222 11.6203 14.2453C11.4972 14.3684 11.3303 14.4375 11.1562 14.4375H1.96875C1.7947 14.4375 1.62778 14.3684 1.50471 14.2453C1.38164 14.1222 1.3125 13.9553 1.3125 13.7812V9.84375ZM11.1562 40.6875H1.96875C1.7947 40.6875 1.62778 40.6184 1.50471 40.4953C1.38164 40.3722 1.3125 40.2053 1.3125 40.0312V36.0938C1.3125 35.9197 1.38164 35.7528 1.50471 35.6297C1.62778 35.5066 1.7947 35.4375 1.96875 35.4375H11.1562C11.3303 35.4375 11.4972 35.5066 11.6203 35.6297C11.7434 35.7528 11.8125 35.9197 11.8125 36.0938V40.0312C11.8125 40.2053 11.7434 40.3722 11.6203 40.4953C11.4972 40.6184 11.3303 40.6875 11.1562 40.6875ZM28.2188 40.6875H13.7812C13.6072 40.6875 13.4403 40.6184 13.3172 40.4953C13.1941 40.3722 13.125 40.2053 13.125 40.0312V36.0938C13.125 35.9197 13.1941 35.7528 13.3172 35.6297C13.4403 35.5066 13.6072 35.4375 13.7812 35.4375H28.2188C28.3928 35.4375 28.5597 35.5066 28.6828 35.6297C28.8059 35.7528 28.875 35.9197 28.875 36.0938V40.0312C28.875 40.2053 28.8059 40.3722 28.6828 40.4953C28.5597 40.6184 28.3928 40.6875 28.2188 40.6875ZM40.6875 40.0312C40.6875 40.2053 40.6184 40.3722 40.4953 40.4953C40.3722 40.6184 40.2053 40.6875 40.0312 40.6875H30.8438C30.6697 40.6875 30.5028 40.6184 30.3797 40.4953C30.2566 40.3722 30.1875 40.2053 30.1875 40.0312V36.0938C30.1875 35.9197 30.2566 35.7528 30.3797 35.6297C30.5028 35.5066 30.6697 35.4375 30.8438 35.4375H40.0312C40.2053 35.4375 40.3722 35.5066 40.4953 35.6297C40.6184 35.7528 40.6875 35.9197 40.6875 36.0938V40.0312Z" fill="#C39B54"/>
			<path d="M22.1813 18.7912C22.408 19.2775 22.7497 19.7012 23.1769 20.0258C23.6041 20.3504 24.1039 20.5662 24.6331 20.6543C24.8268 20.6882 25.0231 20.7053 25.2198 20.7055C25.6557 20.705 26.0873 20.618 26.4894 20.4496C26.8916 20.2812 27.2563 20.0347 27.5626 19.7244L30.1029 17.1841L32.0257 19.1062L31.5395 19.5925C31.4164 19.7156 31.3473 19.8825 31.3473 20.0565C31.3473 20.2305 31.4164 20.3974 31.5395 20.5204L36.2907 25.271C36.918 25.8983 37.7687 26.2507 38.6558 26.2507C39.5429 26.2507 40.3937 25.8983 41.0209 25.271C41.6482 24.6438 42.0006 23.793 42.0006 22.9059C42.0006 22.0188 41.6482 21.1681 41.0209 20.5408L36.2704 15.7902C36.1473 15.6672 35.9804 15.5981 35.8064 15.5981C35.6324 15.5981 35.4655 15.6672 35.3424 15.7902L34.8561 16.2765L32.934 14.3537L35.4743 11.8127C35.8515 11.4334 36.1322 10.9693 36.2931 10.4592C36.4539 9.94905 36.4902 9.40781 36.3988 8.88081C36.3074 8.3538 36.091 7.85638 35.7678 7.43021C35.4446 7.00404 35.024 6.66154 34.5411 6.43142L29.156 3.87926C29.0778 3.84007 28.9926 3.81689 28.9054 3.81108C28.8182 3.80527 28.7307 3.81694 28.648 3.84541C28.5654 3.87389 28.4892 3.91859 28.4241 3.97689C28.3589 4.0352 28.3061 4.10593 28.2687 4.18493C28.2313 4.26393 28.21 4.34962 28.2062 4.43695C28.2023 4.52429 28.2159 4.61151 28.2463 4.6935C28.2766 4.7755 28.323 4.8506 28.3827 4.91442C28.4425 4.97823 28.5144 5.02946 28.5942 5.0651L33.9794 7.61595C34.2729 7.75583 34.5287 7.96405 34.7252 8.22314C34.9217 8.48223 35.0532 8.78465 35.1087 9.10505C35.1643 9.42545 35.1422 9.75449 35.0443 10.0646C34.9465 10.3747 34.7757 10.6568 34.5464 10.8874L32.006 13.4277L30.5702 11.9918C30.1891 11.6283 29.6826 11.4254 29.156 11.4254C28.6293 11.4254 28.1228 11.6283 27.7417 11.9918C27.5559 12.1776 27.4086 12.3981 27.308 12.6408C27.2075 12.8835 27.1557 13.1437 27.1557 13.4064C27.1557 13.6691 27.2075 13.9292 27.308 14.1719C27.4086 14.4146 27.5559 14.6352 27.7417 14.8209L29.1776 16.2568L26.6373 18.7965C26.4067 19.0258 26.1246 19.1966 25.8145 19.2944C25.5044 19.3923 25.1754 19.4144 24.855 19.3588C24.5346 19.3033 24.2321 19.1718 23.973 18.9753C23.714 18.7788 23.5057 18.523 23.3659 18.2295L17.2594 5.33548C17.0807 4.95679 17.0232 4.53217 17.0947 4.11957C17.1662 3.70697 17.3633 3.32649 17.6591 3.03007L18.7813 1.90788C19.0775 1.61209 19.4578 1.41506 19.8702 1.34375C20.2827 1.27244 20.7071 1.33035 21.0854 1.50954L25.9692 3.82282C26.0473 3.86201 26.1325 3.88519 26.2198 3.891C26.307 3.89682 26.3945 3.88514 26.4771 3.85667C26.5598 3.82819 26.6359 3.78349 26.7011 3.72519C26.7662 3.66689 26.819 3.59616 26.8565 3.51715C26.8939 3.43815 26.9151 3.35246 26.919 3.26513C26.9229 3.17779 26.9092 3.09057 26.8789 3.00858C26.8486 2.92659 26.8022 2.85148 26.7424 2.78767C26.6827 2.72385 26.6108 2.67262 26.531 2.63698L21.6471 0.322385C21.024 0.0276176 20.325 -0.0675376 19.6457 0.0499228C18.9665 0.167383 18.34 0.491728 17.852 0.978635L16.7299 2.10017C16.2429 2.58815 15.9186 3.21459 15.8011 3.89386C15.6837 4.57313 15.7788 5.27211 16.0736 5.89526L22.1813 18.7912ZM40.0969 21.4707C40.3035 21.6551 40.4703 21.8796 40.587 22.1307C40.7038 22.3818 40.7681 22.654 40.7759 22.9308C40.7838 23.2075 40.7351 23.483 40.6327 23.7403C40.5304 23.9976 40.3767 24.2313 40.1809 24.427C39.9851 24.6228 39.7514 24.7766 39.4941 24.8789C39.2369 24.9812 38.9614 25.0299 38.6846 25.0221C38.4079 25.0142 38.1356 24.9499 37.8846 24.8332C37.6335 24.7164 37.4089 24.5497 37.2245 24.3431L32.9379 20.0565L35.8103 17.1841L40.0969 21.4707ZM28.4682 13.406C28.468 13.27 28.5082 13.137 28.5837 13.0239C28.6592 12.9107 28.7666 12.8225 28.8922 12.7704C29.0179 12.7184 29.1562 12.7047 29.2896 12.7313C29.423 12.7579 29.5455 12.8235 29.6416 12.9198L33.9282 17.2064L32.9563 18.1783L28.6697 13.8917C28.6056 13.8281 28.5548 13.7524 28.5202 13.6691C28.4857 13.5857 28.468 13.4963 28.4682 13.406Z" fill="#C39B54"/>
		</g>
		<defs>
		<clipPath id="clip0_176_713">
		<rect width="42" height="42" fill="white"/>
		</clipPath>
		</defs>
	</symbol>
</svg>
